{
	"patcher" : 	{
		"fileversion" : 1,
		"appversion" : 		{
			"major" : 8,
			"minor" : 2,
			"revision" : 0,
			"architecture" : "x64",
			"modernui" : 1
		}
,
		"classnamespace" : "box",
		"rect" : [ 100.0, 100.0, 992.0, 908.0 ],
		"bglocked" : 0,
		"openinpresentation" : 0,
		"default_fontsize" : 12.0,
		"default_fontface" : 0,
		"default_fontname" : "Arial",
		"gridonopen" : 1,
		"gridsize" : [ 15.0, 15.0 ],
		"gridsnaponopen" : 1,
		"objectsnaponopen" : 1,
		"statusbarvisible" : 2,
		"toolbarvisible" : 1,
		"lefttoolbarpinned" : 0,
		"toptoolbarpinned" : 0,
		"righttoolbarpinned" : 0,
		"bottomtoolbarpinned" : 0,
		"toolbars_unpinned_last_save" : 0,
		"tallnewobj" : 0,
		"boxanimatetime" : 200,
		"enablehscroll" : 1,
		"enablevscroll" : 1,
		"devicewidth" : 0.0,
		"description" : "",
		"digest" : "",
		"tags" : "",
		"style" : "",
		"subpatcher_template" : "",
		"showrootpatcherontab" : 0,
		"showontab" : 0,
		"assistshowspatchername" : 0,
		"boxes" : [ 			{
				"box" : 				{
					"id" : "obj-3",
					"maxclass" : "newobj",
					"numinlets" : 1,
					"numoutlets" : 1,
					"outlettype" : [ "" ],
					"patching_rect" : [ 223.0, 149.0, 195.0, 22.0 ],
					"saved_object_attributes" : 					{
						"filename" : "helpstarter.js",
						"parameter_enable" : 0
					}
,
					"text" : "js helpstarter.js fluid.bufchroma~"
				}

			}
, 			{
				"box" : 				{
					"id" : "obj-1",
					"maxclass" : "newobj",
					"numinlets" : 0,
					"numoutlets" : 0,
					"patcher" : 					{
						"fileversion" : 1,
						"appversion" : 						{
							"major" : 8,
							"minor" : 2,
							"revision" : 0,
							"architecture" : "x64",
							"modernui" : 1
						}
,
						"classnamespace" : "box",
						"rect" : [ 100.0, 126.0, 992.0, 882.0 ],
						"bglocked" : 0,
						"openinpresentation" : 0,
						"default_fontsize" : 12.0,
						"default_fontface" : 0,
						"default_fontname" : "Arial",
						"gridonopen" : 2,
						"gridsize" : [ 10.0, 10.0 ],
						"gridsnaponopen" : 2,
						"objectsnaponopen" : 1,
						"statusbarvisible" : 2,
						"toolbarvisible" : 1,
						"lefttoolbarpinned" : 0,
						"toptoolbarpinned" : 0,
						"righttoolbarpinned" : 0,
						"bottomtoolbarpinned" : 0,
						"toolbars_unpinned_last_save" : 0,
						"tallnewobj" : 0,
						"boxanimatetime" : 200,
						"enablehscroll" : 1,
						"enablevscroll" : 1,
						"devicewidth" : 0.0,
						"description" : "",
						"digest" : "",
						"tags" : "",
						"style" : "",
						"subpatcher_template" : "",
						"showontab" : 1,
						"assistshowspatchername" : 0,
						"boxes" : [ 							{
								"box" : 								{
									"id" : "obj-34",
									"maxclass" : "newobj",
									"numinlets" : 1,
									"numoutlets" : 1,
									"outlettype" : [ "" ],
									"patching_rect" : [ 159.999999999999972, 660.0, 146.0, 22.0 ],
									"text" : "vexpr $f1 / 1000. * 44100."
								}

							}
, 							{
								"box" : 								{
									"id" : "obj-32",
									"maxclass" : "newobj",
									"numinlets" : 1,
									"numoutlets" : 2,
									"outlettype" : [ "bang", "" ],
									"patching_rect" : [ 159.999999999999972, 700.0, 29.5, 22.0 ],
									"text" : "t b l"
								}

							}
, 							{
								"box" : 								{
									"id" : "obj-31",
									"maxclass" : "newobj",
									"numinlets" : 1,
									"numoutlets" : 2,
									"outlettype" : [ "", "" ],
									"patching_rect" : [ 136.5, 780.0, 29.5, 22.0 ],
									"text" : "t l l"
								}

							}
, 							{
								"box" : 								{
									"id" : "obj-30",
									"maxclass" : "message",
									"numinlets" : 2,
									"numoutlets" : 1,
									"outlettype" : [ "" ],
									"patching_rect" : [ 227.5, 820.0, 85.0, 22.0 ],
									"text" : "numframes $1"
								}

							}
, 							{
								"box" : 								{
									"id" : "obj-28",
									"maxclass" : "message",
									"numinlets" : 2,
									"numoutlets" : 1,
									"outlettype" : [ "" ],
									"patching_rect" : [ 136.5, 820.0, 79.0, 22.0 ],
									"text" : "startframe $1"
								}

							}
, 							{
								"box" : 								{
									"id" : "obj-20",
									"maxclass" : "newobj",
									"numinlets" : 2,
									"numoutlets" : 1,
									"outlettype" : [ "" ],
									"patching_rect" : [ 159.999999999999972, 630.0, 40.0, 22.0 ],
									"text" : "pak i i"
								}

							}
, 							{
								"box" : 								{
									"id" : "obj-18",
									"maxclass" : "newobj",
									"numinlets" : 2,
									"numoutlets" : 1,
									"outlettype" : [ "float" ],
									"patching_rect" : [ 560.0, 640.0, 29.5, 22.0 ],
									"text" : "!- 0."
								}

							}
, 							{
								"box" : 								{
									"id" : "obj-17",
									"maxclass" : "newobj",
									"numinlets" : 1,
									"numoutlets" : 2,
									"outlettype" : [ "float", "bang" ],
									"patching_rect" : [ 810.0, 650.0, 161.0, 22.0 ],
									"text" : "buffer~ bufchroma.help.stats"
								}

							}
, 							{
								"box" : 								{
									"id" : "obj-15",
									"maxclass" : "newobj",
									"numinlets" : 1,
									"numoutlets" : 3,
									"outlettype" : [ "bang", "float", "" ],
									"patching_rect" : [ 472.5, 810.0, 423.0, 22.0 ],
									"text" : "fluid.bufstats~ @source bufchroma.help.features @stats bufchroma.help.stats"
								}

							}
, 							{
								"box" : 								{
									"color" : [ 0.423529411764706, 0.513725490196078, 1.0, 1.0 ],
									"id" : "obj-14",
									"maxclass" : "newobj",
									"numinlets" : 1,
									"numoutlets" : 2,
									"outlettype" : [ "float", "bang" ],
									"patching_rect" : [ 310.0, 213.0, 185.0, 22.0 ],
									"text" : "buffer~ bufchroma.help.src.mono"
								}

							}
, 							{
								"box" : 								{
									"id" : "obj-13",
									"maxclass" : "newobj",
									"numinlets" : 1,
									"numoutlets" : 1,
									"outlettype" : [ "bang" ],
									"patcher" : 									{
										"fileversion" : 1,
										"appversion" : 										{
											"major" : 8,
											"minor" : 2,
											"revision" : 0,
											"architecture" : "x64",
											"modernui" : 1
										}
,
										"classnamespace" : "box",
										"rect" : [ 1070.0, 455.0, 799.0, 511.0 ],
										"bglocked" : 0,
										"openinpresentation" : 0,
										"default_fontsize" : 12.0,
										"default_fontface" : 0,
										"default_fontname" : "Arial",
										"gridonopen" : 1,
										"gridsize" : [ 15.0, 15.0 ],
										"gridsnaponopen" : 1,
										"objectsnaponopen" : 1,
										"statusbarvisible" : 2,
										"toolbarvisible" : 1,
										"lefttoolbarpinned" : 0,
										"toptoolbarpinned" : 0,
										"righttoolbarpinned" : 0,
										"bottomtoolbarpinned" : 0,
										"toolbars_unpinned_last_save" : 0,
										"tallnewobj" : 0,
										"boxanimatetime" : 200,
										"enablehscroll" : 1,
										"enablevscroll" : 1,
										"devicewidth" : 0.0,
										"description" : "",
										"digest" : "",
										"tags" : "",
										"style" : "",
										"subpatcher_template" : "",
										"assistshowspatchername" : 0,
										"boxes" : [ 											{
												"box" : 												{
													"id" : "obj-5",
													"maxclass" : "message",
													"numinlets" : 2,
													"numoutlets" : 1,
													"outlettype" : [ "" ],
													"patching_rect" : [ 12.0, 57.0, 201.0, 22.0 ],
													"text" : "startchan 0, bang, startchan 1, bang"
												}

											}
, 											{
												"box" : 												{
													"id" : "obj-3",
													"linecount" : 4,
													"maxclass" : "newobj",
													"numinlets" : 1,
													"numoutlets" : 3,
													"outlettype" : [ "bang", "float", "" ],
													"patching_rect" : [ 12.0, 96.0, 201.0, 62.0 ],
													"text" : "fluid.bufcompose~ @source bufchroma.help.src @destination bufchroma.help.src.mono @destgain 0.5 @numchans 1"
												}

											}
, 											{
												"box" : 												{
													"comment" : "",
													"id" : "obj-2",
													"index" : 1,
													"maxclass" : "outlet",
													"numinlets" : 1,
													"numoutlets" : 0,
													"patching_rect" : [ 12.0, 174.0, 30.0, 30.0 ]
												}

											}
, 											{
												"box" : 												{
													"comment" : "",
													"id" : "obj-1",
													"index" : 1,
													"maxclass" : "inlet",
													"numinlets" : 0,
													"numoutlets" : 1,
													"outlettype" : [ "bang" ],
													"patching_rect" : [ 12.0, 9.0, 30.0, 30.0 ]
												}

											}
 ],
										"lines" : [ 											{
												"patchline" : 												{
													"destination" : [ "obj-5", 0 ],
													"source" : [ "obj-1", 0 ]
												}

											}
, 											{
												"patchline" : 												{
													"destination" : [ "obj-2", 0 ],
													"source" : [ "obj-3", 0 ]
												}

											}
, 											{
												"patchline" : 												{
													"destination" : [ "obj-3", 0 ],
													"source" : [ "obj-5", 0 ]
												}

											}
 ]
									}
,
									"patching_rect" : [ 10.0, 290.0, 168.0, 22.0 ],
									"saved_object_attributes" : 									{
										"description" : "",
										"digest" : "",
										"globalpatchername" : "",
										"tags" : ""
									}
,
									"text" : "p \"stereo to mono conversion\""
								}

							}
, 							{
								"box" : 								{
									"id" : "obj-9",
									"maxclass" : "number",
									"numinlets" : 1,
									"numoutlets" : 2,
									"outlettype" : [ "", "bang" ],
									"parameter_enable" : 0,
									"patching_rect" : [ 659.0, 410.0, 50.0, 22.0 ]
								}

							}
, 							{
								"box" : 								{
									"args" : [ "@file", "Tremblay-SA-UprightPianoPedalWide.wav" ],
									"bgmode" : 0,
									"border" : 0,
									"clickthrough" : 0,
									"enablehscroll" : 0,
									"enablevscroll" : 0,
									"id" : "obj-7",
									"lockeddragscroll" : 0,
									"lockedsize" : 0,
									"maxclass" : "bpatcher",
									"name" : "fluid.bufloader.maxpat",
									"numinlets" : 0,
									"numoutlets" : 1,
									"offset" : [ 0.0, 0.0 ],
									"outlettype" : [ "" ],
									"patching_rect" : [ 210.0, 106.666655999999989, 290.0, 30.0 ],
									"viewvisibility" : 1
								}

							}
, 							{
								"box" : 								{
									"bgcolor" : [ 0.2, 0.2, 0.2, 0.0 ],
									"buffername" : "bufchroma.help.src",
									"gridcolor" : [ 0.349019607843137, 0.349019607843137, 0.349019607843137, 0.0 ],
									"id" : "obj-2",
									"maxclass" : "waveform~",
									"numinlets" : 5,
									"numoutlets" : 6,
									"outlettype" : [ "float", "float", "float", "float", "list", "" ],
									"patching_rect" : [ 10.0, 420.0, 410.0, 190.0 ],
									"setmode" : 1
								}

							}
, 							{
								"box" : 								{
									"id" : "obj-24",
									"linecount" : 5,
									"maxclass" : "comment",
									"numinlets" : 1,
									"numoutlets" : 0,
									"patching_rect" : [ 720.0, 410.0, 172.0, 74.0 ],
									"text" : "Each channel is reserved for each chroma. Each frame describes the strength of that chroma at each FFT analysis window in time."
								}

							}
, 							{
								"box" : 								{
									"id" : "obj-16",
									"maxclass" : "newobj",
									"numinlets" : 1,
									"numoutlets" : 9,
									"outlettype" : [ "float", "list", "float", "float", "float", "float", "float", "", "int" ],
									"patching_rect" : [ 510.0, 380.0, 168.0, 22.0 ],
									"text" : "info~ bufchroma.help.features"
								}

							}
, 							{
								"box" : 								{
									"id" : "obj-8",
									"maxclass" : "message",
									"numinlets" : 2,
									"numoutlets" : 1,
									"outlettype" : [ "" ],
									"patching_rect" : [ 10.0, 380.0, 458.0, 22.0 ],
									"text" : "addlayer line bufchroma.help.features, color bufchroma.help.features 0.9. 0.3. 0.3. 1."
								}

							}
, 							{
								"box" : 								{
									"filename" : "fluid.waveform~",
									"id" : "obj-25",
									"maxclass" : "jsui",
									"numinlets" : 3,
									"numoutlets" : 1,
									"outlettype" : [ "" ],
									"parameter_enable" : 0,
									"patching_rect" : [ 10.0, 420.0, 410.0, 190.0 ]
								}

							}
, 							{
								"box" : 								{
									"id" : "obj-23",
									"maxclass" : "toggle",
									"numinlets" : 1,
									"numoutlets" : 1,
									"outlettype" : [ "int" ],
									"parameter_enable" : 0,
									"patching_rect" : [ 10.0, 110.0, 24.0, 24.0 ]
								}

							}
, 							{
								"box" : 								{
									"args" : [ "chroma" ],
									"bgmode" : 0,
									"border" : 0,
									"clickthrough" : 0,
									"enablehscroll" : 0,
									"enablevscroll" : 0,
									"id" : "obj-75",
									"lockeddragscroll" : 0,
									"lockedsize" : 0,
									"maxclass" : "bpatcher",
									"name" : "fluid.learn.maxpat",
									"numinlets" : 0,
									"numoutlets" : 0,
									"offset" : [ -10.0, -8.0 ],
									"patching_rect" : [ 389.0, 10.0, 230.0, 50.0 ],
									"viewvisibility" : 1
								}

							}
, 							{
								"box" : 								{
									"bgmode" : 0,
									"border" : 0,
									"clickthrough" : 0,
									"enablehscroll" : 0,
									"enablevscroll" : 0,
									"id" : "obj-19",
									"lockeddragscroll" : 0,
									"lockedsize" : 0,
									"maxclass" : "bpatcher",
									"name" : "fluid.flucomaorg.maxpat",
									"numinlets" : 0,
									"numoutlets" : 0,
									"offset" : [ -10.0, -8.0 ],
									"patching_rect" : [ 389.0, 61.0, 160.0, 40.0 ],
									"viewvisibility" : 1
								}

							}
, 							{
								"box" : 								{
									"bgcolor" : [ 1.0, 0.788235, 0.470588, 1.0 ],
									"fontname" : "Arial Bold",
									"hint" : "",
									"id" : "obj-11",
									"ignoreclick" : 1,
									"legacytextcolor" : 1,
									"maxclass" : "textbutton",
									"numinlets" : 1,
									"numoutlets" : 3,
									"outlettype" : [ "", "", "int" ],
									"parameter_enable" : 0,
									"patching_rect" : [ 157.0, 252.0, 20.0, 20.0 ],
									"rounded" : 60.0,
									"text" : "2",
									"textcolor" : [ 0.34902, 0.34902, 0.34902, 1.0 ]
								}

							}
, 							{
								"box" : 								{
									"border" : 0,
									"filename" : "helpdetails.js",
									"id" : "obj-4",
									"ignoreclick" : 1,
									"jsarguments" : [ "fluid.bufchroma~" ],
									"maxclass" : "jsui",
									"numinlets" : 1,
									"numoutlets" : 1,
									"outlettype" : [ "" ],
									"parameter_enable" : 0,
									"patching_rect" : [ 10.0, 10.0, 376.0, 83.0 ]
								}

							}
, 							{
								"box" : 								{
									"bubble" : 1,
									"id" : "obj-48",
									"maxclass" : "comment",
									"numinlets" : 1,
									"numoutlets" : 0,
									"patching_rect" : [ 36.0, 110.0, 130.0, 24.0 ],
									"text" : "Listen to the source"
								}

							}
, 							{
								"box" : 								{
									"bubble" : 1,
									"id" : "obj-44",
									"maxclass" : "comment",
									"numinlets" : 1,
									"numoutlets" : 0,
									"patching_rect" : [ 40.0, 250.0, 112.0, 24.0 ],
									"text" : "Start processing"
								}

							}
, 							{
								"box" : 								{
									"bgcolor" : [ 1.0, 0.788235, 0.470588, 1.0 ],
									"fontname" : "Arial Bold",
									"hint" : "",
									"id" : "obj-26",
									"ignoreclick" : 1,
									"legacytextcolor" : 1,
									"maxclass" : "textbutton",
									"numinlets" : 1,
									"numoutlets" : 3,
									"outlettype" : [ "", "", "int" ],
									"parameter_enable" : 0,
									"patching_rect" : [ 170.0, 112.0, 20.0, 20.0 ],
									"rounded" : 60.0,
									"text" : "1",
									"textcolor" : [ 0.34902, 0.34902, 0.34902, 1.0 ]
								}

							}
, 							{
								"box" : 								{
									"id" : "obj-38",
									"maxclass" : "button",
									"numinlets" : 1,
									"numoutlets" : 1,
									"outlettype" : [ "bang" ],
									"parameter_enable" : 0,
									"patching_rect" : [ 10.0, 250.0, 24.0, 24.0 ]
								}

							}
, 							{
								"box" : 								{
									"id" : "obj-12",
									"local" : 1,
									"maxclass" : "ezdac~",
									"numinlets" : 2,
									"numoutlets" : 0,
									"patching_rect" : [ 10.0, 190.0, 45.0, 45.0 ]
								}

							}
, 							{
								"box" : 								{
									"color" : [ 0.423529411764706, 0.513725490196078, 1.0, 1.0 ],
									"id" : "obj-10",
									"maxclass" : "newobj",
									"numinlets" : 1,
									"numoutlets" : 2,
									"outlettype" : [ "signal", "bang" ],
									"patching_rect" : [ 10.0, 149.666655999999989, 143.0, 22.0 ],
									"text" : "play~ bufchroma.help.src"
								}

							}
, 							{
								"box" : 								{
									"color" : [ 0.423529411764706, 0.513725490196078, 1.0, 1.0 ],
									"id" : "obj-5",
									"maxclass" : "newobj",
									"numinlets" : 1,
									"numoutlets" : 2,
									"outlettype" : [ "float", "bang" ],
									"patching_rect" : [ 210.0, 149.666655999999989, 151.0, 22.0 ],
									"text" : "buffer~ bufchroma.help.src"
								}

							}
, 							{
								"box" : 								{
									"color" : [ 1.0, 0.43921568627451, 0.662745098039216, 1.0 ],
									"id" : "obj-3",
									"maxclass" : "newobj",
									"numinlets" : 1,
									"numoutlets" : 2,
									"outlettype" : [ "float", "bang" ],
									"patching_rect" : [ 510.0, 330.0, 179.0, 22.0 ],
									"text" : "buffer~ bufchroma.help.features"
								}

							}
, 							{
								"box" : 								{
									"color" : [ 1.0, 0.43921568627451, 0.662745098039216, 1.0 ],
									"id" : "obj-1",
									"maxclass" : "newobj",
									"numinlets" : 1,
									"numoutlets" : 3,
									"outlettype" : [ "bang", "float", "" ],
									"patching_rect" : [ 10.0, 330.0, 496.0, 22.0 ],
									"text" : "fluid.bufchroma~ 12 @source bufchroma.help.src.mono @features bufchroma.help.features"
								}

							}
 ],
						"lines" : [ 							{
								"patchline" : 								{
									"destination" : [ "obj-16", 0 ],
									"midpoints" : [ 19.5, 366.0, 519.5, 366.0 ],
									"order" : 0,
									"source" : [ "obj-1", 0 ]
								}

							}
, 							{
								"patchline" : 								{
									"destination" : [ "obj-8", 0 ],
									"order" : 1,
									"source" : [ "obj-1", 0 ]
								}

							}
, 							{
								"patchline" : 								{
									"destination" : [ "obj-12", 1 ],
									"order" : 0,
									"source" : [ "obj-10", 0 ]
								}

							}
, 							{
								"patchline" : 								{
									"destination" : [ "obj-12", 0 ],
									"order" : 1,
									"source" : [ "obj-10", 0 ]
								}

							}
, 							{
								"patchline" : 								{
									"destination" : [ "obj-1", 0 ],
									"source" : [ "obj-13", 0 ]
								}

							}
, 							{
								"patchline" : 								{
									"destination" : [ "obj-9", 0 ],
									"source" : [ "obj-16", 8 ]
								}

							}
, 							{
								"patchline" : 								{
									"destination" : [ "obj-30", 0 ],
									"source" : [ "obj-18", 0 ]
								}

							}
, 							{
								"patchline" : 								{
									"destination" : [ "obj-20", 1 ],
									"source" : [ "obj-2", 3 ]
								}

							}
, 							{
								"patchline" : 								{
									"destination" : [ "obj-20", 0 ],
									"source" : [ "obj-2", 2 ]
								}

							}
, 							{
								"patchline" : 								{
									"destination" : [ "obj-34", 0 ],
									"source" : [ "obj-20", 0 ]
								}

							}
, 							{
								"patchline" : 								{
									"destination" : [ "obj-10", 0 ],
									"source" : [ "obj-23", 0 ]
								}

							}
, 							{
								"patchline" : 								{
									"destination" : [ "obj-15", 0 ],
									"source" : [ "obj-28", 0 ]
								}

							}
, 							{
								"patchline" : 								{
									"destination" : [ "obj-15", 0 ],
									"source" : [ "obj-30", 0 ]
								}

							}
, 							{
								"patchline" : 								{
									"destination" : [ "obj-18", 0 ],
									"source" : [ "obj-31", 1 ]
								}

							}
, 							{
								"patchline" : 								{
									"destination" : [ "obj-28", 0 ],
									"source" : [ "obj-31", 0 ]
								}

							}
, 							{
								"patchline" : 								{
									"destination" : [ "obj-15", 0 ],
									"source" : [ "obj-32", 0 ]
								}

							}
, 							{
								"patchline" : 								{
									"destination" : [ "obj-31", 0 ],
									"source" : [ "obj-32", 1 ]
								}

							}
, 							{
								"patchline" : 								{
									"destination" : [ "obj-32", 0 ],
									"source" : [ "obj-34", 0 ]
								}

							}
, 							{
								"patchline" : 								{
									"destination" : [ "obj-13", 0 ],
									"midpoints" : [ 19.5, 276.0, 19.5, 276.0 ],
									"source" : [ "obj-38", 0 ]
								}

							}
, 							{
								"patchline" : 								{
									"destination" : [ "obj-38", 0 ],
									"midpoints" : [ 351.5, 198.0, 66.0, 198.0, 66.0, 243.0, 19.5, 243.0 ],
									"source" : [ "obj-5", 1 ]
								}

							}
, 							{
								"patchline" : 								{
									"destination" : [ "obj-5", 0 ],
									"source" : [ "obj-7", 0 ]
								}

							}
, 							{
								"patchline" : 								{
									"destination" : [ "obj-25", 0 ],
									"source" : [ "obj-8", 0 ]
								}

							}
 ],
						"styles" : [ 							{
								"name" : "max6box",
								"default" : 								{
									"textcolor_inverse" : [ 0.0, 0.0, 0.0, 1.0 ],
									"bgcolor" : [ 1.0, 1.0, 1.0, 0.5 ],
									"accentcolor" : [ 0.8, 0.839216, 0.709804, 1.0 ]
								}
,
								"parentstyle" : "",
								"multi" : 0
							}
, 							{
								"name" : "max6inlet",
								"default" : 								{
									"color" : [ 0.423529, 0.372549, 0.27451, 1.0 ]
								}
,
								"parentstyle" : "",
								"multi" : 0
							}
, 							{
								"name" : "max6message",
								"default" : 								{
									"textcolor_inverse" : [ 0.0, 0.0, 0.0, 1.0 ],
									"bgfillcolor" : 									{
										"type" : "gradient",
										"color1" : [ 0.866667, 0.866667, 0.866667, 1.0 ],
										"color2" : [ 0.788235, 0.788235, 0.788235, 1.0 ],
										"color" : [ 0.290196, 0.309804, 0.301961, 1.0 ],
										"angle" : 270.0,
										"proportion" : 0.39,
										"autogradient" : 0
									}

								}
,
								"parentstyle" : "max6box",
								"multi" : 0
							}
, 							{
								"name" : "max6outlet",
								"default" : 								{
									"color" : [ 0.0, 0.454902, 0.498039, 1.0 ]
								}
,
								"parentstyle" : "",
								"multi" : 0
							}
 ]
					}
,
					"patching_rect" : [ 39.666671999999998, 108.0, 49.0, 22.0 ],
					"saved_object_attributes" : 					{
						"description" : "",
						"digest" : "",
						"globalpatchername" : "",
						"tags" : ""
					}
,
					"text" : "p basic",
					"varname" : "basic_tab"
				}

			}
, 			{
				"box" : 				{
					"border" : 0,
					"filename" : "helpname.js",
					"id" : "obj-6",
					"ignoreclick" : 1,
					"jsarguments" : [ "fluid.bufchroma~" ],
					"maxclass" : "jsui",
					"numinlets" : 1,
					"numoutlets" : 1,
					"outlettype" : [ "" ],
					"parameter_enable" : 0,
					"patching_rect" : [ 10.0, 10.0, 363.9200439453125, 57.599853515625 ]
				}

			}
, 			{
				"box" : 				{
					"id" : "obj-7",
					"maxclass" : "newobj",
					"numinlets" : 0,
					"numoutlets" : 0,
					"patcher" : 					{
						"fileversion" : 1,
						"appversion" : 						{
							"major" : 8,
							"minor" : 2,
							"revision" : 0,
							"architecture" : "x64",
							"modernui" : 1
						}
,
						"classnamespace" : "box",
						"rect" : [ 0.0, 26.0, 992.0, 882.0 ],
						"bglocked" : 0,
						"openinpresentation" : 0,
						"default_fontsize" : 12.0,
						"default_fontface" : 0,
						"default_fontname" : "Arial",
						"gridonopen" : 1,
						"gridsize" : [ 15.0, 15.0 ],
						"gridsnaponopen" : 1,
						"objectsnaponopen" : 1,
						"statusbarvisible" : 2,
						"toolbarvisible" : 1,
						"lefttoolbarpinned" : 0,
						"toptoolbarpinned" : 0,
						"righttoolbarpinned" : 0,
						"bottomtoolbarpinned" : 0,
						"toolbars_unpinned_last_save" : 0,
						"tallnewobj" : 0,
						"boxanimatetime" : 200,
						"enablehscroll" : 1,
						"enablevscroll" : 1,
						"devicewidth" : 0.0,
						"description" : "",
						"digest" : "",
						"tags" : "",
						"style" : "",
						"subpatcher_template" : "",
						"showontab" : 1,
						"assistshowspatchername" : 0,
						"boxes" : [  ],
						"lines" : [  ]
					}
,
					"patching_rect" : [ 149.0, 129.0, 50.0, 22.0 ],
					"saved_object_attributes" : 					{
						"description" : "",
						"digest" : "",
						"globalpatchername" : "",
						"tags" : ""
					}
,
					"text" : "p ?",
					"varname" : "q_tab"
				}

			}
 ],
		"lines" : [  ],
		"dependency_cache" : [ 			{
				"name" : "helpname.js",
				"bootpath" : "C74:/help/resources",
				"type" : "TEXT",
				"implicit" : 1
			}
, 			{
				"name" : "helpdetails.js",
				"bootpath" : "C74:/help/resources",
				"type" : "TEXT",
				"implicit" : 1
			}
, 			{
				"name" : "fluid.flucomaorg.maxpat",
				"bootpath" : "~/dev/flucoma/max/help",
				"patcherrelativepath" : ".",
				"type" : "JSON",
				"implicit" : 1
			}
, 			{
				"name" : "fluid.learn.maxpat",
				"bootpath" : "~/dev/flucoma/max/help",
				"patcherrelativepath" : ".",
				"type" : "JSON",
				"implicit" : 1
			}
, 			{
				"name" : "fluid.waveform~.js",
				"bootpath" : "~/dev/flucoma/max/jsui",
				"patcherrelativepath" : "../jsui",
				"type" : "TEXT",
				"implicit" : 1
			}
, 			{
				"name" : "fluid.bufloader.maxpat",
				"bootpath" : "~/dev/flucoma/max/misc",
				"patcherrelativepath" : "../misc",
				"type" : "JSON",
				"implicit" : 1
			}
, 			{
				"name" : "fluid.patchpath.js",
				"bootpath" : "~/dev/flucoma/max/help",
				"patcherrelativepath" : ".",
				"type" : "TEXT",
				"implicit" : 1
			}
, 			{
				"name" : "helpstarter.js",
				"bootpath" : "C74:/help/resources",
				"type" : "TEXT",
				"implicit" : 1
			}
, 			{
				"name" : "fluid.bufchroma~.mxo",
				"type" : "iLaX"
			}
, 			{
				"name" : "fluid.bufcompose~.mxo",
				"type" : "iLaX"
			}
, 			{
				"name" : "fluid.bufstats~.mxo",
				"type" : "iLaX"
			}
 ],
		"autosave" : 0,
		"styles" : [ 			{
				"name" : "max6box",
				"default" : 				{
					"textcolor_inverse" : [ 0.0, 0.0, 0.0, 1.0 ],
					"bgcolor" : [ 1.0, 1.0, 1.0, 0.5 ],
					"accentcolor" : [ 0.8, 0.839216, 0.709804, 1.0 ]
				}
,
				"parentstyle" : "",
				"multi" : 0
			}
, 			{
				"name" : "max6inlet",
				"default" : 				{
					"color" : [ 0.423529, 0.372549, 0.27451, 1.0 ]
				}
,
				"parentstyle" : "",
				"multi" : 0
			}
, 			{
				"name" : "max6message",
				"default" : 				{
					"textcolor_inverse" : [ 0.0, 0.0, 0.0, 1.0 ],
					"bgfillcolor" : 					{
						"type" : "gradient",
						"color1" : [ 0.866667, 0.866667, 0.866667, 1.0 ],
						"color2" : [ 0.788235, 0.788235, 0.788235, 1.0 ],
						"color" : [ 0.290196, 0.309804, 0.301961, 1.0 ],
						"angle" : 270.0,
						"proportion" : 0.39,
						"autogradient" : 0
					}

				}
,
				"parentstyle" : "max6box",
				"multi" : 0
			}
, 			{
				"name" : "max6outlet",
				"default" : 				{
					"color" : [ 0.0, 0.454902, 0.498039, 1.0 ]
				}
,
				"parentstyle" : "",
				"multi" : 0
			}
 ]
	}

}
