{
	"patcher" : 	{
		"fileversion" : 1,
		"appversion" : 		{
			"major" : 8,
			"minor" : 3,
			"revision" : 0,
			"architecture" : "x64",
			"modernui" : 1
		}
,
		"classnamespace" : "box",
		"rect" : [ 100.0, 87.0, 890.0, 697.0 ],
		"bglocked" : 0,
		"openinpresentation" : 1,
		"default_fontsize" : 13.0,
		"default_fontface" : 0,
		"default_fontname" : "Arial",
		"gridonopen" : 2,
		"gridsize" : [ 10.0, 10.0 ],
		"gridsnaponopen" : 2,
		"objectsnaponopen" : 1,
		"statusbarvisible" : 2,
		"toolbarvisible" : 1,
		"lefttoolbarpinned" : 0,
		"toptoolbarpinned" : 0,
		"righttoolbarpinned" : 0,
		"bottomtoolbarpinned" : 0,
		"toolbars_unpinned_last_save" : 0,
		"tallnewobj" : 0,
		"boxanimatetime" : 200,
		"enablehscroll" : 1,
		"enablevscroll" : 1,
		"devicewidth" : 0.0,
		"description" : "",
		"digest" : "",
		"tags" : "",
		"style" : "",
		"subpatcher_template" : "",
		"showrootpatcherontab" : 0,
		"showontab" : 0,
		"assistshowspatchername" : 0,
		"boxes" : [ 			{
				"box" : 				{
					"id" : "obj-6",
					"maxclass" : "newobj",
					"numinlets" : 1,
					"numoutlets" : 2,
					"outlettype" : [ "", "" ],
					"patching_rect" : [ 390.0, 160.0, 143.0, 23.0 ],
					"text" : "fluid.bufspectralshape~"
				}

			}
, 			{
				"box" : 				{
					"id" : "obj-3",
					"maxclass" : "newobj",
					"numinlets" : 0,
					"numoutlets" : 0,
					"patcher" : 					{
						"fileversion" : 1,
						"appversion" : 						{
							"major" : 8,
							"minor" : 3,
							"revision" : 0,
							"architecture" : "x64",
							"modernui" : 1
						}
,
						"classnamespace" : "box",
						"rect" : [ 0.0, 26.0, 890.0, 671.0 ],
						"bglocked" : 0,
						"openinpresentation" : 0,
						"default_fontsize" : 13.0,
						"default_fontface" : 0,
						"default_fontname" : "Arial",
						"gridonopen" : 2,
						"gridsize" : [ 10.0, 10.0 ],
						"gridsnaponopen" : 2,
						"objectsnaponopen" : 1,
						"statusbarvisible" : 2,
						"toolbarvisible" : 1,
						"lefttoolbarpinned" : 0,
						"toptoolbarpinned" : 0,
						"righttoolbarpinned" : 0,
						"bottomtoolbarpinned" : 0,
						"toolbars_unpinned_last_save" : 0,
						"tallnewobj" : 0,
						"boxanimatetime" : 200,
						"enablehscroll" : 1,
						"enablevscroll" : 1,
						"devicewidth" : 0.0,
						"description" : "",
						"digest" : "",
						"tags" : "",
						"style" : "",
						"subpatcher_template" : "",
						"showontab" : 1,
						"assistshowspatchername" : 0,
						"boxes" : [ 							{
								"box" : 								{
									"bgcolor" : [ 1.0, 0.788235, 0.470588, 1.0 ],
									"fontname" : "Arial Bold",
									"hint" : "",
									"id" : "obj-13",
									"ignoreclick" : 1,
									"legacytextcolor" : 1,
									"maxclass" : "textbutton",
									"numinlets" : 1,
									"numoutlets" : 3,
									"outlettype" : [ "", "", "int" ],
									"parameter_enable" : 0,
									"patching_rect" : [ 447.0, 302.5, 20.0, 20.0 ],
									"rounded" : 60.0,
									"text" : "3",
									"textcolor" : [ 0.34902, 0.34902, 0.34902, 1.0 ]
								}

							}
, 							{
								"box" : 								{
									"bubble" : 1,
									"id" : "obj-11",
									"maxclass" : "comment",
									"numinlets" : 1,
									"numoutlets" : 0,
									"patching_rect" : [ 265.0, 300.0, 178.0, 25.0 ],
									"text" : "Only return the confidence",
									"textcolor" : [ 0.0, 0.0, 0.0, 1.0 ]
								}

							}
, 							{
								"box" : 								{
									"bgcolor" : [ 1.0, 0.788235, 0.470588, 1.0 ],
									"fontname" : "Arial Bold",
									"hint" : "",
									"id" : "obj-30",
									"ignoreclick" : 1,
									"legacytextcolor" : 1,
									"maxclass" : "textbutton",
									"numinlets" : 1,
									"numoutlets" : 3,
									"outlettype" : [ "", "", "int" ],
									"parameter_enable" : 0,
									"patching_rect" : [ 330.0, 262.5, 20.0, 20.0 ],
									"rounded" : 60.0,
									"text" : "2",
									"textcolor" : [ 0.34902, 0.34902, 0.34902, 1.0 ]
								}

							}
, 							{
								"box" : 								{
									"id" : "obj-28",
									"linecount" : 12,
									"maxclass" : "comment",
									"numinlets" : 1,
									"numoutlets" : 0,
									"patching_rect" : [ 480.0, 190.0, 212.0, 181.0 ],
									"text" : "No matter what order you specify the selection in, the order that those choices are returned will follow the same order as if you didn't select any. A good trick for getting the order is to see the attributes listed out in the object when no @select is chosen.\n\nThink of this parameter like a filter, rather than a reordering of the outputs.",
									"textcolor" : [ 0.501960784313725, 0.501960784313725, 0.501960784313725, 1.0 ]
								}

							}
, 							{
								"box" : 								{
									"bubble" : 1,
									"id" : "obj-24",
									"maxclass" : "comment",
									"numinlets" : 1,
									"numoutlets" : 0,
									"patching_rect" : [ 182.0, 260.0, 143.0, 25.0 ],
									"text" : "Only return the pitch",
									"textcolor" : [ 0.0, 0.0, 0.0, 1.0 ]
								}

							}
, 							{
								"box" : 								{
									"id" : "obj-20",
									"maxclass" : "message",
									"numinlets" : 2,
									"numoutlets" : 1,
									"outlettype" : [ "" ],
									"patching_rect" : [ 30.0, 420.0, 175.0, 23.0 ],
									"text" : "features help.bufpitch.2.pitch"
								}

							}
, 							{
								"box" : 								{
									"filename" : "fluid.waveform~",
									"id" : "obj-4",
									"maxclass" : "jsui",
									"numinlets" : 1,
									"numoutlets" : 1,
									"outlettype" : [ "" ],
									"parameter_enable" : 0,
									"patching_rect" : [ 30.0, 460.0, 480.0, 110.0 ]
								}

							}
, 							{
								"box" : 								{
									"id" : "obj-9",
									"maxclass" : "message",
									"numinlets" : 2,
									"numoutlets" : 1,
									"outlettype" : [ "" ],
									"patching_rect" : [ 118.0, 300.0, 145.0, 23.0 ],
									"text" : "select confidence, bang"
								}

							}
, 							{
								"box" : 								{
									"id" : "obj-8",
									"maxclass" : "message",
									"numinlets" : 2,
									"numoutlets" : 1,
									"outlettype" : [ "" ],
									"patching_rect" : [ 70.0, 260.0, 110.0, 23.0 ],
									"text" : "select pitch, bang"
								}

							}
, 							{
								"box" : 								{
									"buffername" : "help.bufpitch.2.src",
									"id" : "obj-25",
									"maxclass" : "waveform~",
									"numinlets" : 5,
									"numoutlets" : 6,
									"outlettype" : [ "float", "float", "float", "float", "list", "" ],
									"patching_rect" : [ 219.0, 160.0, 191.0, 23.0 ]
								}

							}
, 							{
								"box" : 								{
									"id" : "obj-7",
									"linecount" : 2,
									"maxclass" : "comment",
									"numinlets" : 1,
									"numoutlets" : 0,
									"patching_rect" : [ 10.0, 62.0, 500.0, 36.0 ],
									"text" : "You can also select which outputs should even be copied to the destination buffer. This removes the need for a fluid.bufselect~ to capture descriptors you care about.",
									"textcolor" : [ 0.501960784313725, 0.501960784313725, 0.501960784313725, 1.0 ]
								}

							}
, 							{
								"box" : 								{
									"bubble" : 1,
									"id" : "obj-1",
									"maxclass" : "comment",
									"numinlets" : 1,
									"numoutlets" : 0,
									"patching_rect" : [ 322.0, 123.0, 125.0, 25.0 ],
									"text" : "Load a sound file"
								}

							}
, 							{
								"box" : 								{
									"bgmode" : 0,
									"border" : 0,
									"clickthrough" : 0,
									"enablehscroll" : 0,
									"enablevscroll" : 0,
									"id" : "obj-6",
									"lockeddragscroll" : 0,
									"lockedsize" : 0,
									"maxclass" : "bpatcher",
									"name" : "fluid.bufloader.maxpat",
									"numinlets" : 0,
									"numoutlets" : 1,
									"offset" : [ 0.0, 0.0 ],
									"outlettype" : [ "" ],
									"patching_rect" : [ 30.0, 120.0, 290.0, 30.0 ],
									"viewvisibility" : 1
								}

							}
, 							{
								"box" : 								{
									"bgcolor" : [ 1.0, 0.788235, 0.470588, 1.0 ],
									"fontname" : "Arial Bold",
									"hint" : "",
									"id" : "obj-26",
									"ignoreclick" : 1,
									"legacytextcolor" : 1,
									"maxclass" : "textbutton",
									"numinlets" : 1,
									"numoutlets" : 3,
									"outlettype" : [ "", "", "int" ],
									"parameter_enable" : 0,
									"patching_rect" : [ 447.0, 125.5, 20.0, 20.0 ],
									"rounded" : 60.0,
									"text" : "1",
									"textcolor" : [ 0.34902, 0.34902, 0.34902, 1.0 ]
								}

							}
, 							{
								"box" : 								{
									"id" : "obj-5",
									"maxclass" : "newobj",
									"numinlets" : 1,
									"numoutlets" : 2,
									"outlettype" : [ "float", "bang" ],
									"patching_rect" : [ 30.0, 160.0, 158.0, 23.0 ],
									"text" : "buffer~ help.bufpitch.2.src"
								}

							}
, 							{
								"box" : 								{
									"color" : [ 0.831372549019608, 0.368627450980392, 0.368627450980392, 1.0 ],
									"id" : "obj-3",
									"maxclass" : "newobj",
									"numinlets" : 1,
									"numoutlets" : 2,
									"outlettype" : [ "float", "bang" ],
									"patching_rect" : [ 470.0, 380.0, 168.0, 23.0 ],
									"text" : "buffer~ help.bufpitch.2.pitch"
								}

							}
, 							{
								"box" : 								{
									"color" : [ 0.831372549019608, 0.368627450980392, 0.368627450980392, 1.0 ],
									"id" : "obj-2",
									"maxclass" : "newobj",
									"numinlets" : 1,
									"numoutlets" : 2,
									"outlettype" : [ "", "" ],
									"patching_rect" : [ 30.0, 380.0, 437.0, 23.0 ],
									"text" : "fluid.bufpitch~ @source help.bufpitch.2.src @features help.bufpitch.2.pitch"
								}

							}
, 							{
								"box" : 								{
									"attr" : "select",
									"id" : "obj-12",
									"maxclass" : "attrui",
									"numinlets" : 1,
									"numoutlets" : 1,
									"outlettype" : [ "" ],
									"parameter_enable" : 0,
									"patching_rect" : [ 30.0, 220.0, 380.0, 23.0 ],
									"text_width" : 63.0
								}

							}
, 							{
								"box" : 								{
									"border" : 0,
									"filename" : "helpdetails.js",
									"id" : "obj-10",
									"ignoreclick" : 1,
									"jsarguments" : [ "fluid.bufpitch~" ],
									"maxclass" : "jsui",
									"numinlets" : 1,
									"numoutlets" : 1,
									"outlettype" : [ "" ],
									"parameter_enable" : 0,
									"patching_rect" : [ 10.0, 10.0, 310.0, 50.0 ]
								}

							}
 ],
						"lines" : [ 							{
								"patchline" : 								{
									"destination" : [ "obj-2", 0 ],
									"midpoints" : [ 39.5, 311.0, 39.5, 311.0 ],
									"source" : [ "obj-12", 0 ]
								}

							}
, 							{
								"patchline" : 								{
									"destination" : [ "obj-20", 0 ],
									"midpoints" : [ 39.5, 406.0, 39.5, 406.0 ],
									"source" : [ "obj-2", 0 ]
								}

							}
, 							{
								"patchline" : 								{
									"destination" : [ "obj-4", 0 ],
									"source" : [ "obj-20", 0 ]
								}

							}
, 							{
								"patchline" : 								{
									"destination" : [ "obj-5", 0 ],
									"source" : [ "obj-6", 0 ]
								}

							}
, 							{
								"patchline" : 								{
									"destination" : [ "obj-2", 0 ],
									"midpoints" : [ 79.5, 331.0, 39.5, 331.0 ],
									"source" : [ "obj-8", 0 ]
								}

							}
, 							{
								"patchline" : 								{
									"destination" : [ "obj-2", 0 ],
									"midpoints" : [ 127.5, 351.0, 39.5, 351.0 ],
									"source" : [ "obj-9", 0 ]
								}

							}
 ],
						"styles" : [ 							{
								"name" : "max6box",
								"default" : 								{
									"accentcolor" : [ 0.8, 0.839216, 0.709804, 1.0 ],
									"bgcolor" : [ 1.0, 1.0, 1.0, 0.5 ],
									"textcolor_inverse" : [ 0.0, 0.0, 0.0, 1.0 ]
								}
,
								"parentstyle" : "",
								"multi" : 0
							}
, 							{
								"name" : "max6inlet",
								"default" : 								{
									"color" : [ 0.423529, 0.372549, 0.27451, 1.0 ]
								}
,
								"parentstyle" : "",
								"multi" : 0
							}
, 							{
								"name" : "max6message",
								"default" : 								{
									"bgfillcolor" : 									{
										"angle" : 270.0,
										"autogradient" : 0,
										"color" : [ 0.290196, 0.309804, 0.301961, 1.0 ],
										"color1" : [ 0.866667, 0.866667, 0.866667, 1.0 ],
										"color2" : [ 0.788235, 0.788235, 0.788235, 1.0 ],
										"proportion" : 0.39,
										"type" : "gradient"
									}
,
									"textcolor_inverse" : [ 0.0, 0.0, 0.0, 1.0 ]
								}
,
								"parentstyle" : "max6box",
								"multi" : 0
							}
, 							{
								"name" : "max6outlet",
								"default" : 								{
									"color" : [ 0.0, 0.454902, 0.498039, 1.0 ]
								}
,
								"parentstyle" : "",
								"multi" : 0
							}
 ]
					}
,
					"patching_rect" : [ 50.0, 130.0, 53.0, 23.0 ],
					"saved_object_attributes" : 					{
						"description" : "",
						"digest" : "",
						"fontsize" : 13.0,
						"globalpatchername" : "",
						"tags" : ""
					}
,
					"text" : "p select",
					"varname" : "basic_tab[1]"
				}

			}
, 			{
				"box" : 				{
					"id" : "obj-4",
					"maxclass" : "newobj",
					"numinlets" : 0,
					"numoutlets" : 0,
					"patching_rect" : [ 175.666672000000005, 239.333359000000002, 259.0, 23.0 ],
					"text" : "fluid_decomposition.blocking fluid.bufpitch~"
				}

			}
, 			{
				"box" : 				{
					"id" : "obj-5",
					"maxclass" : "newobj",
					"numinlets" : 0,
					"numoutlets" : 0,
					"patcher" : 					{
						"fileversion" : 1,
						"appversion" : 						{
							"major" : 8,
							"minor" : 3,
							"revision" : 0,
							"architecture" : "x64",
							"modernui" : 1
						}
,
						"classnamespace" : "box",
						"rect" : [ 0.0, 26.0, 890.0, 671.0 ],
						"bglocked" : 0,
						"openinpresentation" : 0,
						"default_fontsize" : 13.0,
						"default_fontface" : 0,
						"default_fontname" : "Arial",
						"gridonopen" : 2,
						"gridsize" : [ 10.0, 10.0 ],
						"gridsnaponopen" : 2,
						"objectsnaponopen" : 1,
						"statusbarvisible" : 2,
						"toolbarvisible" : 1,
						"lefttoolbarpinned" : 0,
						"toptoolbarpinned" : 0,
						"righttoolbarpinned" : 0,
						"bottomtoolbarpinned" : 0,
						"toolbars_unpinned_last_save" : 0,
						"tallnewobj" : 0,
						"boxanimatetime" : 200,
						"enablehscroll" : 1,
						"enablevscroll" : 1,
						"devicewidth" : 0.0,
						"description" : "",
						"digest" : "",
						"tags" : "",
						"style" : "",
						"subpatcher_template" : "",
						"showontab" : 1,
						"assistshowspatchername" : 0,
						"boxes" : [ 							{
								"box" : 								{
									"bgcolor" : [ 1.0, 0.788235, 0.470588, 1.0 ],
									"fontname" : "Arial Bold",
									"hint" : "",
									"id" : "obj-68",
									"ignoreclick" : 1,
									"legacytextcolor" : 1,
									"maxclass" : "textbutton",
									"numinlets" : 1,
									"numoutlets" : 3,
									"outlettype" : [ "", "", "int" ],
									"parameter_enable" : 0,
									"patching_rect" : [ 320.0, 294.0, 20.0, 20.0 ],
									"rounded" : 60.0,
									"text" : "2",
									"textcolor" : [ 0.34902, 0.34902, 0.34902, 1.0 ]
								}

							}
, 							{
								"box" : 								{
									"bubble" : 1,
									"id" : "obj-69",
									"maxclass" : "comment",
									"numinlets" : 1,
									"numoutlets" : 0,
									"patching_rect" : [ 97.5, 290.0, 218.0, 25.0 ],
									"text" : "Trigger small grains of the source"
								}

							}
, 							{
								"box" : 								{
									"id" : "obj-67",
									"maxclass" : "comment",
									"numinlets" : 1,
									"numoutlets" : 0,
									"patching_rect" : [ 266.0, 221.0, 115.0, 21.0 ],
									"text" : "take a look in here",
									"textcolor" : [ 0.501960784313725, 0.501960784313725, 0.501960784313725, 1.0 ]
								}

							}
, 							{
								"box" : 								{
									"id" : "obj-65",
									"local" : 1,
									"maxclass" : "ezdac~",
									"numinlets" : 2,
									"numoutlets" : 0,
									"patching_rect" : [ 70.0, 580.0, 45.0, 45.0 ]
								}

							}
, 							{
								"box" : 								{
									"bgcolor" : [ 1.0, 0.788235, 0.470588, 1.0 ],
									"fontname" : "Arial Bold",
									"hint" : "",
									"id" : "obj-25",
									"ignoreclick" : 1,
									"legacytextcolor" : 1,
									"maxclass" : "textbutton",
									"numinlets" : 1,
									"numoutlets" : 3,
									"outlettype" : [ "", "", "int" ],
									"parameter_enable" : 0,
									"patching_rect" : [ 287.5, 144.0, 20.0, 20.0 ],
									"rounded" : 60.0,
									"text" : "1",
									"textcolor" : [ 0.34902, 0.34902, 0.34902, 1.0 ]
								}

							}
, 							{
								"box" : 								{
									"bubble" : 1,
									"id" : "obj-63",
									"maxclass" : "comment",
									"numinlets" : 1,
									"numoutlets" : 0,
									"patching_rect" : [ 46.5, 141.5, 239.0, 25.0 ],
									"text" : "Trigger pitch analyss of source buffer"
								}

							}
, 							{
								"box" : 								{
									"id" : "obj-61",
									"maxclass" : "newobj",
									"numinlets" : 1,
									"numoutlets" : 0,
									"patcher" : 									{
										"fileversion" : 1,
										"appversion" : 										{
											"major" : 8,
											"minor" : 3,
											"revision" : 0,
											"architecture" : "x64",
											"modernui" : 1
										}
,
										"classnamespace" : "box",
										"rect" : [ 84.0, 131.0, 629.0, 458.0 ],
										"bglocked" : 0,
										"openinpresentation" : 0,
										"default_fontsize" : 12.0,
										"default_fontface" : 0,
										"default_fontname" : "Arial",
										"gridonopen" : 1,
										"gridsize" : [ 15.0, 15.0 ],
										"gridsnaponopen" : 1,
										"objectsnaponopen" : 1,
										"statusbarvisible" : 2,
										"toolbarvisible" : 1,
										"lefttoolbarpinned" : 0,
										"toptoolbarpinned" : 0,
										"righttoolbarpinned" : 0,
										"bottomtoolbarpinned" : 0,
										"toolbars_unpinned_last_save" : 0,
										"tallnewobj" : 0,
										"boxanimatetime" : 200,
										"enablehscroll" : 1,
										"enablevscroll" : 1,
										"devicewidth" : 0.0,
										"description" : "",
										"digest" : "",
										"tags" : "",
										"style" : "",
										"subpatcher_template" : "",
										"assistshowspatchername" : 0,
										"boxes" : [ 											{
												"box" : 												{
													"id" : "obj-6",
													"linecount" : 3,
													"maxclass" : "comment",
													"numinlets" : 1,
													"numoutlets" : 0,
													"patching_rect" : [ 133.0, 203.5, 123.0, 47.0 ],
													"text" : "only pass through indices with 0.98 or greater confidence",
													"textcolor" : [ 0.501960784313725, 0.501960784313725, 0.501960784313725, 1.0 ]
												}

											}
, 											{
												"box" : 												{
													"id" : "obj-5",
													"linecount" : 2,
													"maxclass" : "comment",
													"numinlets" : 1,
													"numoutlets" : 0,
													"patching_rect" : [ 96.0, 130.5, 149.0, 33.0 ],
													"text" : "pair up indices and which slice number they are",
													"textcolor" : [ 0.501960784313725, 0.501960784313725, 0.501960784313725, 1.0 ]
												}

											}
, 											{
												"box" : 												{
													"id" : "obj-2",
													"linecount" : 3,
													"maxclass" : "comment",
													"numinlets" : 1,
													"numoutlets" : 0,
													"patching_rect" : [ 298.0, 330.0, 312.0, 47.0 ],
													"text" : "we use this formula to convert slice indices into milliseconds. We use the hop size (4096 samples) here as a static variablebut it would be dynamically changed!",
													"textcolor" : [ 0.501960784313725, 0.501960784313725, 0.501960784313725, 1.0 ]
												}

											}
, 											{
												"box" : 												{
													"id" : "obj-59",
													"maxclass" : "newobj",
													"numinlets" : 1,
													"numoutlets" : 1,
													"outlettype" : [ "" ],
													"patching_rect" : [ 79.0, 396.0, 290.0, 22.0 ],
													"text" : "v analysis_windows_with_high_pitch_confidence"
												}

											}
, 											{
												"box" : 												{
													"format" : 6,
													"id" : "obj-56",
													"maxclass" : "flonum",
													"numinlets" : 1,
													"numoutlets" : 2,
													"outlettype" : [ "", "bang" ],
													"parameter_enable" : 0,
													"patching_rect" : [ 274.0, 296.0, 90.0, 22.0 ]
												}

											}
, 											{
												"box" : 												{
													"id" : "obj-54",
													"maxclass" : "newobj",
													"numinlets" : 1,
													"numoutlets" : 9,
													"outlettype" : [ "float", "list", "float", "float", "float", "float", "float", "", "int" ],
													"patching_rect" : [ 274.0, 256.0, 146.0, 22.0 ],
													"text" : "info~ help.bufpitch.3.src"
												}

											}
, 											{
												"box" : 												{
													"id" : "obj-31",
													"linecount" : 2,
													"maxclass" : "newobj",
													"numinlets" : 2,
													"numoutlets" : 1,
													"outlettype" : [ "" ],
													"patching_rect" : [ 79.0, 336.0, 214.0, 35.0 ],
													"text" : "vexpr $f1 * (4096. / ($i2 / 1000.0)) @scalarmode 1"
												}

											}
, 											{
												"box" : 												{
													"id" : "obj-28",
													"maxclass" : "newobj",
													"numinlets" : 1,
													"numoutlets" : 3,
													"outlettype" : [ "bang", "", "bang" ],
													"patching_rect" : [ 14.0, 96.0, 59.0, 22.0 ],
													"text" : "t b l b"
												}

											}
, 											{
												"box" : 												{
													"id" : "obj-26",
													"maxclass" : "newobj",
													"numinlets" : 2,
													"numoutlets" : 1,
													"outlettype" : [ "int" ],
													"patching_rect" : [ 79.0, 216.0, 49.0, 22.0 ],
													"text" : ">= 0.98"
												}

											}
, 											{
												"box" : 												{
													"id" : "obj-25",
													"maxclass" : "newobj",
													"numinlets" : 2,
													"numoutlets" : 1,
													"outlettype" : [ "" ],
													"patching_rect" : [ 79.0, 256.0, 34.0, 22.0 ],
													"text" : "gate"
												}

											}
, 											{
												"box" : 												{
													"id" : "obj-23",
													"maxclass" : "newobj",
													"numinlets" : 1,
													"numoutlets" : 2,
													"outlettype" : [ "int", "float" ],
													"patching_rect" : [ 34.0, 176.0, 64.0, 22.0 ],
													"text" : "unpack i f"
												}

											}
, 											{
												"box" : 												{
													"id" : "obj-21",
													"maxclass" : "newobj",
													"numinlets" : 2,
													"numoutlets" : 2,
													"outlettype" : [ "", "" ],
													"patching_rect" : [ 79.0, 296.0, 55.0, 22.0 ],
													"text" : "zl.group"
												}

											}
, 											{
												"box" : 												{
													"id" : "obj-17",
													"maxclass" : "newobj",
													"numinlets" : 1,
													"numoutlets" : 1,
													"outlettype" : [ "list" ],
													"patching_rect" : [ 34.0, 136.0, 60.0, 22.0 ],
													"text" : "listfunnel"
												}

											}
, 											{
												"box" : 												{
													"id" : "obj-9",
													"maxclass" : "newobj",
													"numinlets" : 2,
													"numoutlets" : 1,
													"outlettype" : [ "list" ],
													"patching_rect" : [ 14.0, 56.0, 77.0, 22.0 ],
													"text" : "fluid.buf2list"
												}

											}
, 											{
												"box" : 												{
													"comment" : "",
													"id" : "obj-60",
													"index" : 1,
													"maxclass" : "inlet",
													"numinlets" : 0,
													"numoutlets" : 1,
													"outlettype" : [ "" ],
													"patching_rect" : [ 14.0, 11.0, 30.0, 30.0 ]
												}

											}
 ],
										"lines" : [ 											{
												"patchline" : 												{
													"destination" : [ "obj-23", 0 ],
													"source" : [ "obj-17", 0 ]
												}

											}
, 											{
												"patchline" : 												{
													"destination" : [ "obj-31", 0 ],
													"source" : [ "obj-21", 0 ]
												}

											}
, 											{
												"patchline" : 												{
													"destination" : [ "obj-25", 1 ],
													"midpoints" : [ 43.5, 251.0, 103.5, 251.0 ],
													"source" : [ "obj-23", 0 ]
												}

											}
, 											{
												"patchline" : 												{
													"destination" : [ "obj-26", 0 ],
													"source" : [ "obj-23", 1 ]
												}

											}
, 											{
												"patchline" : 												{
													"destination" : [ "obj-21", 0 ],
													"source" : [ "obj-25", 0 ]
												}

											}
, 											{
												"patchline" : 												{
													"destination" : [ "obj-25", 0 ],
													"midpoints" : [ 88.5, 242.0, 88.5, 242.0 ],
													"source" : [ "obj-26", 0 ]
												}

											}
, 											{
												"patchline" : 												{
													"destination" : [ "obj-17", 0 ],
													"source" : [ "obj-28", 1 ]
												}

											}
, 											{
												"patchline" : 												{
													"destination" : [ "obj-21", 0 ],
													"midpoints" : [ 23.5, 290.0, 88.5, 290.0 ],
													"source" : [ "obj-28", 0 ]
												}

											}
, 											{
												"patchline" : 												{
													"destination" : [ "obj-54", 0 ],
													"midpoints" : [ 63.5, 122.0, 283.5, 122.0 ],
													"source" : [ "obj-28", 2 ]
												}

											}
, 											{
												"patchline" : 												{
													"destination" : [ "obj-59", 0 ],
													"source" : [ "obj-31", 0 ]
												}

											}
, 											{
												"patchline" : 												{
													"destination" : [ "obj-56", 0 ],
													"source" : [ "obj-54", 0 ]
												}

											}
, 											{
												"patchline" : 												{
													"destination" : [ "obj-31", 1 ],
													"source" : [ "obj-56", 0 ]
												}

											}
, 											{
												"patchline" : 												{
													"destination" : [ "obj-9", 0 ],
													"source" : [ "obj-60", 0 ]
												}

											}
, 											{
												"patchline" : 												{
													"destination" : [ "obj-28", 0 ],
													"source" : [ "obj-9", 0 ]
												}

											}
 ]
									}
,
									"patching_rect" : [ 19.0, 220.0, 245.0, 23.0 ],
									"saved_object_attributes" : 									{
										"description" : "",
										"digest" : "",
										"globalpatchername" : "",
										"tags" : ""
									}
,
									"text" : "p \"find frames with high pitch confidence\""
								}

							}
, 							{
								"box" : 								{
									"id" : "obj-49",
									"maxclass" : "newobj",
									"numinlets" : 2,
									"numoutlets" : 2,
									"outlettype" : [ "", "" ],
									"patching_rect" : [ 70.0, 450.0, 54.0, 23.0 ],
									"text" : "zl.mth 0"
								}

							}
, 							{
								"box" : 								{
									"id" : "obj-48",
									"maxclass" : "newobj",
									"numinlets" : 2,
									"numoutlets" : 2,
									"outlettype" : [ "", "" ],
									"patching_rect" : [ 70.0, 410.0, 74.0, 23.0 ],
									"text" : "zl.scramble"
								}

							}
, 							{
								"box" : 								{
									"id" : "obj-47",
									"maxclass" : "newobj",
									"numinlets" : 1,
									"numoutlets" : 1,
									"outlettype" : [ "" ],
									"patching_rect" : [ 70.0, 370.0, 290.0, 23.0 ],
									"text" : "v analysis_windows_with_high_pitch_confidence"
								}

							}
, 							{
								"box" : 								{
									"id" : "obj-46",
									"maxclass" : "toggle",
									"numinlets" : 1,
									"numoutlets" : 1,
									"outlettype" : [ "int" ],
									"parameter_enable" : 0,
									"patching_rect" : [ 70.0, 290.0, 24.0, 24.0 ]
								}

							}
, 							{
								"box" : 								{
									"id" : "obj-44",
									"maxclass" : "newobj",
									"numinlets" : 2,
									"numoutlets" : 1,
									"outlettype" : [ "bang" ],
									"patching_rect" : [ 70.0, 330.0, 67.0, 23.0 ],
									"text" : "qmetro 50"
								}

							}
, 							{
								"box" : 								{
									"id" : "obj-38",
									"maxclass" : "newobj",
									"numinlets" : 1,
									"numoutlets" : 1,
									"outlettype" : [ "" ],
									"patching_rect" : [ 70.0, 494.0, 85.0, 23.0 ],
									"text" : "prepend note"
								}

							}
, 							{
								"box" : 								{
									"id" : "obj-35",
									"maxclass" : "newobj",
									"numinlets" : 1,
									"numoutlets" : 1,
									"outlettype" : [ "signal" ],
									"patching_rect" : [ 70.0, 534.0, 318.0, 23.0 ],
									"text" : "poly~ fluid.bufpitch.grain 64 @args help.bufpitch.3.src"
								}

							}
, 							{
								"box" : 								{
									"id" : "obj-5",
									"maxclass" : "button",
									"numinlets" : 1,
									"numoutlets" : 1,
									"outlettype" : [ "bang" ],
									"parameter_enable" : 0,
									"patching_rect" : [ 19.0, 140.0, 24.0, 24.0 ]
								}

							}
, 							{
								"box" : 								{
									"color" : [ 0.254901960784314, 0.905882352941176, 0.450980392156863, 1.0 ],
									"id" : "obj-3",
									"maxclass" : "newobj",
									"numinlets" : 1,
									"numoutlets" : 2,
									"outlettype" : [ "float", "bang" ],
									"patching_rect" : [ 618.0, 220.0, 231.0, 23.0 ],
									"text" : "buffer~ help.bufpitch.3.pitchconfidence"
								}

							}
, 							{
								"box" : 								{
									"color" : [ 0.254901960784314, 0.905882352941176, 0.450980392156863, 1.0 ],
									"id" : "obj-1",
									"maxclass" : "newobj",
									"numinlets" : 1,
									"numoutlets" : 2,
									"outlettype" : [ "", "" ],
									"patching_rect" : [ 19.0, 180.0, 830.0, 23.0 ],
									"text" : "fluid.bufpitch~ @source help.bufpitch.3.src @features help.bufpitch.3.pitchconfidence @fftsettings 8192 @select confidence @maxfftsize 8192"
								}

							}
, 							{
								"box" : 								{
									"id" : "obj-2",
									"maxclass" : "newobj",
									"numinlets" : 1,
									"numoutlets" : 2,
									"outlettype" : [ "float", "bang" ],
									"patching_rect" : [ 20.0, 100.0, 401.0, 23.0 ],
									"text" : "buffer~ help.bufpitch.3.src Tremblay-ASWINE-ScratchySynth-M.wav"
								}

							}
, 							{
								"box" : 								{
									"id" : "obj-86",
									"maxclass" : "comment",
									"numinlets" : 1,
									"numoutlets" : 0,
									"patching_rect" : [ 11.0, 64.0, 275.0, 21.0 ],
									"text" : "grains from just the piched portions of a sound",
									"textcolor" : [ 0.501960784313725, 0.501960784313725, 0.501960784313725, 1.0 ]
								}

							}
, 							{
								"box" : 								{
									"border" : 0,
									"filename" : "helpname.js",
									"id" : "obj-7",
									"ignoreclick" : 1,
									"jsarguments" : [ "fluid.bufpitch~" ],
									"maxclass" : "jsui",
									"numinlets" : 1,
									"numoutlets" : 1,
									"outlettype" : [ "" ],
									"parameter_enable" : 0,
									"patching_rect" : [ 10.0, 10.0, 313.279998779296875, 57.599853515625 ]
								}

							}
 ],
						"lines" : [ 							{
								"patchline" : 								{
									"destination" : [ "obj-61", 0 ],
									"source" : [ "obj-1", 0 ]
								}

							}
, 							{
								"patchline" : 								{
									"destination" : [ "obj-65", 1 ],
									"order" : 0,
									"source" : [ "obj-35", 0 ]
								}

							}
, 							{
								"patchline" : 								{
									"destination" : [ "obj-65", 0 ],
									"order" : 1,
									"source" : [ "obj-35", 0 ]
								}

							}
, 							{
								"patchline" : 								{
									"destination" : [ "obj-35", 0 ],
									"source" : [ "obj-38", 0 ]
								}

							}
, 							{
								"patchline" : 								{
									"destination" : [ "obj-47", 0 ],
									"source" : [ "obj-44", 0 ]
								}

							}
, 							{
								"patchline" : 								{
									"destination" : [ "obj-44", 0 ],
									"source" : [ "obj-46", 0 ]
								}

							}
, 							{
								"patchline" : 								{
									"destination" : [ "obj-48", 0 ],
									"source" : [ "obj-47", 0 ]
								}

							}
, 							{
								"patchline" : 								{
									"destination" : [ "obj-49", 0 ],
									"source" : [ "obj-48", 0 ]
								}

							}
, 							{
								"patchline" : 								{
									"destination" : [ "obj-38", 0 ],
									"source" : [ "obj-49", 0 ]
								}

							}
, 							{
								"patchline" : 								{
									"destination" : [ "obj-1", 0 ],
									"source" : [ "obj-5", 0 ]
								}

							}
 ],
						"styles" : [ 							{
								"name" : "max6box",
								"default" : 								{
									"accentcolor" : [ 0.8, 0.839216, 0.709804, 1.0 ],
									"bgcolor" : [ 1.0, 1.0, 1.0, 0.5 ],
									"textcolor_inverse" : [ 0.0, 0.0, 0.0, 1.0 ]
								}
,
								"parentstyle" : "",
								"multi" : 0
							}
, 							{
								"name" : "max6inlet",
								"default" : 								{
									"color" : [ 0.423529, 0.372549, 0.27451, 1.0 ]
								}
,
								"parentstyle" : "",
								"multi" : 0
							}
, 							{
								"name" : "max6message",
								"default" : 								{
									"bgfillcolor" : 									{
										"angle" : 270.0,
										"autogradient" : 0,
										"color" : [ 0.290196, 0.309804, 0.301961, 1.0 ],
										"color1" : [ 0.866667, 0.866667, 0.866667, 1.0 ],
										"color2" : [ 0.788235, 0.788235, 0.788235, 1.0 ],
										"proportion" : 0.39,
										"type" : "gradient"
									}
,
									"textcolor_inverse" : [ 0.0, 0.0, 0.0, 1.0 ]
								}
,
								"parentstyle" : "max6box",
								"multi" : 0
							}
, 							{
								"name" : "max6outlet",
								"default" : 								{
									"color" : [ 0.0, 0.454902, 0.498039, 1.0 ]
								}
,
								"parentstyle" : "",
								"multi" : 0
							}
 ]
					}
,
					"patching_rect" : [ 70.0, 170.0, 125.0, 23.0 ],
					"saved_object_attributes" : 					{
						"description" : "",
						"digest" : "",
						"fontsize" : 13.0,
						"globalpatchername" : "",
						"tags" : ""
					}
,
					"text" : "p \"musical example\""
				}

			}
, 			{
				"box" : 				{
					"id" : "obj-2",
					"maxclass" : "newobj",
					"numinlets" : 0,
					"numoutlets" : 0,
					"patcher" : 					{
						"fileversion" : 1,
						"appversion" : 						{
							"major" : 8,
							"minor" : 3,
							"revision" : 0,
							"architecture" : "x64",
							"modernui" : 1
						}
,
						"classnamespace" : "box",
						"rect" : [ 100.0, 113.0, 890.0, 671.0 ],
						"bglocked" : 0,
						"openinpresentation" : 0,
						"default_fontsize" : 13.0,
						"default_fontface" : 0,
						"default_fontname" : "Arial",
						"gridonopen" : 2,
						"gridsize" : [ 10.0, 10.0 ],
						"gridsnaponopen" : 2,
						"objectsnaponopen" : 1,
						"statusbarvisible" : 2,
						"toolbarvisible" : 1,
						"lefttoolbarpinned" : 0,
						"toptoolbarpinned" : 0,
						"righttoolbarpinned" : 0,
						"bottomtoolbarpinned" : 0,
						"toolbars_unpinned_last_save" : 0,
						"tallnewobj" : 0,
						"boxanimatetime" : 200,
						"enablehscroll" : 1,
						"enablevscroll" : 1,
						"devicewidth" : 0.0,
						"description" : "",
						"digest" : "",
						"tags" : "",
						"style" : "",
						"subpatcher_template" : "",
						"showontab" : 1,
						"assistshowspatchername" : 0,
						"boxes" : [ 							{
								"box" : 								{
									"id" : "obj-86",
									"maxclass" : "comment",
									"numinlets" : 1,
									"numoutlets" : 0,
									"patching_rect" : [ 10.0, 69.599853515625, 326.0, 21.0 ],
									"text" : "Multichannel buffers are processed channel by channel",
									"textcolor" : [ 0.501960784313725, 0.501960784313725, 0.501960784313725, 1.0 ]
								}

							}
, 							{
								"box" : 								{
									"id" : "obj-15",
									"linecount" : 6,
									"maxclass" : "comment",
									"numinlets" : 1,
									"numoutlets" : 0,
									"patching_rect" : [ 650.0, 350.0, 149.0, 94.0 ],
									"text" : "The result is 4 channels:\n\n1) Pitch (Hz) - Left\n2) Confidence - Left\n3) Pitch (Hz) - Right\n4) Confidence - Right",
									"textcolor" : [ 0.501960784313725, 0.501960784313725, 0.501960784313725, 1.0 ]
								}

							}
, 							{
								"box" : 								{
									"bgcolor" : [ 1.0, 0.788235, 0.470588, 1.0 ],
									"fontname" : "Arial Bold",
									"hint" : "",
									"id" : "obj-25",
									"ignoreclick" : 1,
									"legacytextcolor" : 1,
									"maxclass" : "textbutton",
									"numinlets" : 1,
									"numoutlets" : 3,
									"outlettype" : [ "", "", "int" ],
									"parameter_enable" : 0,
									"patching_rect" : [ 175.0, 122.5, 20.0, 20.0 ],
									"rounded" : 60.0,
									"text" : "1",
									"textcolor" : [ 0.34902, 0.34902, 0.34902, 1.0 ]
								}

							}
, 							{
								"box" : 								{
									"bubble" : 1,
									"id" : "obj-14",
									"maxclass" : "comment",
									"numinlets" : 1,
									"numoutlets" : 0,
									"patching_rect" : [ 56.0, 120.0, 117.0, 25.0 ],
									"text" : "Trigger analysis"
								}

							}
, 							{
								"box" : 								{
									"id" : "obj-12",
									"maxclass" : "message",
									"numinlets" : 2,
									"numoutlets" : 1,
									"outlettype" : [ "" ],
									"patching_rect" : [ 30.0, 210.0, 229.0, 23.0 ],
									"text" : "clear, features help.bufpitch.4.features"
								}

							}
, 							{
								"box" : 								{
									"color" : [ 1.0, 0.792156862745098, 0.0, 1.0 ],
									"id" : "obj-10",
									"maxclass" : "newobj",
									"numinlets" : 1,
									"numoutlets" : 2,
									"outlettype" : [ "float", "bang" ],
									"patching_rect" : [ 490.0, 170.0, 188.0, 23.0 ],
									"text" : "buffer~ help.bufpitch.4.features"
								}

							}
, 							{
								"box" : 								{
									"filename" : "fluid.waveform~",
									"id" : "obj-9",
									"maxclass" : "jsui",
									"numinlets" : 1,
									"numoutlets" : 1,
									"outlettype" : [ "" ],
									"parameter_enable" : 0,
									"patching_rect" : [ 30.0, 250.0, 610.0, 300.0 ]
								}

							}
, 							{
								"box" : 								{
									"border" : 0,
									"filename" : "helpname.js",
									"id" : "obj-19",
									"ignoreclick" : 1,
									"jsarguments" : [ "fluid.bufpitch~" ],
									"maxclass" : "jsui",
									"numinlets" : 1,
									"numoutlets" : 1,
									"outlettype" : [ "" ],
									"parameter_enable" : 0,
									"patching_rect" : [ 10.0, 10.0, 313.279998779296875, 57.599853515625 ]
								}

							}
, 							{
								"box" : 								{
									"id" : "obj-113",
									"maxclass" : "button",
									"numinlets" : 1,
									"numoutlets" : 1,
									"outlettype" : [ "bang" ],
									"parameter_enable" : 0,
									"patching_rect" : [ 30.0, 120.0, 24.0, 24.0 ]
								}

							}
, 							{
								"box" : 								{
									"id" : "obj-62",
									"maxclass" : "comment",
									"numinlets" : 1,
									"numoutlets" : 0,
									"patching_rect" : [ 678.0, 120.0, 116.0, 21.0 ],
									"text" : "a stereo source",
									"textcolor" : [ 0.501960784313725, 0.501960784313725, 0.501960784313725, 1.0 ]
								}

							}
, 							{
								"box" : 								{
									"id" : "obj-7",
									"maxclass" : "newobj",
									"numinlets" : 1,
									"numoutlets" : 2,
									"outlettype" : [ "float", "bang" ],
									"patching_rect" : [ 270.0, 120.0, 406.0, 23.0 ],
									"text" : "buffer~ help.bufpitch.4.src Tremblay-SA-UprightPianoPedalWide.wav"
								}

							}
, 							{
								"box" : 								{
									"color" : [ 1.0, 0.792156862745098, 0.0, 1.0 ],
									"id" : "obj-1",
									"maxclass" : "newobj",
									"numinlets" : 1,
									"numoutlets" : 2,
									"outlettype" : [ "", "" ],
									"patching_rect" : [ 30.0, 170.0, 457.0, 23.0 ],
									"text" : "fluid.bufpitch~ @source help.bufpitch.4.src @features help.bufpitch.4.features"
								}

							}
 ],
						"lines" : [ 							{
								"patchline" : 								{
									"destination" : [ "obj-12", 0 ],
									"source" : [ "obj-1", 0 ]
								}

							}
, 							{
								"patchline" : 								{
									"destination" : [ "obj-1", 0 ],
									"source" : [ "obj-113", 0 ]
								}

							}
, 							{
								"patchline" : 								{
									"destination" : [ "obj-9", 0 ],
									"source" : [ "obj-12", 0 ]
								}

							}
 ],
						"styles" : [ 							{
								"name" : "max6box",
								"default" : 								{
									"accentcolor" : [ 0.8, 0.839216, 0.709804, 1.0 ],
									"bgcolor" : [ 1.0, 1.0, 1.0, 0.5 ],
									"textcolor_inverse" : [ 0.0, 0.0, 0.0, 1.0 ]
								}
,
								"parentstyle" : "",
								"multi" : 0
							}
, 							{
								"name" : "max6inlet",
								"default" : 								{
									"color" : [ 0.423529, 0.372549, 0.27451, 1.0 ]
								}
,
								"parentstyle" : "",
								"multi" : 0
							}
, 							{
								"name" : "max6message",
								"default" : 								{
									"bgfillcolor" : 									{
										"angle" : 270.0,
										"autogradient" : 0,
										"color" : [ 0.290196, 0.309804, 0.301961, 1.0 ],
										"color1" : [ 0.866667, 0.866667, 0.866667, 1.0 ],
										"color2" : [ 0.788235, 0.788235, 0.788235, 1.0 ],
										"proportion" : 0.39,
										"type" : "gradient"
									}
,
									"textcolor_inverse" : [ 0.0, 0.0, 0.0, 1.0 ]
								}
,
								"parentstyle" : "max6box",
								"multi" : 0
							}
, 							{
								"name" : "max6outlet",
								"default" : 								{
									"color" : [ 0.0, 0.454902, 0.498039, 1.0 ]
								}
,
								"parentstyle" : "",
								"multi" : 0
							}
 ]
					}
,
					"patching_rect" : [ 115.0, 205.666672000000005, 92.0, 23.0 ],
					"saved_object_attributes" : 					{
						"description" : "",
						"digest" : "",
						"fontsize" : 13.0,
						"globalpatchername" : "",
						"tags" : ""
					}
,
					"text" : "p multichannel"
				}

			}
, 			{
				"box" : 				{
					"id" : "obj-1",
					"maxclass" : "newobj",
					"numinlets" : 0,
					"numoutlets" : 0,
					"patcher" : 					{
						"fileversion" : 1,
						"appversion" : 						{
							"major" : 8,
							"minor" : 3,
							"revision" : 0,
							"architecture" : "x64",
							"modernui" : 1
						}
,
						"classnamespace" : "box",
						"rect" : [ 0.0, 26.0, 890.0, 671.0 ],
						"bglocked" : 0,
						"openinpresentation" : 0,
						"default_fontsize" : 13.0,
						"default_fontface" : 0,
						"default_fontname" : "Arial",
						"gridonopen" : 2,
						"gridsize" : [ 10.0, 10.0 ],
						"gridsnaponopen" : 2,
						"objectsnaponopen" : 1,
						"statusbarvisible" : 2,
						"toolbarvisible" : 1,
						"lefttoolbarpinned" : 0,
						"toptoolbarpinned" : 0,
						"righttoolbarpinned" : 0,
						"bottomtoolbarpinned" : 0,
						"toolbars_unpinned_last_save" : 0,
						"tallnewobj" : 0,
						"boxanimatetime" : 200,
						"enablehscroll" : 1,
						"enablevscroll" : 1,
						"devicewidth" : 0.0,
						"description" : "",
						"digest" : "",
						"tags" : "",
						"style" : "",
						"subpatcher_template" : "",
						"showontab" : 1,
						"assistshowspatchername" : 0,
						"boxes" : [ 							{
								"box" : 								{
									"id" : "obj-22",
									"linecount" : 5,
									"maxclass" : "comment",
									"numinlets" : 1,
									"numoutlets" : 0,
									"patching_rect" : [ 20.0, 570.0, 629.0, 79.0 ],
									"text" : "The original audio is in fuschia. There are two channels of audio features (the same structure as the buffer). \n\nThe first channel is the pitch in hertz and the second channel is pitch confidence between 0.0 and1.0.\n\nSee the next tab for how we might use this information musically.",
									"textcolor" : [ 0.501960784313725, 0.501960784313725, 0.501960784313725, 1.0 ]
								}

							}
, 							{
								"box" : 								{
									"bgcolor" : [ 1.0, 0.788235, 0.470588, 1.0 ],
									"fontname" : "Arial Bold",
									"hint" : "",
									"id" : "obj-19",
									"ignoreclick" : 1,
									"legacytextcolor" : 1,
									"maxclass" : "textbutton",
									"numinlets" : 1,
									"numoutlets" : 3,
									"outlettype" : [ "", "", "int" ],
									"parameter_enable" : 0,
									"patching_rect" : [ 184.0, 322.5, 20.0, 20.0 ],
									"rounded" : 60.0,
									"text" : "2",
									"textcolor" : [ 0.34902, 0.34902, 0.34902, 1.0 ]
								}

							}
, 							{
								"box" : 								{
									"bubble" : 1,
									"id" : "obj-20",
									"maxclass" : "comment",
									"numinlets" : 1,
									"numoutlets" : 0,
									"patching_rect" : [ 46.0, 320.0, 136.0, 25.0 ],
									"text" : "Analyse the source"
								}

							}
, 							{
								"box" : 								{
									"bgcolor" : [ 1.0, 0.788235, 0.470588, 1.0 ],
									"fontname" : "Arial Bold",
									"hint" : "",
									"id" : "obj-25",
									"ignoreclick" : 1,
									"legacytextcolor" : 1,
									"maxclass" : "textbutton",
									"numinlets" : 1,
									"numoutlets" : 3,
									"outlettype" : [ "", "", "int" ],
									"parameter_enable" : 0,
									"patching_rect" : [ 222.0, 162.5, 20.0, 20.0 ],
									"rounded" : 60.0,
									"text" : "1",
									"textcolor" : [ 0.34902, 0.34902, 0.34902, 1.0 ]
								}

							}
, 							{
								"box" : 								{
									"bubble" : 1,
									"id" : "obj-17",
									"maxclass" : "comment",
									"numinlets" : 1,
									"numoutlets" : 0,
									"patching_rect" : [ 46.0, 160.0, 174.0, 25.0 ],
									"text" : "Listen to the source audio"
								}

							}
, 							{
								"box" : 								{
									"id" : "obj-15",
									"local" : 1,
									"maxclass" : "ezdac~",
									"numinlets" : 2,
									"numoutlets" : 0,
									"patching_rect" : [ 20.0, 240.0, 45.0, 45.0 ]
								}

							}
, 							{
								"box" : 								{
									"id" : "obj-14",
									"maxclass" : "toggle",
									"numinlets" : 1,
									"numoutlets" : 1,
									"outlettype" : [ "int" ],
									"parameter_enable" : 0,
									"patching_rect" : [ 20.0, 160.0, 24.0, 24.0 ]
								}

							}
, 							{
								"box" : 								{
									"id" : "obj-12",
									"maxclass" : "newobj",
									"numinlets" : 1,
									"numoutlets" : 2,
									"outlettype" : [ "signal", "bang" ],
									"patching_rect" : [ 20.0, 200.0, 149.0, 23.0 ],
									"text" : "play~ help.bufpitch.1.src"
								}

							}
, 							{
								"box" : 								{
									"id" : "obj-8",
									"maxclass" : "message",
									"numinlets" : 2,
									"numoutlets" : 1,
									"outlettype" : [ "" ],
									"patching_rect" : [ 20.0, 420.0, 501.0, 23.0 ],
									"text" : "waveform help.bufpitch.1.src fuschia, features help.bufpitch.1.pitch help.bufpitch.1.src"
								}

							}
, 							{
								"box" : 								{
									"id" : "obj-6",
									"maxclass" : "button",
									"numinlets" : 1,
									"numoutlets" : 1,
									"outlettype" : [ "bang" ],
									"parameter_enable" : 0,
									"patching_rect" : [ 20.0, 320.0, 24.0, 24.0 ]
								}

							}
, 							{
								"box" : 								{
									"color" : [ 0.670588235294118, 0.686274509803922, 1.0, 1.0 ],
									"id" : "obj-4",
									"maxclass" : "newobj",
									"numinlets" : 1,
									"numoutlets" : 2,
									"outlettype" : [ "", "" ],
									"patching_rect" : [ 20.0, 370.0, 437.0, 23.0 ],
									"text" : "fluid.bufpitch~ @source help.bufpitch.1.src @features help.bufpitch.1.pitch"
								}

							}
, 							{
								"box" : 								{
									"color" : [ 0.670588235294118, 0.686274509803922, 1.0, 1.0 ],
									"id" : "obj-3",
									"maxclass" : "newobj",
									"numinlets" : 1,
									"numoutlets" : 2,
									"outlettype" : [ "float", "bang" ],
									"patching_rect" : [ 460.0, 370.0, 168.0, 23.0 ],
									"text" : "buffer~ help.bufpitch.1.pitch"
								}

							}
, 							{
								"box" : 								{
									"id" : "obj-2",
									"maxclass" : "newobj",
									"numinlets" : 1,
									"numoutlets" : 2,
									"outlettype" : [ "float", "bang" ],
									"patching_rect" : [ 180.0, 200.0, 401.0, 23.0 ],
									"text" : "buffer~ help.bufpitch.1.src Tremblay-ASWINE-ScratchySynth-M.wav"
								}

							}
, 							{
								"box" : 								{
									"filename" : "fluid.waveform~",
									"id" : "obj-1",
									"maxclass" : "jsui",
									"numinlets" : 1,
									"numoutlets" : 1,
									"outlettype" : [ "" ],
									"parameter_enable" : 0,
									"patching_rect" : [ 20.0, 470.0, 730.0, 90.0 ]
								}

							}
, 							{
								"box" : 								{
									"border" : 0,
									"filename" : "helpdetails.js",
									"id" : "obj-10",
									"ignoreclick" : 1,
									"jsarguments" : [ "fluid.bufpitch~" ],
									"maxclass" : "jsui",
									"numinlets" : 1,
									"numoutlets" : 1,
									"outlettype" : [ "" ],
									"parameter_enable" : 0,
									"patching_rect" : [ 10.0, 10.0, 550.0, 120.0 ]
								}

							}
 ],
						"lines" : [ 							{
								"patchline" : 								{
									"destination" : [ "obj-15", 1 ],
									"order" : 0,
									"source" : [ "obj-12", 0 ]
								}

							}
, 							{
								"patchline" : 								{
									"destination" : [ "obj-15", 0 ],
									"order" : 1,
									"source" : [ "obj-12", 0 ]
								}

							}
, 							{
								"patchline" : 								{
									"destination" : [ "obj-12", 0 ],
									"source" : [ "obj-14", 0 ]
								}

							}
, 							{
								"patchline" : 								{
									"destination" : [ "obj-8", 0 ],
									"source" : [ "obj-4", 0 ]
								}

							}
, 							{
								"patchline" : 								{
									"destination" : [ "obj-4", 0 ],
									"source" : [ "obj-6", 0 ]
								}

							}
, 							{
								"patchline" : 								{
									"destination" : [ "obj-1", 0 ],
									"source" : [ "obj-8", 0 ]
								}

							}
 ],
						"styles" : [ 							{
								"name" : "max6box",
								"default" : 								{
									"accentcolor" : [ 0.8, 0.839216, 0.709804, 1.0 ],
									"bgcolor" : [ 1.0, 1.0, 1.0, 0.5 ],
									"textcolor_inverse" : [ 0.0, 0.0, 0.0, 1.0 ]
								}
,
								"parentstyle" : "",
								"multi" : 0
							}
, 							{
								"name" : "max6inlet",
								"default" : 								{
									"color" : [ 0.423529, 0.372549, 0.27451, 1.0 ]
								}
,
								"parentstyle" : "",
								"multi" : 0
							}
, 							{
								"name" : "max6message",
								"default" : 								{
									"bgfillcolor" : 									{
										"angle" : 270.0,
										"autogradient" : 0,
										"color" : [ 0.290196, 0.309804, 0.301961, 1.0 ],
										"color1" : [ 0.866667, 0.866667, 0.866667, 1.0 ],
										"color2" : [ 0.788235, 0.788235, 0.788235, 1.0 ],
										"proportion" : 0.39,
										"type" : "gradient"
									}
,
									"textcolor_inverse" : [ 0.0, 0.0, 0.0, 1.0 ]
								}
,
								"parentstyle" : "max6box",
								"multi" : 0
							}
, 							{
								"name" : "max6outlet",
								"default" : 								{
									"color" : [ 0.0, 0.454902, 0.498039, 1.0 ]
								}
,
								"parentstyle" : "",
								"multi" : 0
							}
 ]
					}
,
					"patching_rect" : [ 25.0, 96.0, 50.0, 23.0 ],
					"saved_object_attributes" : 					{
						"description" : "",
						"digest" : "",
						"fontsize" : 13.0,
						"globalpatchername" : "",
						"tags" : ""
					}
,
					"text" : "p basic",
					"varname" : "basic_tab"
				}

			}
, 			{
				"box" : 				{
					"border" : 0,
					"filename" : "helpname.js",
					"id" : "obj-7",
					"ignoreclick" : 1,
					"jsarguments" : [ "fluid.bufpitch~" ],
					"maxclass" : "jsui",
					"numinlets" : 1,
					"numoutlets" : 1,
					"outlettype" : [ "" ],
					"parameter_enable" : 0,
					"patching_rect" : [ 10.0, 10.0, 313.279998779296875, 57.599853515625 ]
				}

			}
, 			{
				"box" : 				{
					"id" : "obj-8",
					"maxclass" : "newobj",
					"numinlets" : 0,
					"numoutlets" : 0,
					"patcher" : 					{
						"fileversion" : 1,
						"appversion" : 						{
							"major" : 8,
							"minor" : 3,
							"revision" : 0,
							"architecture" : "x64",
							"modernui" : 1
						}
,
						"classnamespace" : "box",
						"rect" : [ 0.0, 26.0, 890.0, 671.0 ],
						"bglocked" : 0,
						"openinpresentation" : 0,
						"default_fontsize" : 13.0,
						"default_fontface" : 0,
						"default_fontname" : "Arial",
						"gridonopen" : 2,
						"gridsize" : [ 10.0, 10.0 ],
						"gridsnaponopen" : 2,
						"objectsnaponopen" : 1,
						"statusbarvisible" : 2,
						"toolbarvisible" : 1,
						"lefttoolbarpinned" : 0,
						"toptoolbarpinned" : 0,
						"righttoolbarpinned" : 0,
						"bottomtoolbarpinned" : 0,
						"toolbars_unpinned_last_save" : 0,
						"tallnewobj" : 0,
						"boxanimatetime" : 200,
						"enablehscroll" : 1,
						"enablevscroll" : 1,
						"devicewidth" : 0.0,
						"description" : "",
						"digest" : "",
						"tags" : "",
						"style" : "",
						"subpatcher_template" : "",
						"showontab" : 1,
						"assistshowspatchername" : 0,
						"boxes" : [  ],
						"lines" : [  ]
					}
,
					"patching_rect" : [ 299.666672000000005, 295.333358999999973, 50.0, 23.0 ],
					"saved_object_attributes" : 					{
						"description" : "",
						"digest" : "",
						"fontsize" : 13.0,
						"globalpatchername" : "",
						"tags" : ""
					}
,
					"text" : "p ?",
					"varname" : "q_tab"
				}

			}
 ],
		"lines" : [  ],
		"parameters" : 		{
			"obj-4::obj-39" : [ "live.text", "live.text", 0 ],
			"parameterbanks" : 			{

			}
,
			"inherited_shortname" : 1
		}
,
		"autosave" : 0,
		"styles" : [ 			{
				"name" : "max6box",
				"default" : 				{
					"accentcolor" : [ 0.8, 0.839216, 0.709804, 1.0 ],
					"bgcolor" : [ 1.0, 1.0, 1.0, 0.5 ],
					"textcolor_inverse" : [ 0.0, 0.0, 0.0, 1.0 ]
				}
,
				"parentstyle" : "",
				"multi" : 0
			}
, 			{
				"name" : "max6inlet",
				"default" : 				{
					"color" : [ 0.423529, 0.372549, 0.27451, 1.0 ]
				}
,
				"parentstyle" : "",
				"multi" : 0
			}
, 			{
				"name" : "max6message",
				"default" : 				{
					"bgfillcolor" : 					{
						"angle" : 270.0,
						"autogradient" : 0,
						"color" : [ 0.290196, 0.309804, 0.301961, 1.0 ],
						"color1" : [ 0.866667, 0.866667, 0.866667, 1.0 ],
						"color2" : [ 0.788235, 0.788235, 0.788235, 1.0 ],
						"proportion" : 0.39,
						"type" : "gradient"
					}
,
					"textcolor_inverse" : [ 0.0, 0.0, 0.0, 1.0 ]
				}
,
				"parentstyle" : "max6box",
				"multi" : 0
			}
, 			{
				"name" : "max6outlet",
				"default" : 				{
					"color" : [ 0.0, 0.454902, 0.498039, 1.0 ]
				}
,
				"parentstyle" : "",
				"multi" : 0
			}
 ]
	}

}
