{
	"patcher" : 	{
		"fileversion" : 1,
		"appversion" : 		{
			"major" : 8,
			"minor" : 3,
			"revision" : 0,
			"architecture" : "x64",
			"modernui" : 1
		}
,
		"classnamespace" : "box",
		"rect" : [ 35.0, 88.0, 841.0, 688.0 ],
		"bglocked" : 0,
		"openinpresentation" : 0,
		"default_fontsize" : 13.0,
		"default_fontface" : 0,
		"default_fontname" : "Arial",
		"gridonopen" : 2,
		"gridsize" : [ 10.0, 10.0 ],
		"gridsnaponopen" : 2,
		"objectsnaponopen" : 1,
		"statusbarvisible" : 2,
		"toolbarvisible" : 1,
		"lefttoolbarpinned" : 0,
		"toptoolbarpinned" : 0,
		"righttoolbarpinned" : 0,
		"bottomtoolbarpinned" : 0,
		"toolbars_unpinned_last_save" : 0,
		"tallnewobj" : 0,
		"boxanimatetime" : 200,
		"enablehscroll" : 1,
		"enablevscroll" : 1,
		"devicewidth" : 0.0,
		"description" : "",
		"digest" : "",
		"tags" : "",
		"style" : "",
		"subpatcher_template" : "",
		"showrootpatcherontab" : 0,
		"showontab" : 0,
		"assistshowspatchername" : 0,
		"boxes" : [ 			{
				"box" : 				{
					"id" : "obj-3",
					"maxclass" : "newobj",
					"numinlets" : 0,
					"numoutlets" : 0,
					"patcher" : 					{
						"fileversion" : 1,
						"appversion" : 						{
							"major" : 8,
							"minor" : 3,
							"revision" : 0,
							"architecture" : "x64",
							"modernui" : 1
						}
,
						"classnamespace" : "box",
						"rect" : [ 0.0, 26.0, 841.0, 662.0 ],
						"bglocked" : 0,
						"openinpresentation" : 0,
						"default_fontsize" : 13.0,
						"default_fontface" : 0,
						"default_fontname" : "Arial",
						"gridonopen" : 2,
						"gridsize" : [ 10.0, 10.0 ],
						"gridsnaponopen" : 2,
						"objectsnaponopen" : 1,
						"statusbarvisible" : 2,
						"toolbarvisible" : 1,
						"lefttoolbarpinned" : 0,
						"toptoolbarpinned" : 0,
						"righttoolbarpinned" : 0,
						"bottomtoolbarpinned" : 0,
						"toolbars_unpinned_last_save" : 0,
						"tallnewobj" : 0,
						"boxanimatetime" : 200,
						"enablehscroll" : 1,
						"enablevscroll" : 1,
						"devicewidth" : 0.0,
						"description" : "",
						"digest" : "",
						"tags" : "",
						"style" : "",
						"subpatcher_template" : "",
						"showontab" : 1,
						"assistshowspatchername" : 0,
						"boxes" : [ 							{
								"box" : 								{
									"id" : "obj-20",
									"maxclass" : "comment",
									"numinlets" : 1,
									"numoutlets" : 0,
									"patching_rect" : [ 721.0, 457.0, 109.0, 21.0 ],
									"text" : "Offset positions",
									"textcolor" : [ 0.501960784313725, 0.501960784313725, 0.501960784313725, 1.0 ]
								}

							}
, 							{
								"box" : 								{
									"id" : "obj-19",
									"maxclass" : "comment",
									"numinlets" : 1,
									"numoutlets" : 0,
									"patching_rect" : [ 720.0, 250.0, 109.0, 21.0 ],
									"text" : "Onset positions",
									"textcolor" : [ 0.501960784313725, 0.501960784313725, 0.501960784313725, 1.0 ]
								}

							}
, 							{
								"box" : 								{
									"filename" : "fluid.waveform~",
									"id" : "obj-18",
									"maxclass" : "jsui",
									"numinlets" : 1,
									"numoutlets" : 1,
									"outlettype" : [ "" ],
									"parameter_enable" : 0,
									"patching_rect" : [ 20.0, 480.0, 810.0, 160.0 ]
								}

							}
, 							{
								"box" : 								{
									"id" : "obj-16",
									"maxclass" : "comment",
									"numinlets" : 1,
									"numoutlets" : 0,
									"patching_rect" : [ 223.0, 221.0, 109.0, 21.0 ],
									"text" : "take a look inside",
									"textcolor" : [ 0.501960784313725, 0.501960784313725, 0.501960784313725, 1.0 ]
								}

							}
, 							{
								"box" : 								{
									"id" : "obj-14",
									"maxclass" : "newobj",
									"numinlets" : 1,
									"numoutlets" : 2,
									"outlettype" : [ "", "" ],
									"patcher" : 									{
										"fileversion" : 1,
										"appversion" : 										{
											"major" : 8,
											"minor" : 3,
											"revision" : 0,
											"architecture" : "x64",
											"modernui" : 1
										}
,
										"classnamespace" : "box",
										"rect" : [ 84.0, 131.0, 644.0, 352.0 ],
										"bglocked" : 0,
										"openinpresentation" : 0,
										"default_fontsize" : 12.0,
										"default_fontface" : 0,
										"default_fontname" : "Arial",
										"gridonopen" : 1,
										"gridsize" : [ 15.0, 15.0 ],
										"gridsnaponopen" : 1,
										"objectsnaponopen" : 1,
										"statusbarvisible" : 2,
										"toolbarvisible" : 1,
										"lefttoolbarpinned" : 0,
										"toptoolbarpinned" : 0,
										"righttoolbarpinned" : 0,
										"bottomtoolbarpinned" : 0,
										"toolbars_unpinned_last_save" : 0,
										"tallnewobj" : 0,
										"boxanimatetime" : 200,
										"enablehscroll" : 1,
										"enablevscroll" : 1,
										"devicewidth" : 0.0,
										"description" : "",
										"digest" : "",
										"tags" : "",
										"style" : "",
										"subpatcher_template" : "",
										"assistshowspatchername" : 0,
										"boxes" : [ 											{
												"box" : 												{
													"color" : [ 0.423529411764706, 0.513725490196078, 1.0, 1.0 ],
													"id" : "obj-12",
													"maxclass" : "newobj",
													"numinlets" : 1,
													"numoutlets" : 2,
													"outlettype" : [ "float", "bang" ],
													"patching_rect" : [ 447.0, 11.0000003359375, 186.0, 22.0 ],
													"text" : "buffer~ help.ampgate.indices.2"
												}

											}
, 											{
												"box" : 												{
													"comment" : "",
													"id" : "obj-11",
													"index" : 2,
													"maxclass" : "outlet",
													"numinlets" : 1,
													"numoutlets" : 0,
													"patching_rect" : [ 183.0, 245.0, 30.0, 30.0 ]
												}

											}
, 											{
												"box" : 												{
													"id" : "obj-10",
													"linecount" : 2,
													"maxclass" : "message",
													"numinlets" : 2,
													"numoutlets" : 1,
													"outlettype" : [ "" ],
													"patching_rect" : [ 183.0, 176.0, 173.0, 35.0 ],
													"text" : "waveform help.ampgate.src.2, slices $2 help.ampgate.src.2"
												}

											}
, 											{
												"box" : 												{
													"id" : "obj-9",
													"linecount" : 2,
													"maxclass" : "message",
													"numinlets" : 2,
													"numoutlets" : 1,
													"outlettype" : [ "" ],
													"patching_rect" : [ 9.0, 176.0, 173.0, 35.0 ],
													"text" : "waveform help.ampgate.src.2, slices $2 help.ampgate.src.2"
												}

											}
, 											{
												"box" : 												{
													"id" : "obj-7",
													"linecount" : 6,
													"maxclass" : "comment",
													"numinlets" : 1,
													"numoutlets" : 0,
													"patching_rect" : [ 381.0, 135.0, 150.0, 87.0 ],
													"text" : "using automatic buffer management we can succintly separate onsets (channel 0) from offsets (channel 1) and return a new buffer for each ",
													"textcolor" : [ 0.501960784313725, 0.501960784313725, 0.501960784313725, 1.0 ]
												}

											}
, 											{
												"box" : 												{
													"comment" : "",
													"id" : "obj-4",
													"index" : 1,
													"maxclass" : "outlet",
													"numinlets" : 1,
													"numoutlets" : 0,
													"patching_rect" : [ 9.0, 245.0, 30.0, 30.0 ]
												}

											}
, 											{
												"box" : 												{
													"id" : "obj-2",
													"maxclass" : "newobj",
													"numinlets" : 1,
													"numoutlets" : 2,
													"outlettype" : [ "", "" ],
													"patching_rect" : [ 183.0, 107.0, 162.0, 22.0 ],
													"text" : "fluid.bufselect~ @channels 1"
												}

											}
, 											{
												"box" : 												{
													"id" : "obj-1",
													"maxclass" : "newobj",
													"numinlets" : 1,
													"numoutlets" : 2,
													"outlettype" : [ "", "" ],
													"patching_rect" : [ 9.0, 107.0, 162.0, 22.0 ],
													"text" : "fluid.bufselect~ @channels 0"
												}

											}
, 											{
												"box" : 												{
													"color" : [ 0.423529411764706, 0.513725490196078, 1.0, 1.0 ],
													"id" : "obj-3",
													"linecount" : 2,
													"maxclass" : "newobj",
													"numinlets" : 1,
													"numoutlets" : 2,
													"outlettype" : [ "", "" ],
													"patching_rect" : [ 9.0, 50.7991943359375, 624.0, 35.0 ],
													"text" : "fluid.bufampgate~ @source help.ampgate.src.2 @indices help.ampgate.indices.2 @rampup 110 @rampdown 2205 @onthreshold -40 @offthreshold -41 @minsilencelength 1100 @lookback 441"
												}

											}
, 											{
												"box" : 												{
													"comment" : "",
													"id" : "obj-13",
													"index" : 1,
													"maxclass" : "inlet",
													"numinlets" : 0,
													"numoutlets" : 1,
													"outlettype" : [ "bang" ],
													"patching_rect" : [ 9.0, 11.0000003359375, 30.0, 30.0 ]
												}

											}
 ],
										"lines" : [ 											{
												"patchline" : 												{
													"destination" : [ "obj-9", 0 ],
													"source" : [ "obj-1", 0 ]
												}

											}
, 											{
												"patchline" : 												{
													"destination" : [ "obj-11", 0 ],
													"source" : [ "obj-10", 0 ]
												}

											}
, 											{
												"patchline" : 												{
													"destination" : [ "obj-3", 0 ],
													"source" : [ "obj-13", 0 ]
												}

											}
, 											{
												"patchline" : 												{
													"destination" : [ "obj-10", 0 ],
													"source" : [ "obj-2", 0 ]
												}

											}
, 											{
												"patchline" : 												{
													"destination" : [ "obj-1", 0 ],
													"midpoints" : [ 18.5, 87.0, 18.5, 87.0 ],
													"order" : 1,
													"source" : [ "obj-3", 0 ]
												}

											}
, 											{
												"patchline" : 												{
													"destination" : [ "obj-2", 0 ],
													"midpoints" : [ 18.5, 99.0, 192.5, 99.0 ],
													"order" : 0,
													"source" : [ "obj-3", 0 ]
												}

											}
, 											{
												"patchline" : 												{
													"destination" : [ "obj-4", 0 ],
													"source" : [ "obj-9", 0 ]
												}

											}
 ]
									}
,
									"patching_rect" : [ 20.0, 220.0, 201.0, 23.0 ],
									"saved_object_attributes" : 									{
										"description" : "",
										"digest" : "",
										"globalpatchername" : "",
										"tags" : ""
									}
,
									"text" : "p \"slicing and buffer organisation\""
								}

							}
, 							{
								"box" : 								{
									"filename" : "fluid.waveform~",
									"id" : "obj-4",
									"maxclass" : "jsui",
									"numinlets" : 1,
									"numoutlets" : 1,
									"outlettype" : [ "" ],
									"parameter_enable" : 0,
									"patching_rect" : [ 20.0, 270.0, 810.0, 160.0 ]
								}

							}
, 							{
								"box" : 								{
									"bgcolor" : [ 1.0, 0.788235, 0.470588, 1.0 ],
									"fontname" : "Arial Bold",
									"hint" : "",
									"id" : "obj-36",
									"ignoreclick" : 1,
									"legacytextcolor" : 1,
									"maxclass" : "textbutton",
									"numinlets" : 1,
									"numoutlets" : 3,
									"outlettype" : [ "", "", "int" ],
									"parameter_enable" : 0,
									"patching_rect" : [ 163.0, 182.5, 20.0, 20.0 ],
									"rounded" : 60.0,
									"text" : "1",
									"textcolor" : [ 0.34902, 0.34902, 0.34902, 1.0 ]
								}

							}
, 							{
								"box" : 								{
									"bubble" : 1,
									"id" : "obj-34",
									"maxclass" : "comment",
									"numinlets" : 1,
									"numoutlets" : 0,
									"patching_rect" : [ 43.5, 180.0, 116.0, 25.0 ],
									"text" : "slice the source"
								}

							}
, 							{
								"box" : 								{
									"id" : "obj-6",
									"maxclass" : "button",
									"numinlets" : 1,
									"numoutlets" : 1,
									"outlettype" : [ "bang" ],
									"parameter_enable" : 0,
									"patching_rect" : [ 20.0, 180.0, 24.0, 24.0 ]
								}

							}
, 							{
								"box" : 								{
									"args" : [ "@file", "Constanzo-PreparedSnare-M.wav" ],
									"bgmode" : 0,
									"border" : 0,
									"clickthrough" : 0,
									"enablehscroll" : 0,
									"enablevscroll" : 0,
									"id" : "obj-2",
									"lockeddragscroll" : 0,
									"lockedsize" : 0,
									"maxclass" : "bpatcher",
									"name" : "fluid.bufloader.maxpat",
									"numinlets" : 0,
									"numoutlets" : 1,
									"offset" : [ 0.0, 0.0 ],
									"outlettype" : [ "" ],
									"patching_rect" : [ 20.0, 80.0, 290.0, 28.0 ],
									"viewvisibility" : 1
								}

							}
, 							{
								"box" : 								{
									"id" : "obj-1",
									"maxclass" : "newobj",
									"numinlets" : 1,
									"numoutlets" : 2,
									"outlettype" : [ "float", "bang" ],
									"patching_rect" : [ 20.0, 120.0, 163.0, 23.0 ],
									"text" : "buffer~ help.ampgate.src.2"
								}

							}
, 							{
								"box" : 								{
									"background" : 1,
									"border" : 0,
									"filename" : "helpdetails.js",
									"id" : "obj-5",
									"ignoreclick" : 1,
									"jsarguments" : [ "fluid.bufampgate~" ],
									"maxclass" : "jsui",
									"numinlets" : 1,
									"numoutlets" : 1,
									"outlettype" : [ "" ],
									"parameter_enable" : 0,
									"patching_rect" : [ 10.0, 10.0, 390.0, 50.0 ]
								}

							}
 ],
						"lines" : [ 							{
								"patchline" : 								{
									"destination" : [ "obj-18", 0 ],
									"midpoints" : [ 211.5, 257.0, 6.0, 257.0, 6.0, 467.0, 29.5, 467.0 ],
									"source" : [ "obj-14", 1 ]
								}

							}
, 							{
								"patchline" : 								{
									"destination" : [ "obj-4", 0 ],
									"source" : [ "obj-14", 0 ]
								}

							}
, 							{
								"patchline" : 								{
									"destination" : [ "obj-1", 0 ],
									"source" : [ "obj-2", 0 ]
								}

							}
, 							{
								"patchline" : 								{
									"destination" : [ "obj-14", 0 ],
									"source" : [ "obj-6", 0 ]
								}

							}
 ],
						"styles" : [ 							{
								"name" : "max6box",
								"default" : 								{
									"accentcolor" : [ 0.8, 0.839216, 0.709804, 1.0 ],
									"bgcolor" : [ 1.0, 1.0, 1.0, 0.5 ],
									"textcolor_inverse" : [ 0.0, 0.0, 0.0, 1.0 ]
								}
,
								"parentstyle" : "",
								"multi" : 0
							}
, 							{
								"name" : "max6inlet",
								"default" : 								{
									"color" : [ 0.423529, 0.372549, 0.27451, 1.0 ]
								}
,
								"parentstyle" : "",
								"multi" : 0
							}
, 							{
								"name" : "max6message",
								"default" : 								{
									"bgfillcolor" : 									{
										"angle" : 270.0,
										"autogradient" : 0,
										"color" : [ 0.290196, 0.309804, 0.301961, 1.0 ],
										"color1" : [ 0.866667, 0.866667, 0.866667, 1.0 ],
										"color2" : [ 0.788235, 0.788235, 0.788235, 1.0 ],
										"proportion" : 0.39,
										"type" : "gradient"
									}
,
									"textcolor_inverse" : [ 0.0, 0.0, 0.0, 1.0 ]
								}
,
								"parentstyle" : "max6box",
								"multi" : 0
							}
, 							{
								"name" : "max6outlet",
								"default" : 								{
									"color" : [ 0.0, 0.454902, 0.498039, 1.0 ]
								}
,
								"parentstyle" : "",
								"multi" : 0
							}
 ]
					}
,
					"patching_rect" : [ 60.0, 115.0, 79.0, 23.0 ],
					"saved_object_attributes" : 					{
						"description" : "",
						"digest" : "",
						"fontsize" : 13.0,
						"globalpatchername" : "",
						"tags" : ""
					}
,
					"text" : "p visualising",
					"varname" : "basic_tab[1]"
				}

			}
, 			{
				"box" : 				{
					"id" : "obj-4",
					"maxclass" : "newobj",
					"numinlets" : 0,
					"numoutlets" : 0,
					"patching_rect" : [ 317.0, 266.0, 282.0, 23.0 ],
					"text" : "fluid_decomposition.blocking fluid.bufampgate~"
				}

			}
, 			{
				"box" : 				{
					"id" : "obj-8",
					"maxclass" : "newobj",
					"numinlets" : 0,
					"numoutlets" : 0,
					"patcher" : 					{
						"fileversion" : 1,
						"appversion" : 						{
							"major" : 8,
							"minor" : 3,
							"revision" : 0,
							"architecture" : "x64",
							"modernui" : 1
						}
,
						"classnamespace" : "box",
						"rect" : [ 0.0, 26.0, 841.0, 662.0 ],
						"bglocked" : 0,
						"openinpresentation" : 0,
						"default_fontsize" : 13.0,
						"default_fontface" : 0,
						"default_fontname" : "Arial",
						"gridonopen" : 2,
						"gridsize" : [ 10.0, 10.0 ],
						"gridsnaponopen" : 2,
						"objectsnaponopen" : 1,
						"statusbarvisible" : 2,
						"toolbarvisible" : 1,
						"lefttoolbarpinned" : 0,
						"toptoolbarpinned" : 0,
						"righttoolbarpinned" : 0,
						"bottomtoolbarpinned" : 0,
						"toolbars_unpinned_last_save" : 0,
						"tallnewobj" : 0,
						"boxanimatetime" : 200,
						"enablehscroll" : 1,
						"enablevscroll" : 1,
						"devicewidth" : 0.0,
						"description" : "",
						"digest" : "",
						"tags" : "",
						"style" : "",
						"subpatcher_template" : "",
						"showontab" : 1,
						"assistshowspatchername" : 0,
						"boxes" : [ 							{
								"box" : 								{
									"color" : [ 0.254901960784314, 0.905882352941176, 0.450980392156863, 1.0 ],
									"id" : "obj-11",
									"maxclass" : "newobj",
									"numinlets" : 1,
									"numoutlets" : 2,
									"outlettype" : [ "float", "bang" ],
									"patching_rect" : [ 527.0, 309.0, 178.0, 23.0 ],
									"text" : "buffer~ help.ampgate.slices.3"
								}

							}
, 							{
								"box" : 								{
									"id" : "obj-10",
									"maxclass" : "message",
									"numinlets" : 2,
									"numoutlets" : 1,
									"outlettype" : [ "" ],
									"patching_rect" : [ 317.0, 410.0, 179.0, 23.0 ],
									"text" : "waveform help.ampgate.src.3"
								}

							}
, 							{
								"box" : 								{
									"filename" : "fluid.waveform~",
									"id" : "obj-8",
									"maxclass" : "jsui",
									"numinlets" : 1,
									"numoutlets" : 1,
									"outlettype" : [ "" ],
									"parameter_enable" : 0,
									"patching_rect" : [ 20.0, 469.0, 412.5, 80.0 ]
								}

							}
, 							{
								"box" : 								{
									"id" : "obj-7",
									"maxclass" : "message",
									"numinlets" : 2,
									"numoutlets" : 1,
									"outlettype" : [ "" ],
									"patching_rect" : [ 20.0, 369.0, 285.0, 23.0 ],
									"text" : "slices help.ampgate.slices.3 help.ampgate.src.3"
								}

							}
, 							{
								"box" : 								{
									"border" : 0,
									"filename" : "helpname.js",
									"id" : "obj-4",
									"ignoreclick" : 1,
									"jsarguments" : [ "fluid.bufampgate~" ],
									"maxclass" : "jsui",
									"numinlets" : 1,
									"numoutlets" : 1,
									"outlettype" : [ "" ],
									"parameter_enable" : 0,
									"patching_rect" : [ 10.0, 10.0, 389.24005126953125, 57.599853515625 ]
								}

							}
, 							{
								"box" : 								{
									"bgcolor" : [ 1.0, 0.788235, 0.470588, 1.0 ],
									"fontname" : "Arial Bold",
									"hint" : "",
									"id" : "obj-58",
									"ignoreclick" : 1,
									"legacytextcolor" : 1,
									"maxclass" : "textbutton",
									"numinlets" : 1,
									"numoutlets" : 3,
									"outlettype" : [ "", "", "int" ],
									"parameter_enable" : 0,
									"patching_rect" : [ 606.0, 261.0, 20.0, 20.0 ],
									"rounded" : 60.0,
									"text" : "5",
									"textcolor" : [ 0.34902, 0.34902, 0.34902, 1.0 ]
								}

							}
, 							{
								"box" : 								{
									"bgcolor" : [ 1.0, 0.788235, 0.470588, 1.0 ],
									"fontname" : "Arial Bold",
									"hint" : "",
									"id" : "obj-57",
									"ignoreclick" : 1,
									"legacytextcolor" : 1,
									"maxclass" : "textbutton",
									"numinlets" : 1,
									"numoutlets" : 3,
									"outlettype" : [ "", "", "int" ],
									"parameter_enable" : 0,
									"patching_rect" : [ 567.0, 221.25, 20.0, 20.0 ],
									"rounded" : 60.0,
									"text" : "4",
									"textcolor" : [ 0.34902, 0.34902, 0.34902, 1.0 ]
								}

							}
, 							{
								"box" : 								{
									"bgcolor" : [ 1.0, 0.788235, 0.470588, 1.0 ],
									"fontname" : "Arial Bold",
									"hint" : "",
									"id" : "obj-56",
									"ignoreclick" : 1,
									"legacytextcolor" : 1,
									"maxclass" : "textbutton",
									"numinlets" : 1,
									"numoutlets" : 3,
									"outlettype" : [ "", "", "int" ],
									"parameter_enable" : 0,
									"patching_rect" : [ 547.0, 181.5, 20.0, 20.0 ],
									"rounded" : 60.0,
									"text" : "3",
									"textcolor" : [ 0.34902, 0.34902, 0.34902, 1.0 ]
								}

							}
, 							{
								"box" : 								{
									"bgcolor" : [ 1.0, 0.788235, 0.470588, 1.0 ],
									"fontname" : "Arial Bold",
									"hint" : "",
									"id" : "obj-55",
									"ignoreclick" : 1,
									"legacytextcolor" : 1,
									"maxclass" : "textbutton",
									"numinlets" : 1,
									"numoutlets" : 3,
									"outlettype" : [ "", "", "int" ],
									"parameter_enable" : 0,
									"patching_rect" : [ 657.0, 141.75, 20.0, 20.0 ],
									"rounded" : 60.0,
									"text" : "2",
									"textcolor" : [ 0.34902, 0.34902, 0.34902, 1.0 ]
								}

							}
, 							{
								"box" : 								{
									"bubble" : 1,
									"fontsize" : 12.0,
									"id" : "obj-53",
									"maxclass" : "comment",
									"numinlets" : 1,
									"numoutlets" : 0,
									"patching_rect" : [ 397.0, 259.0, 208.0, 24.0 ],
									"text" : "set both, e.g. to capture reverb tail",
									"textcolor" : [ 0.0, 0.0, 0.0, 1.0 ]
								}

							}
, 							{
								"box" : 								{
									"bubble" : 1,
									"fontsize" : 12.0,
									"id" : "obj-52",
									"maxclass" : "comment",
									"numinlets" : 1,
									"numoutlets" : 0,
									"patching_rect" : [ 288.0, 219.25, 279.0, 24.0 ],
									"text" : "move offset forwards to minimum within window",
									"textcolor" : [ 0.0, 0.0, 0.0, 1.0 ]
								}

							}
, 							{
								"box" : 								{
									"bubble" : 1,
									"fontsize" : 12.0,
									"id" : "obj-51",
									"maxclass" : "comment",
									"numinlets" : 1,
									"numoutlets" : 0,
									"patching_rect" : [ 255.0, 179.5, 291.0, 24.0 ],
									"text" : "move onset backwards to minimum within window",
									"textcolor" : [ 0.0, 0.0, 0.0, 1.0 ]
								}

							}
, 							{
								"box" : 								{
									"bubble" : 1,
									"fontsize" : 12.0,
									"id" : "obj-50",
									"maxclass" : "comment",
									"numinlets" : 1,
									"numoutlets" : 0,
									"patching_rect" : [ 247.0, 139.75, 405.0, 24.0 ],
									"text" : "set a minimum time for a transition to be below offthreshold, else ignore",
									"textcolor" : [ 0.0, 0.0, 0.0, 1.0 ]
								}

							}
, 							{
								"box" : 								{
									"bubble" : 1,
									"fontsize" : 12.0,
									"id" : "obj-47",
									"maxclass" : "comment",
									"numinlets" : 1,
									"numoutlets" : 0,
									"patching_rect" : [ 220.0, 100.0, 406.0, 24.0 ],
									"text" : "set a minimum time for a transition to be above onthreshold, else ignore",
									"textcolor" : [ 0.0, 0.0, 0.0, 1.0 ]
								}

							}
, 							{
								"box" : 								{
									"bgcolor" : [ 1.0, 0.788235, 0.470588, 1.0 ],
									"fontname" : "Arial Bold",
									"hint" : "",
									"id" : "obj-32",
									"ignoreclick" : 1,
									"legacytextcolor" : 1,
									"maxclass" : "textbutton",
									"numinlets" : 1,
									"numoutlets" : 3,
									"outlettype" : [ "", "", "int" ],
									"parameter_enable" : 0,
									"patching_rect" : [ 632.0, 102.0, 20.0, 20.0 ],
									"rounded" : 60.0,
									"text" : "1",
									"textcolor" : [ 0.34902, 0.34902, 0.34902, 1.0 ]
								}

							}
, 							{
								"box" : 								{
									"id" : "obj-44",
									"maxclass" : "newobj",
									"numinlets" : 0,
									"numoutlets" : 1,
									"outlettype" : [ "" ],
									"patcher" : 									{
										"fileversion" : 1,
										"appversion" : 										{
											"major" : 8,
											"minor" : 3,
											"revision" : 0,
											"architecture" : "x64",
											"modernui" : 1
										}
,
										"classnamespace" : "box",
										"rect" : [ 766.0, 408.0, 640.0, 480.0 ],
										"bglocked" : 0,
										"openinpresentation" : 0,
										"default_fontsize" : 13.0,
										"default_fontface" : 0,
										"default_fontname" : "Arial",
										"gridonopen" : 2,
										"gridsize" : [ 10.0, 10.0 ],
										"gridsnaponopen" : 2,
										"objectsnaponopen" : 1,
										"statusbarvisible" : 2,
										"toolbarvisible" : 1,
										"lefttoolbarpinned" : 0,
										"toptoolbarpinned" : 0,
										"righttoolbarpinned" : 0,
										"bottomtoolbarpinned" : 0,
										"toolbars_unpinned_last_save" : 0,
										"tallnewobj" : 0,
										"boxanimatetime" : 200,
										"enablehscroll" : 1,
										"enablevscroll" : 1,
										"devicewidth" : 0.0,
										"description" : "",
										"digest" : "",
										"tags" : "",
										"style" : "",
										"subpatcher_template" : "",
										"assistshowspatchername" : 0,
										"boxes" : [ 											{
												"box" : 												{
													"id" : "obj-2",
													"maxclass" : "newobj",
													"numinlets" : 1,
													"numoutlets" : 1,
													"outlettype" : [ "" ],
													"patching_rect" : [ 38.5, 210.0, 58.0, 23.0 ],
													"text" : "deferlow"
												}

											}
, 											{
												"box" : 												{
													"comment" : "",
													"id" : "obj-4",
													"index" : 1,
													"maxclass" : "outlet",
													"numinlets" : 1,
													"numoutlets" : 0,
													"patching_rect" : [ 38.5, 250.0, 30.0, 30.0 ]
												}

											}
, 											{
												"box" : 												{
													"color" : [ 0.423529411764706, 0.513725490196078, 1.0, 1.0 ],
													"id" : "obj-15",
													"maxclass" : "newobj",
													"numinlets" : 3,
													"numoutlets" : 1,
													"outlettype" : [ "float" ],
													"patching_rect" : [ 67.0, 170.0, 158.0, 23.0 ],
													"text" : "peek~ help.ampgate.src.3"
												}

											}
, 											{
												"box" : 												{
													"id" : "obj-14",
													"maxclass" : "newobj",
													"numinlets" : 1,
													"numoutlets" : 2,
													"outlettype" : [ "int", "int" ],
													"patching_rect" : [ 67.0, 90.0, 88.5, 23.0 ],
													"text" : "t i i"
												}

											}
, 											{
												"box" : 												{
													"id" : "obj-13",
													"maxclass" : "newobj",
													"numinlets" : 1,
													"numoutlets" : 1,
													"outlettype" : [ "" ],
													"patching_rect" : [ 136.5, 130.0, 463.0, 23.0 ],
													"text" : "expr sin($f1 * 3.141593 * 640 / 44100) * abs(sin($f1 *3.14159265359 / 22050.))"
												}

											}
, 											{
												"box" : 												{
													"id" : "obj-10",
													"maxclass" : "newobj",
													"numinlets" : 2,
													"numoutlets" : 3,
													"outlettype" : [ "bang", "bang", "int" ],
													"patching_rect" : [ 10.0, 50.0, 76.0, 23.0 ],
													"text" : "uzi 44100 0"
												}

											}
, 											{
												"box" : 												{
													"id" : "obj-35",
													"maxclass" : "newobj",
													"numinlets" : 1,
													"numoutlets" : 1,
													"outlettype" : [ "bang" ],
													"patching_rect" : [ 10.0, 10.0, 62.0, 23.0 ],
													"text" : "loadbang"
												}

											}
, 											{
												"box" : 												{
													"color" : [ 0.423529411764706, 0.513725490196078, 1.0, 1.0 ],
													"id" : "obj-20",
													"maxclass" : "newobj",
													"numinlets" : 1,
													"numoutlets" : 2,
													"outlettype" : [ "float", "bang" ],
													"patching_rect" : [ 230.0, 170.0, 258.0, 23.0 ],
													"text" : "buffer~ help.ampgate.src.3 @samps 44100"
												}

											}
 ],
										"lines" : [ 											{
												"patchline" : 												{
													"destination" : [ "obj-14", 0 ],
													"source" : [ "obj-10", 2 ]
												}

											}
, 											{
												"patchline" : 												{
													"destination" : [ "obj-2", 0 ],
													"source" : [ "obj-10", 1 ]
												}

											}
, 											{
												"patchline" : 												{
													"destination" : [ "obj-15", 1 ],
													"source" : [ "obj-13", 0 ]
												}

											}
, 											{
												"patchline" : 												{
													"destination" : [ "obj-13", 0 ],
													"source" : [ "obj-14", 1 ]
												}

											}
, 											{
												"patchline" : 												{
													"destination" : [ "obj-15", 0 ],
													"source" : [ "obj-14", 0 ]
												}

											}
, 											{
												"patchline" : 												{
													"destination" : [ "obj-4", 0 ],
													"source" : [ "obj-2", 0 ]
												}

											}
, 											{
												"patchline" : 												{
													"destination" : [ "obj-10", 0 ],
													"source" : [ "obj-35", 0 ]
												}

											}
 ]
									}
,
									"patching_rect" : [ 317.0, 369.0, 86.0, 23.0 ],
									"saved_object_attributes" : 									{
										"description" : "",
										"digest" : "",
										"fontsize" : 13.0,
										"globalpatchername" : "",
										"tags" : ""
									}
,
									"text" : "p wavemaker"
								}

							}
, 							{
								"box" : 								{
									"color" : [ 0.254901960784314, 0.905882352941176, 0.450980392156863, 1.0 ],
									"id" : "obj-2",
									"linecount" : 2,
									"maxclass" : "newobj",
									"numinlets" : 1,
									"numoutlets" : 2,
									"outlettype" : [ "", "" ],
									"patching_rect" : [ 20.0, 309.0, 497.0, 38.0 ],
									"text" : "fluid.bufampgate~ @source help.ampgate.src.3 @indices help.ampgate.slices.3 @rampup 5 @rampdown 25 @onthreshold -12 @offthreshold -12"
								}

							}
, 							{
								"box" : 								{
									"fontsize" : 13.0,
									"id" : "obj-30",
									"maxclass" : "comment",
									"numinlets" : 1,
									"numoutlets" : 0,
									"patching_rect" : [ 10.0, 69.599853515625, 589.0, 21.0 ],
									"text" : "we can move onsets / offsets to more desireable positions, or supress state changes that are too fast",
									"textcolor" : [ 0.5, 0.5, 0.5, 1.0 ]
								}

							}
, 							{
								"box" : 								{
									"id" : "obj-42",
									"maxclass" : "message",
									"numinlets" : 2,
									"numoutlets" : 1,
									"outlettype" : [ "" ],
									"patching_rect" : [ 143.5, 259.0, 250.0, 23.0 ],
									"text" : "reset, lookback 221, lookahead 441, bang"
								}

							}
, 							{
								"box" : 								{
									"id" : "obj-43",
									"maxclass" : "message",
									"numinlets" : 2,
									"numoutlets" : 1,
									"outlettype" : [ "" ],
									"patching_rect" : [ 120.0, 219.25, 166.0, 23.0 ],
									"text" : "reset, lookahead 441, bang"
								}

							}
, 							{
								"box" : 								{
									"id" : "obj-33",
									"maxclass" : "message",
									"numinlets" : 2,
									"numoutlets" : 1,
									"outlettype" : [ "" ],
									"patching_rect" : [ 94.0, 179.5, 157.0, 23.0 ],
									"text" : "reset, lookback 441, bang"
								}

							}
, 							{
								"box" : 								{
									"id" : "obj-34",
									"maxclass" : "message",
									"numinlets" : 2,
									"numoutlets" : 1,
									"outlettype" : [ "" ],
									"patching_rect" : [ 45.0, 139.75, 196.0, 23.0 ],
									"text" : "reset, minlengthbelow 441, bang"
								}

							}
, 							{
								"box" : 								{
									"id" : "obj-36",
									"maxclass" : "message",
									"numinlets" : 2,
									"numoutlets" : 1,
									"outlettype" : [ "" ],
									"patching_rect" : [ 20.0, 100.0, 198.0, 23.0 ],
									"text" : "reset, minlengthabove 441, bang"
								}

							}
 ],
						"lines" : [ 							{
								"patchline" : 								{
									"destination" : [ "obj-8", 0 ],
									"midpoints" : [ 326.5, 456.0, 29.5, 456.0 ],
									"source" : [ "obj-10", 0 ]
								}

							}
, 							{
								"patchline" : 								{
									"destination" : [ "obj-7", 0 ],
									"source" : [ "obj-2", 0 ]
								}

							}
, 							{
								"patchline" : 								{
									"destination" : [ "obj-2", 0 ],
									"midpoints" : [ 103.5, 294.0, 29.5, 294.0 ],
									"source" : [ "obj-33", 0 ]
								}

							}
, 							{
								"patchline" : 								{
									"destination" : [ "obj-2", 0 ],
									"midpoints" : [ 54.5, 294.0, 29.5, 294.0 ],
									"source" : [ "obj-34", 0 ]
								}

							}
, 							{
								"patchline" : 								{
									"destination" : [ "obj-2", 0 ],
									"midpoints" : [ 29.5, 126.0, 29.5, 126.0 ],
									"source" : [ "obj-36", 0 ]
								}

							}
, 							{
								"patchline" : 								{
									"destination" : [ "obj-2", 0 ],
									"midpoints" : [ 153.0, 294.0, 29.5, 294.0 ],
									"source" : [ "obj-42", 0 ]
								}

							}
, 							{
								"patchline" : 								{
									"destination" : [ "obj-2", 0 ],
									"midpoints" : [ 129.5, 294.0, 29.5, 294.0 ],
									"source" : [ "obj-43", 0 ]
								}

							}
, 							{
								"patchline" : 								{
									"destination" : [ "obj-10", 0 ],
									"source" : [ "obj-44", 0 ]
								}

							}
, 							{
								"patchline" : 								{
									"destination" : [ "obj-8", 0 ],
									"midpoints" : [ 29.5, 393.0, 29.5, 393.0 ],
									"source" : [ "obj-7", 0 ]
								}

							}
 ],
						"styles" : [ 							{
								"name" : "max6box",
								"default" : 								{
									"accentcolor" : [ 0.8, 0.839216, 0.709804, 1.0 ],
									"bgcolor" : [ 1.0, 1.0, 1.0, 0.5 ],
									"textcolor_inverse" : [ 0.0, 0.0, 0.0, 1.0 ]
								}
,
								"parentstyle" : "",
								"multi" : 0
							}
, 							{
								"name" : "max6inlet",
								"default" : 								{
									"color" : [ 0.423529, 0.372549, 0.27451, 1.0 ]
								}
,
								"parentstyle" : "",
								"multi" : 0
							}
, 							{
								"name" : "max6message",
								"default" : 								{
									"bgfillcolor" : 									{
										"angle" : 270.0,
										"autogradient" : 0,
										"color" : [ 0.290196, 0.309804, 0.301961, 1.0 ],
										"color1" : [ 0.866667, 0.866667, 0.866667, 1.0 ],
										"color2" : [ 0.788235, 0.788235, 0.788235, 1.0 ],
										"proportion" : 0.39,
										"type" : "gradient"
									}
,
									"textcolor_inverse" : [ 0.0, 0.0, 0.0, 1.0 ]
								}
,
								"parentstyle" : "max6box",
								"multi" : 0
							}
, 							{
								"name" : "max6outlet",
								"default" : 								{
									"color" : [ 0.0, 0.454902, 0.498039, 1.0 ]
								}
,
								"parentstyle" : "",
								"multi" : 0
							}
 ]
					}
,
					"patching_rect" : [ 190.0, 172.0, 148.0, 23.0 ],
					"saved_object_attributes" : 					{
						"description" : "",
						"digest" : "",
						"fontsize" : 13.0,
						"globalpatchername" : "",
						"tags" : ""
					}
,
					"text" : "p \"looking ahead / back\""
				}

			}
, 			{
				"box" : 				{
					"id" : "obj-2",
					"maxclass" : "newobj",
					"numinlets" : 0,
					"numoutlets" : 0,
					"patcher" : 					{
						"fileversion" : 1,
						"appversion" : 						{
							"major" : 8,
							"minor" : 3,
							"revision" : 0,
							"architecture" : "x64",
							"modernui" : 1
						}
,
						"classnamespace" : "box",
						"rect" : [ 35.0, 114.0, 841.0, 662.0 ],
						"bglocked" : 0,
						"openinpresentation" : 0,
						"default_fontsize" : 13.0,
						"default_fontface" : 0,
						"default_fontname" : "Arial",
						"gridonopen" : 2,
						"gridsize" : [ 10.0, 10.0 ],
						"gridsnaponopen" : 2,
						"objectsnaponopen" : 1,
						"statusbarvisible" : 2,
						"toolbarvisible" : 1,
						"lefttoolbarpinned" : 0,
						"toptoolbarpinned" : 0,
						"righttoolbarpinned" : 0,
						"bottomtoolbarpinned" : 0,
						"toolbars_unpinned_last_save" : 0,
						"tallnewobj" : 0,
						"boxanimatetime" : 200,
						"enablehscroll" : 1,
						"enablevscroll" : 1,
						"devicewidth" : 0.0,
						"description" : "",
						"digest" : "",
						"tags" : "",
						"style" : "",
						"subpatcher_template" : "",
						"showontab" : 1,
						"assistshowspatchername" : 0,
						"boxes" : [ 							{
								"box" : 								{
									"border" : 0,
									"filename" : "helpargs.js",
									"id" : "obj-4",
									"ignoreclick" : 1,
									"jsarguments" : [ "fluid.bufampgate~" ],
									"maxclass" : "jsui",
									"numinlets" : 1,
									"numoutlets" : 1,
									"outlettype" : [ "" ],
									"parameter_enable" : 0,
									"patching_rect" : [ 240.0, 326.0, 187.454010009765625, 39.0 ]
								}

							}
, 							{
								"box" : 								{
									"args" : [ "ampgate" ],
									"bgmode" : 0,
									"border" : 0,
									"clickthrough" : 0,
									"enablehscroll" : 0,
									"enablevscroll" : 0,
									"id" : "obj-8",
									"lockeddragscroll" : 0,
									"lockedsize" : 0,
									"maxclass" : "bpatcher",
									"name" : "fluid.learn.maxpat",
									"numinlets" : 0,
									"numoutlets" : 0,
									"offset" : [ 0.0, 0.0 ],
									"patching_rect" : [ 532.0, 10.0, 242.0, 119.0 ],
									"viewvisibility" : 1
								}

							}
, 							{
								"box" : 								{
									"bgcolor" : [ 1.0, 0.788235, 0.470588, 1.0 ],
									"fontname" : "Arial Bold",
									"hint" : "",
									"id" : "obj-46",
									"ignoreclick" : 1,
									"legacytextcolor" : 1,
									"maxclass" : "textbutton",
									"numinlets" : 1,
									"numoutlets" : 3,
									"outlettype" : [ "", "", "int" ],
									"parameter_enable" : 0,
									"patching_rect" : [ 623.5, 410.0, 20.0, 20.0 ],
									"rounded" : 60.0,
									"text" : "3",
									"textcolor" : [ 0.34902, 0.34902, 0.34902, 1.0 ]
								}

							}
, 							{
								"box" : 								{
									"bubble" : 1,
									"id" : "obj-47",
									"maxclass" : "comment",
									"numinlets" : 1,
									"numoutlets" : 0,
									"patching_rect" : [ 542.0, 407.5, 75.0, 25.0 ],
									"text" : "audio on"
								}

							}
, 							{
								"box" : 								{
									"bgcolor" : [ 1.0, 0.788235, 0.470588, 1.0 ],
									"fontname" : "Arial Bold",
									"hint" : "",
									"id" : "obj-44",
									"ignoreclick" : 1,
									"legacytextcolor" : 1,
									"maxclass" : "textbutton",
									"numinlets" : 1,
									"numoutlets" : 3,
									"outlettype" : [ "", "", "int" ],
									"parameter_enable" : 0,
									"patching_rect" : [ 727.0, 242.5, 20.0, 20.0 ],
									"rounded" : 60.0,
									"text" : "4",
									"textcolor" : [ 0.34902, 0.34902, 0.34902, 1.0 ]
								}

							}
, 							{
								"box" : 								{
									"bubble" : 1,
									"id" : "obj-45",
									"maxclass" : "comment",
									"numinlets" : 1,
									"numoutlets" : 0,
									"patching_rect" : [ 542.0, 240.0, 183.0, 25.0 ],
									"text" : "play back onset/offset pairs"
								}

							}
, 							{
								"box" : 								{
									"id" : "obj-38",
									"linecount" : 7,
									"maxclass" : "comment",
									"numinlets" : 1,
									"numoutlets" : 0,
									"patching_rect" : [ 279.0, 500.0, 150.0, 108.0 ],
									"text" : "Unlike other slices the output is two channels:\n\nOne for the times of on states and one for the times of off stats of the gate.",
									"textcolor" : [ 0.501960784313725, 0.501960784313725, 0.501960784313725, 1.0 ]
								}

							}
, 							{
								"box" : 								{
									"bgcolor" : [ 1.0, 0.788235, 0.470588, 1.0 ],
									"fontname" : "Arial Bold",
									"hint" : "",
									"id" : "obj-36",
									"ignoreclick" : 1,
									"legacytextcolor" : 1,
									"maxclass" : "textbutton",
									"numinlets" : 1,
									"numoutlets" : 3,
									"outlettype" : [ "", "", "int" ],
									"parameter_enable" : 0,
									"patching_rect" : [ 213.0, 232.5, 20.0, 20.0 ],
									"rounded" : 60.0,
									"text" : "1",
									"textcolor" : [ 0.34902, 0.34902, 0.34902, 1.0 ]
								}

							}
, 							{
								"box" : 								{
									"bubble" : 1,
									"id" : "obj-34",
									"maxclass" : "comment",
									"numinlets" : 1,
									"numoutlets" : 0,
									"patching_rect" : [ 93.5, 230.0, 116.0, 25.0 ],
									"text" : "slice the source"
								}

							}
, 							{
								"box" : 								{
									"format" : 6,
									"id" : "obj-27",
									"maxclass" : "flonum",
									"numinlets" : 1,
									"numoutlets" : 2,
									"outlettype" : [ "", "bang" ],
									"parameter_enable" : 0,
									"patching_rect" : [ 225.0, 539.0, 50.0, 23.0 ]
								}

							}
, 							{
								"box" : 								{
									"id" : "obj-25",
									"maxclass" : "button",
									"numinlets" : 1,
									"numoutlets" : 1,
									"outlettype" : [ "bang" ],
									"parameter_enable" : 0,
									"patching_rect" : [ 70.0, 460.0, 24.0, 24.0 ]
								}

							}
, 							{
								"box" : 								{
									"color" : [ 0.423529411764706, 0.513725490196078, 1.0, 1.0 ],
									"id" : "obj-23",
									"maxclass" : "newobj",
									"numinlets" : 1,
									"numoutlets" : 9,
									"outlettype" : [ "float", "list", "float", "float", "float", "float", "float", "", "int" ],
									"patching_rect" : [ 70.0, 500.0, 174.0, 23.0 ],
									"text" : "info~ help.ampgate.indices.1"
								}

							}
, 							{
								"box" : 								{
									"fontsize" : 13.0,
									"id" : "obj-18",
									"maxclass" : "newobj",
									"numinlets" : 1,
									"numoutlets" : 1,
									"outlettype" : [ "signal" ],
									"patcher" : 									{
										"fileversion" : 1,
										"appversion" : 										{
											"major" : 8,
											"minor" : 3,
											"revision" : 0,
											"architecture" : "x64",
											"modernui" : 1
										}
,
										"classnamespace" : "box",
										"rect" : [ 754.0, 88.0, 526.0, 514.0 ],
										"bglocked" : 0,
										"openinpresentation" : 0,
										"default_fontsize" : 12.0,
										"default_fontface" : 0,
										"default_fontname" : "Arial",
										"gridonopen" : 1,
										"gridsize" : [ 15.0, 15.0 ],
										"gridsnaponopen" : 1,
										"objectsnaponopen" : 1,
										"statusbarvisible" : 2,
										"toolbarvisible" : 1,
										"lefttoolbarpinned" : 0,
										"toptoolbarpinned" : 0,
										"righttoolbarpinned" : 0,
										"bottomtoolbarpinned" : 0,
										"toolbars_unpinned_last_save" : 0,
										"tallnewobj" : 0,
										"boxanimatetime" : 200,
										"enablehscroll" : 1,
										"enablevscroll" : 1,
										"devicewidth" : 0.0,
										"description" : "",
										"digest" : "",
										"tags" : "",
										"style" : "",
										"subpatcher_template" : "",
										"assistshowspatchername" : 0,
										"boxes" : [ 											{
												"box" : 												{
													"id" : "obj-17",
													"maxclass" : "newobj",
													"numinlets" : 1,
													"numoutlets" : 1,
													"outlettype" : [ "" ],
													"patching_rect" : [ 15.0, 397.0, 79.0, 22.0 ],
													"text" : "prepend start"
												}

											}
, 											{
												"box" : 												{
													"id" : "obj-10",
													"maxclass" : "newobj",
													"numinlets" : 1,
													"numoutlets" : 2,
													"outlettype" : [ "", "" ],
													"patching_rect" : [ 15.0, 282.0, 38.5, 22.0 ],
													"text" : "t l l"
												}

											}
, 											{
												"box" : 												{
													"id" : "obj-9",
													"maxclass" : "newobj",
													"numinlets" : 2,
													"numoutlets" : 1,
													"outlettype" : [ "float" ],
													"patching_rect" : [ 34.5, 318.0, 29.5, 22.0 ],
													"text" : "!- 0."
												}

											}
, 											{
												"box" : 												{
													"id" : "obj-7",
													"maxclass" : "newobj",
													"numinlets" : 2,
													"numoutlets" : 1,
													"outlettype" : [ "" ],
													"patching_rect" : [ 15.0, 353.0, 39.0, 22.0 ],
													"text" : "join"
												}

											}
, 											{
												"box" : 												{
													"id" : "obj-4",
													"maxclass" : "newobj",
													"numinlets" : 2,
													"numoutlets" : 1,
													"outlettype" : [ "" ],
													"patching_rect" : [ 15.0, 246.0, 189.0, 22.0 ],
													"text" : "join"
												}

											}
, 											{
												"box" : 												{
													"id" : "obj-16",
													"maxclass" : "newobj",
													"numinlets" : 2,
													"numoutlets" : 1,
													"outlettype" : [ "" ],
													"patching_rect" : [ 185.0, 206.0, 125.0, 22.0 ],
													"text" : "expr ($f1 / $f2) * 1000"
												}

											}
, 											{
												"box" : 												{
													"id" : "obj-13",
													"maxclass" : "newobj",
													"numinlets" : 3,
													"numoutlets" : 1,
													"outlettype" : [ "float" ],
													"patching_rect" : [ 185.0, 141.0, 178.0, 22.0 ],
													"text" : "peek~ help.ampgate.indices.1 2"
												}

											}
, 											{
												"box" : 												{
													"id" : "obj-8",
													"maxclass" : "button",
													"numinlets" : 1,
													"numoutlets" : 1,
													"outlettype" : [ "bang" ],
													"parameter_enable" : 0,
													"patching_rect" : [ 370.0, 110.0, 24.0, 24.0 ]
												}

											}
, 											{
												"box" : 												{
													"id" : "obj-6",
													"maxclass" : "newobj",
													"numinlets" : 2,
													"numoutlets" : 1,
													"outlettype" : [ "" ],
													"patching_rect" : [ 15.0, 206.0, 125.0, 22.0 ],
													"text" : "expr ($f1 / $f2) * 1000"
												}

											}
, 											{
												"box" : 												{
													"id" : "obj-5",
													"maxclass" : "newobj",
													"numinlets" : 1,
													"numoutlets" : 9,
													"outlettype" : [ "float", "list", "float", "float", "float", "float", "float", "", "int" ],
													"patching_rect" : [ 370.0, 141.0, 140.0, 22.0 ],
													"text" : "info~ help.ampgate.src.1"
												}

											}
, 											{
												"box" : 												{
													"id" : "obj-2",
													"maxclass" : "newobj",
													"numinlets" : 1,
													"numoutlets" : 2,
													"outlettype" : [ "signal", "bang" ],
													"patching_rect" : [ 15.0, 439.0, 143.0, 22.0 ],
													"text" : "play~ help.ampgate.src.1"
												}

											}
, 											{
												"box" : 												{
													"comment" : "",
													"id" : "obj-1",
													"index" : 1,
													"maxclass" : "outlet",
													"numinlets" : 1,
													"numoutlets" : 0,
													"patching_rect" : [ 15.0, 476.0, 30.0, 30.0 ]
												}

											}
, 											{
												"box" : 												{
													"id" : "obj-15",
													"maxclass" : "newobj",
													"numinlets" : 2,
													"numoutlets" : 1,
													"outlettype" : [ "int" ],
													"patching_rect" : [ 185.0, 110.0, 29.5, 22.0 ],
													"text" : "+ 1"
												}

											}
, 											{
												"box" : 												{
													"id" : "obj-14",
													"maxclass" : "newobj",
													"numinlets" : 1,
													"numoutlets" : 3,
													"outlettype" : [ "int", "int", "bang" ],
													"patching_rect" : [ 15.0, 61.0, 40.0, 22.0 ],
													"text" : "t i i b"
												}

											}
, 											{
												"box" : 												{
													"id" : "obj-3",
													"maxclass" : "newobj",
													"numinlets" : 3,
													"numoutlets" : 1,
													"outlettype" : [ "float" ],
													"patching_rect" : [ 15.0, 141.0, 168.0, 22.0 ],
													"text" : "peek~ help.ampgate.indices.1"
												}

											}
, 											{
												"box" : 												{
													"comment" : "",
													"id" : "obj-27",
													"index" : 1,
													"maxclass" : "inlet",
													"numinlets" : 0,
													"numoutlets" : 1,
													"outlettype" : [ "" ],
													"patching_rect" : [ 15.0, 17.0, 30.0, 30.0 ]
												}

											}
 ],
										"lines" : [ 											{
												"patchline" : 												{
													"destination" : [ "obj-7", 0 ],
													"midpoints" : [ 24.5, 307.0, 24.5, 307.0 ],
													"source" : [ "obj-10", 0 ]
												}

											}
, 											{
												"patchline" : 												{
													"destination" : [ "obj-9", 0 ],
													"midpoints" : [ 44.0, 307.0, 44.0, 307.0 ],
													"source" : [ "obj-10", 1 ]
												}

											}
, 											{
												"patchline" : 												{
													"destination" : [ "obj-16", 0 ],
													"midpoints" : [ 194.5, 192.0, 194.5, 192.0 ],
													"source" : [ "obj-13", 0 ]
												}

											}
, 											{
												"patchline" : 												{
													"destination" : [ "obj-15", 0 ],
													"midpoints" : [ 35.0, 96.0, 194.5, 96.0 ],
													"source" : [ "obj-14", 1 ]
												}

											}
, 											{
												"patchline" : 												{
													"destination" : [ "obj-3", 0 ],
													"midpoints" : [ 24.5, 84.0, 24.5, 84.0 ],
													"source" : [ "obj-14", 0 ]
												}

											}
, 											{
												"patchline" : 												{
													"destination" : [ "obj-8", 0 ],
													"midpoints" : [ 45.5, 96.0, 379.5, 96.0 ],
													"source" : [ "obj-14", 2 ]
												}

											}
, 											{
												"patchline" : 												{
													"destination" : [ "obj-13", 0 ],
													"midpoints" : [ 194.5, 135.0, 194.5, 135.0 ],
													"source" : [ "obj-15", 0 ]
												}

											}
, 											{
												"patchline" : 												{
													"destination" : [ "obj-4", 1 ],
													"midpoints" : [ 194.5, 229.0, 194.5, 229.0 ],
													"source" : [ "obj-16", 0 ]
												}

											}
, 											{
												"patchline" : 												{
													"destination" : [ "obj-2", 0 ],
													"midpoints" : [ 24.5, 421.0, 24.5, 421.0 ],
													"source" : [ "obj-17", 0 ]
												}

											}
, 											{
												"patchline" : 												{
													"destination" : [ "obj-1", 0 ],
													"midpoints" : [ 24.5, 463.0, 24.5, 463.0 ],
													"source" : [ "obj-2", 0 ]
												}

											}
, 											{
												"patchline" : 												{
													"destination" : [ "obj-14", 0 ],
													"midpoints" : [ 24.5, 48.0, 24.5, 48.0 ],
													"source" : [ "obj-27", 0 ]
												}

											}
, 											{
												"patchline" : 												{
													"destination" : [ "obj-6", 0 ],
													"midpoints" : [ 24.5, 165.0, 24.5, 165.0 ],
													"source" : [ "obj-3", 0 ]
												}

											}
, 											{
												"patchline" : 												{
													"destination" : [ "obj-10", 0 ],
													"midpoints" : [ 24.5, 271.0, 24.5, 271.0 ],
													"source" : [ "obj-4", 0 ]
												}

											}
, 											{
												"patchline" : 												{
													"destination" : [ "obj-16", 1 ],
													"midpoints" : [ 379.5, 192.0, 300.5, 192.0 ],
													"order" : 0,
													"source" : [ "obj-5", 0 ]
												}

											}
, 											{
												"patchline" : 												{
													"destination" : [ "obj-6", 1 ],
													"midpoints" : [ 379.5, 192.0, 130.5, 192.0 ],
													"order" : 1,
													"source" : [ "obj-5", 0 ]
												}

											}
, 											{
												"patchline" : 												{
													"destination" : [ "obj-4", 0 ],
													"midpoints" : [ 24.5, 229.0, 24.5, 229.0 ],
													"source" : [ "obj-6", 0 ]
												}

											}
, 											{
												"patchline" : 												{
													"destination" : [ "obj-17", 0 ],
													"midpoints" : [ 24.5, 376.0, 24.5, 376.0 ],
													"source" : [ "obj-7", 0 ]
												}

											}
, 											{
												"patchline" : 												{
													"destination" : [ "obj-5", 0 ],
													"midpoints" : [ 379.5, 135.0, 379.5, 135.0 ],
													"source" : [ "obj-8", 0 ]
												}

											}
, 											{
												"patchline" : 												{
													"destination" : [ "obj-7", 1 ],
													"midpoints" : [ 44.0, 343.0, 44.5, 343.0 ],
													"source" : [ "obj-9", 0 ]
												}

											}
 ]
									}
,
									"patching_rect" : [ 490.0, 280.0, 104.0, 23.0 ],
									"saved_object_attributes" : 									{
										"description" : "",
										"digest" : "",
										"globalpatchername" : "",
										"tags" : ""
									}
,
									"text" : "p \"extract slices\""
								}

							}
, 							{
								"box" : 								{
									"id" : "obj-15",
									"local" : 1,
									"maxclass" : "ezdac~",
									"numinlets" : 2,
									"numoutlets" : 0,
									"patching_rect" : [ 490.0, 396.0, 45.0, 45.0 ]
								}

							}
, 							{
								"box" : 								{
									"id" : "obj-14",
									"lastchannelcount" : 0,
									"maxclass" : "live.gain~",
									"numinlets" : 2,
									"numoutlets" : 5,
									"orientation" : 1,
									"outlettype" : [ "signal", "signal", "", "float", "list" ],
									"parameter_enable" : 1,
									"patching_rect" : [ 490.0, 326.0, 147.0, 47.0 ],
									"saved_attribute_attributes" : 									{
										"valueof" : 										{
											"parameter_longname" : "live.gain~",
											"parameter_mmax" : 6.0,
											"parameter_mmin" : -70.0,
											"parameter_shortname" : "slice playback",
											"parameter_type" : 0,
											"parameter_unitstyle" : 4
										}

									}
,
									"varname" : "live.gain~"
								}

							}
, 							{
								"box" : 								{
									"id" : "obj-59",
									"maxclass" : "number",
									"numinlets" : 1,
									"numoutlets" : 2,
									"outlettype" : [ "", "bang" ],
									"parameter_enable" : 0,
									"patching_rect" : [ 490.0, 240.0, 50.0, 23.0 ]
								}

							}
, 							{
								"box" : 								{
									"color" : [ 0.423529411764706, 0.513725490196078, 1.0, 1.0 ],
									"id" : "obj-7",
									"maxclass" : "newobj",
									"numinlets" : 1,
									"numoutlets" : 2,
									"outlettype" : [ "float", "bang" ],
									"patching_rect" : [ 70.0, 580.0, 186.0, 23.0 ],
									"text" : "buffer~ help.ampgate.indices.1"
								}

							}
, 							{
								"box" : 								{
									"id" : "obj-6",
									"maxclass" : "button",
									"numinlets" : 1,
									"numoutlets" : 1,
									"outlettype" : [ "bang" ],
									"parameter_enable" : 0,
									"patching_rect" : [ 70.0, 230.0, 24.0, 24.0 ]
								}

							}
, 							{
								"box" : 								{
									"color" : [ 0.423529411764706, 0.513725490196078, 1.0, 1.0 ],
									"id" : "obj-3",
									"linecount" : 11,
									"maxclass" : "newobj",
									"numinlets" : 1,
									"numoutlets" : 2,
									"outlettype" : [ "", "" ],
									"patching_rect" : [ 70.0, 270.0, 158.0, 168.0 ],
									"text" : "fluid.bufampgate~ @source help.ampgate.src.1 @indices help.ampgate.indices.1 @rampup 110 @rampdown 2205 @onthreshold -40 @offthreshold -41 @minsilencelength 1100 @lookback 441"
								}

							}
, 							{
								"box" : 								{
									"args" : [ "@file", "Constanzo-PreparedSnare-M.wav" ],
									"bgmode" : 0,
									"border" : 0,
									"clickthrough" : 0,
									"enablehscroll" : 0,
									"enablevscroll" : 0,
									"id" : "obj-2",
									"lockeddragscroll" : 0,
									"lockedsize" : 0,
									"maxclass" : "bpatcher",
									"name" : "fluid.bufloader.maxpat",
									"numinlets" : 0,
									"numoutlets" : 1,
									"offset" : [ 0.0, 0.0 ],
									"outlettype" : [ "" ],
									"patching_rect" : [ 70.0, 150.0, 290.0, 28.0 ],
									"viewvisibility" : 1
								}

							}
, 							{
								"box" : 								{
									"id" : "obj-1",
									"maxclass" : "newobj",
									"numinlets" : 1,
									"numoutlets" : 2,
									"outlettype" : [ "float", "bang" ],
									"patching_rect" : [ 70.0, 190.0, 163.0, 23.0 ],
									"text" : "buffer~ help.ampgate.src.1"
								}

							}
, 							{
								"box" : 								{
									"background" : 1,
									"border" : 0,
									"filename" : "helpdetails.js",
									"id" : "obj-5",
									"ignoreclick" : 1,
									"jsarguments" : [ "fluid.bufampgate~" ],
									"maxclass" : "jsui",
									"numinlets" : 1,
									"numoutlets" : 1,
									"outlettype" : [ "" ],
									"parameter_enable" : 0,
									"patching_rect" : [ 10.0, 10.0, 520.0, 119.0 ]
								}

							}
 ],
						"lines" : [ 							{
								"patchline" : 								{
									"destination" : [ "obj-15", 1 ],
									"order" : 0,
									"source" : [ "obj-14", 0 ]
								}

							}
, 							{
								"patchline" : 								{
									"destination" : [ "obj-15", 0 ],
									"order" : 1,
									"source" : [ "obj-14", 0 ]
								}

							}
, 							{
								"patchline" : 								{
									"destination" : [ "obj-14", 0 ],
									"source" : [ "obj-18", 0 ]
								}

							}
, 							{
								"patchline" : 								{
									"destination" : [ "obj-1", 0 ],
									"source" : [ "obj-2", 0 ]
								}

							}
, 							{
								"patchline" : 								{
									"destination" : [ "obj-27", 0 ],
									"source" : [ "obj-23", 8 ]
								}

							}
, 							{
								"patchline" : 								{
									"destination" : [ "obj-23", 0 ],
									"source" : [ "obj-25", 0 ]
								}

							}
, 							{
								"patchline" : 								{
									"destination" : [ "obj-25", 0 ],
									"source" : [ "obj-3", 0 ]
								}

							}
, 							{
								"patchline" : 								{
									"destination" : [ "obj-18", 0 ],
									"source" : [ "obj-59", 0 ]
								}

							}
, 							{
								"patchline" : 								{
									"destination" : [ "obj-3", 0 ],
									"source" : [ "obj-6", 0 ]
								}

							}
 ],
						"styles" : [ 							{
								"name" : "max6box",
								"default" : 								{
									"accentcolor" : [ 0.8, 0.839216, 0.709804, 1.0 ],
									"bgcolor" : [ 1.0, 1.0, 1.0, 0.5 ],
									"textcolor_inverse" : [ 0.0, 0.0, 0.0, 1.0 ]
								}
,
								"parentstyle" : "",
								"multi" : 0
							}
, 							{
								"name" : "max6inlet",
								"default" : 								{
									"color" : [ 0.423529, 0.372549, 0.27451, 1.0 ]
								}
,
								"parentstyle" : "",
								"multi" : 0
							}
, 							{
								"name" : "max6message",
								"default" : 								{
									"bgfillcolor" : 									{
										"angle" : 270.0,
										"autogradient" : 0,
										"color" : [ 0.290196, 0.309804, 0.301961, 1.0 ],
										"color1" : [ 0.866667, 0.866667, 0.866667, 1.0 ],
										"color2" : [ 0.788235, 0.788235, 0.788235, 1.0 ],
										"proportion" : 0.39,
										"type" : "gradient"
									}
,
									"textcolor_inverse" : [ 0.0, 0.0, 0.0, 1.0 ]
								}
,
								"parentstyle" : "max6box",
								"multi" : 0
							}
, 							{
								"name" : "max6outlet",
								"default" : 								{
									"color" : [ 0.0, 0.454902, 0.498039, 1.0 ]
								}
,
								"parentstyle" : "",
								"multi" : 0
							}
 ]
					}
,
					"patching_rect" : [ 15.0, 84.0, 50.0, 23.0 ],
					"saved_object_attributes" : 					{
						"description" : "",
						"digest" : "",
						"fontsize" : 13.0,
						"globalpatchername" : "",
						"tags" : ""
					}
,
					"text" : "p basic",
					"varname" : "basic_tab"
				}

			}
, 			{
				"box" : 				{
					"id" : "obj-1",
					"maxclass" : "newobj",
					"numinlets" : 0,
					"numoutlets" : 0,
					"patcher" : 					{
						"fileversion" : 1,
						"appversion" : 						{
							"major" : 8,
							"minor" : 3,
							"revision" : 0,
							"architecture" : "x64",
							"modernui" : 1
						}
,
						"classnamespace" : "box",
						"rect" : [ 0.0, 26.0, 841.0, 662.0 ],
						"bglocked" : 0,
						"openinpresentation" : 0,
						"default_fontsize" : 13.0,
						"default_fontface" : 0,
						"default_fontname" : "Arial",
						"gridonopen" : 2,
						"gridsize" : [ 10.0, 10.0 ],
						"gridsnaponopen" : 2,
						"objectsnaponopen" : 1,
						"statusbarvisible" : 2,
						"toolbarvisible" : 1,
						"lefttoolbarpinned" : 0,
						"toptoolbarpinned" : 0,
						"righttoolbarpinned" : 0,
						"bottomtoolbarpinned" : 0,
						"toolbars_unpinned_last_save" : 0,
						"tallnewobj" : 0,
						"boxanimatetime" : 200,
						"enablehscroll" : 1,
						"enablevscroll" : 1,
						"devicewidth" : 0.0,
						"description" : "",
						"digest" : "",
						"tags" : "",
						"style" : "",
						"subpatcher_template" : "",
						"showontab" : 1,
						"assistshowspatchername" : 0,
						"boxes" : [ 							{
								"box" : 								{
									"bgcolor" : [ 1.0, 0.788235, 0.470588, 1.0 ],
									"fontname" : "Arial Bold",
									"hint" : "",
									"id" : "obj-64",
									"ignoreclick" : 1,
									"legacytextcolor" : 1,
									"maxclass" : "textbutton",
									"numinlets" : 1,
									"numoutlets" : 3,
									"outlettype" : [ "", "", "int" ],
									"parameter_enable" : 0,
									"patching_rect" : [ 570.0, 522.5, 20.0, 20.0 ],
									"rounded" : 60.0,
									"text" : "2",
									"textcolor" : [ 0.34902, 0.34902, 0.34902, 1.0 ]
								}

							}
, 							{
								"box" : 								{
									"bubble" : 1,
									"id" : "obj-65",
									"maxclass" : "comment",
									"numinlets" : 1,
									"numoutlets" : 0,
									"patching_rect" : [ 489.5, 520.0, 75.0, 25.0 ],
									"text" : "audio on"
								}

							}
, 							{
								"box" : 								{
									"bgcolor" : [ 1.0, 0.788235, 0.470588, 1.0 ],
									"fontname" : "Arial Bold",
									"hint" : "",
									"id" : "obj-62",
									"ignoreclick" : 1,
									"legacytextcolor" : 1,
									"maxclass" : "textbutton",
									"numinlets" : 1,
									"numoutlets" : 3,
									"outlettype" : [ "", "", "int" ],
									"parameter_enable" : 0,
									"patching_rect" : [ 745.0, 382.5, 20.0, 20.0 ],
									"rounded" : 60.0,
									"text" : "3",
									"textcolor" : [ 0.34902, 0.34902, 0.34902, 1.0 ]
								}

							}
, 							{
								"box" : 								{
									"bubble" : 1,
									"id" : "obj-63",
									"maxclass" : "comment",
									"numinlets" : 1,
									"numoutlets" : 0,
									"patching_rect" : [ 476.0, 380.0, 267.0, 25.0 ],
									"text" : "play source and silence removed together"
								}

							}
, 							{
								"box" : 								{
									"bgcolor" : [ 1.0, 0.788235, 0.470588, 1.0 ],
									"fontname" : "Arial Bold",
									"hint" : "",
									"id" : "obj-25",
									"ignoreclick" : 1,
									"legacytextcolor" : 1,
									"maxclass" : "textbutton",
									"numinlets" : 1,
									"numoutlets" : 3,
									"outlettype" : [ "", "", "int" ],
									"parameter_enable" : 0,
									"patching_rect" : [ 211.0, 252.5, 20.0, 20.0 ],
									"rounded" : 60.0,
									"text" : "1",
									"textcolor" : [ 0.34902, 0.34902, 0.34902, 1.0 ]
								}

							}
, 							{
								"box" : 								{
									"id" : "obj-60",
									"maxclass" : "comment",
									"numinlets" : 1,
									"numoutlets" : 0,
									"patching_rect" : [ 10.0, 69.599853515625, 333.0, 21.0 ],
									"text" : "Removing silences using bufampgates onset offset pairs",
									"textcolor" : [ 0.501960784313725, 0.501960784313725, 0.501960784313725, 1.0 ]
								}

							}
, 							{
								"box" : 								{
									"bubble" : 1,
									"id" : "obj-58",
									"maxclass" : "comment",
									"numinlets" : 1,
									"numoutlets" : 0,
									"patching_rect" : [ 56.0, 250.0, 153.0, 25.0 ],
									"text" : "slice trombone source"
								}

							}
, 							{
								"box" : 								{
									"id" : "obj-56",
									"linecount" : 3,
									"maxclass" : "comment",
									"numinlets" : 1,
									"numoutlets" : 0,
									"patching_rect" : [ 701.0, 470.0, 90.0, 50.0 ],
									"text" : "no silences on the right channel",
									"textcolor" : [ 0.501960784313725, 0.501960784313725, 0.501960784313725, 1.0 ]
								}

							}
, 							{
								"box" : 								{
									"id" : "obj-54",
									"local" : 1,
									"maxclass" : "ezdac~",
									"numinlets" : 2,
									"numoutlets" : 0,
									"patching_rect" : [ 450.0, 510.0, 45.0, 45.0 ]
								}

							}
, 							{
								"box" : 								{
									"buffername" : "help.ampgate.nosilence",
									"id" : "obj-53",
									"maxclass" : "waveform~",
									"numinlets" : 5,
									"numoutlets" : 6,
									"outlettype" : [ "float", "float", "float", "float", "list", "" ],
									"patching_rect" : [ 30.0, 590.0, 440.0, 60.0 ]
								}

							}
, 							{
								"box" : 								{
									"id" : "obj-51",
									"maxclass" : "toggle",
									"numinlets" : 1,
									"numoutlets" : 1,
									"outlettype" : [ "int" ],
									"parameter_enable" : 0,
									"patching_rect" : [ 450.0, 380.0, 24.0, 24.0 ]
								}

							}
, 							{
								"box" : 								{
									"id" : "obj-52",
									"maxclass" : "newobj",
									"numinlets" : 1,
									"numoutlets" : 2,
									"outlettype" : [ "signal", "bang" ],
									"patching_rect" : [ 450.0, 440.0, 154.0, 23.0 ],
									"text" : "play~ help.ampgate.src.4"
								}

							}
, 							{
								"box" : 								{
									"id" : "obj-49",
									"maxclass" : "newobj",
									"numinlets" : 1,
									"numoutlets" : 1,
									"outlettype" : [ "bang" ],
									"patcher" : 									{
										"fileversion" : 1,
										"appversion" : 										{
											"major" : 8,
											"minor" : 3,
											"revision" : 0,
											"architecture" : "x64",
											"modernui" : 1
										}
,
										"classnamespace" : "box",
										"rect" : [ 84.0, 131.0, 625.0, 289.0 ],
										"bglocked" : 0,
										"openinpresentation" : 0,
										"default_fontsize" : 12.0,
										"default_fontface" : 0,
										"default_fontname" : "Arial",
										"gridonopen" : 1,
										"gridsize" : [ 15.0, 15.0 ],
										"gridsnaponopen" : 1,
										"objectsnaponopen" : 1,
										"statusbarvisible" : 2,
										"toolbarvisible" : 1,
										"lefttoolbarpinned" : 0,
										"toptoolbarpinned" : 0,
										"righttoolbarpinned" : 0,
										"bottomtoolbarpinned" : 0,
										"toolbars_unpinned_last_save" : 0,
										"tallnewobj" : 0,
										"boxanimatetime" : 200,
										"enablehscroll" : 1,
										"enablevscroll" : 1,
										"devicewidth" : 0.0,
										"description" : "",
										"digest" : "",
										"tags" : "",
										"style" : "",
										"subpatcher_template" : "",
										"assistshowspatchername" : 0,
										"boxes" : [ 											{
												"box" : 												{
													"id" : "obj-37",
													"maxclass" : "message",
													"numinlets" : 2,
													"numoutlets" : 1,
													"outlettype" : [ "" ],
													"patching_rect" : [ 308.0, 141.0, 110.0, 22.0 ],
													"text" : "deststartframe $1"
												}

											}
, 											{
												"box" : 												{
													"id" : "obj-35",
													"maxclass" : "newobj",
													"numinlets" : 1,
													"numoutlets" : 3,
													"outlettype" : [ "", "", "" ],
													"patching_rect" : [ 308.0, 101.0, 145.0, 22.0 ],
													"text" : "getattr samps @listen 0"
												}

											}
, 											{
												"box" : 												{
													"id" : "obj-34",
													"maxclass" : "newobj",
													"numinlets" : 1,
													"numoutlets" : 2,
													"outlettype" : [ "float", "bang" ],
													"patching_rect" : [ 420.0, 141.0, 190.0, 22.0 ],
													"text" : "buffer~ help.ampgate.nosilence"
												}

											}
, 											{
												"box" : 												{
													"id" : "obj-29",
													"maxclass" : "newobj",
													"numinlets" : 1,
													"numoutlets" : 4,
													"outlettype" : [ "bang", "", "", "bang" ],
													"patching_rect" : [ 11.0, 55.0, 316.0, 22.0 ],
													"text" : "t b l l b"
												}

											}
, 											{
												"box" : 												{
													"id" : "obj-26",
													"maxclass" : "message",
													"numinlets" : 2,
													"numoutlets" : 1,
													"outlettype" : [ "" ],
													"patching_rect" : [ 110.0, 141.0, 85.0, 22.0 ],
													"text" : "startframe $1"
												}

											}
, 											{
												"box" : 												{
													"id" : "obj-24",
													"maxclass" : "message",
													"numinlets" : 2,
													"numoutlets" : 1,
													"outlettype" : [ "" ],
													"patching_rect" : [ 209.0, 141.0, 92.0, 22.0 ],
													"text" : "numframes $1"
												}

											}
, 											{
												"box" : 												{
													"id" : "obj-22",
													"maxclass" : "newobj",
													"numinlets" : 2,
													"numoutlets" : 1,
													"outlettype" : [ "float" ],
													"patching_rect" : [ 209.0, 101.0, 31.0, 22.0 ],
													"text" : "!- 0."
												}

											}
, 											{
												"box" : 												{
													"comment" : "",
													"id" : "obj-47",
													"index" : 1,
													"maxclass" : "inlet",
													"numinlets" : 0,
													"numoutlets" : 1,
													"outlettype" : [ "" ],
													"patching_rect" : [ 11.0, 11.0, 30.0, 30.0 ]
												}

											}
, 											{
												"box" : 												{
													"comment" : "",
													"id" : "obj-48",
													"index" : 1,
													"maxclass" : "outlet",
													"numinlets" : 1,
													"numoutlets" : 0,
													"patching_rect" : [ 11.0, 234.0, 30.0, 30.0 ]
												}

											}
 ],
										"lines" : [ 											{
												"patchline" : 												{
													"destination" : [ "obj-24", 0 ],
													"source" : [ "obj-22", 0 ]
												}

											}
, 											{
												"patchline" : 												{
													"destination" : [ "obj-48", 0 ],
													"midpoints" : [ 218.5, 219.0, 20.5, 219.0 ],
													"source" : [ "obj-24", 0 ]
												}

											}
, 											{
												"patchline" : 												{
													"destination" : [ "obj-48", 0 ],
													"midpoints" : [ 119.5, 219.0, 20.5, 219.0 ],
													"source" : [ "obj-26", 0 ]
												}

											}
, 											{
												"patchline" : 												{
													"destination" : [ "obj-22", 0 ],
													"source" : [ "obj-29", 2 ]
												}

											}
, 											{
												"patchline" : 												{
													"destination" : [ "obj-26", 0 ],
													"source" : [ "obj-29", 1 ]
												}

											}
, 											{
												"patchline" : 												{
													"destination" : [ "obj-35", 0 ],
													"source" : [ "obj-29", 3 ]
												}

											}
, 											{
												"patchline" : 												{
													"destination" : [ "obj-48", 0 ],
													"midpoints" : [ 20.5, 78.0, 20.5, 78.0 ],
													"source" : [ "obj-29", 0 ]
												}

											}
, 											{
												"patchline" : 												{
													"destination" : [ "obj-34", 0 ],
													"source" : [ "obj-35", 1 ]
												}

											}
, 											{
												"patchline" : 												{
													"destination" : [ "obj-37", 0 ],
													"source" : [ "obj-35", 0 ]
												}

											}
, 											{
												"patchline" : 												{
													"destination" : [ "obj-48", 0 ],
													"midpoints" : [ 317.5, 219.0, 20.5, 219.0 ],
													"source" : [ "obj-37", 0 ]
												}

											}
, 											{
												"patchline" : 												{
													"destination" : [ "obj-29", 0 ],
													"source" : [ "obj-47", 0 ]
												}

											}
 ]
									}
,
									"patching_rect" : [ 30.0, 470.0, 184.0, 23.0 ],
									"saved_object_attributes" : 									{
										"description" : "",
										"digest" : "",
										"globalpatchername" : "",
										"tags" : ""
									}
,
									"text" : "p \"copy onsets to offset slices\""
								}

							}
, 							{
								"box" : 								{
									"id" : "obj-41",
									"maxclass" : "newobj",
									"numinlets" : 1,
									"numoutlets" : 2,
									"outlettype" : [ "signal", "bang" ],
									"patching_rect" : [ 610.0, 440.0, 181.0, 23.0 ],
									"text" : "play~ help.ampgate.nosilence"
								}

							}
, 							{
								"box" : 								{
									"id" : "obj-40",
									"maxclass" : "message",
									"numinlets" : 2,
									"numoutlets" : 1,
									"outlettype" : [ "" ],
									"patching_rect" : [ 129.0, 390.0, 92.0, 23.0 ],
									"text" : "clear, samps 0"
								}

							}
, 							{
								"box" : 								{
									"id" : "obj-38",
									"maxclass" : "newobj",
									"numinlets" : 1,
									"numoutlets" : 2,
									"outlettype" : [ "float", "bang" ],
									"patching_rect" : [ 129.0, 430.0, 190.0, 23.0 ],
									"text" : "buffer~ help.ampgate.nosilence"
								}

							}
, 							{
								"box" : 								{
									"id" : "obj-18",
									"linecount" : 2,
									"maxclass" : "newobj",
									"numinlets" : 1,
									"numoutlets" : 2,
									"outlettype" : [ "", "" ],
									"patching_rect" : [ 30.0, 510.0, 289.0, 38.0 ],
									"text" : "fluid.bufcompose~ @source help.ampgate.src.4 @destination help.ampgate.nosilence"
								}

							}
, 							{
								"box" : 								{
									"id" : "obj-12",
									"maxclass" : "newobj",
									"numinlets" : 2,
									"numoutlets" : 2,
									"outlettype" : [ "", "" ],
									"patching_rect" : [ 30.0, 430.0, 50.0, 23.0 ],
									"text" : "zl.iter 2"
								}

							}
, 							{
								"box" : 								{
									"id" : "obj-11",
									"maxclass" : "newobj",
									"numinlets" : 2,
									"numoutlets" : 1,
									"outlettype" : [ "list" ],
									"patching_rect" : [ 30.0, 390.0, 77.0, 23.0 ],
									"text" : "fluid.buf2list"
								}

							}
, 							{
								"box" : 								{
									"id" : "obj-10",
									"maxclass" : "comment",
									"numinlets" : 1,
									"numoutlets" : 0,
									"patching_rect" : [ 129.0, 351.0, 260.0, 21.0 ],
									"text" : "flatten to a single buffer of onset/offset pairs",
									"textcolor" : [ 0.501960784313725, 0.501960784313725, 0.501960784313725, 1.0 ]
								}

							}
, 							{
								"box" : 								{
									"id" : "obj-8",
									"maxclass" : "newobj",
									"numinlets" : 1,
									"numoutlets" : 2,
									"outlettype" : [ "", "" ],
									"patching_rect" : [ 30.0, 350.0, 97.0, 23.0 ],
									"text" : "fluid.bufflatten~"
								}

							}
, 							{
								"box" : 								{
									"color" : [ 1.0, 0.792156862745098, 0.0, 1.0 ],
									"id" : "obj-7",
									"maxclass" : "newobj",
									"numinlets" : 1,
									"numoutlets" : 2,
									"outlettype" : [ "float", "bang" ],
									"patching_rect" : [ 630.0, 290.0, 186.0, 23.0 ],
									"text" : "buffer~ help.ampgate.indices.4"
								}

							}
, 							{
								"box" : 								{
									"id" : "obj-6",
									"maxclass" : "button",
									"numinlets" : 1,
									"numoutlets" : 1,
									"outlettype" : [ "bang" ],
									"parameter_enable" : 0,
									"patching_rect" : [ 30.0, 250.0, 24.0, 24.0 ]
								}

							}
, 							{
								"box" : 								{
									"color" : [ 1.0, 0.792156862745098, 0.0, 1.0 ],
									"id" : "obj-3",
									"linecount" : 2,
									"maxclass" : "newobj",
									"numinlets" : 1,
									"numoutlets" : 2,
									"outlettype" : [ "", "" ],
									"patching_rect" : [ 30.0, 290.0, 590.0, 38.0 ],
									"text" : "fluid.bufampgate~ @source help.ampgate.src.4 @indices help.ampgate.indices.4 @onthreshold -30 @offthreshold -40 @minslicelength 4410 @minsilencelength 4410 @rampdown 441"
								}

							}
, 							{
								"box" : 								{
									"buffername" : "help.ampgate.src.4",
									"id" : "obj-2",
									"maxclass" : "waveform~",
									"numinlets" : 5,
									"numoutlets" : 6,
									"outlettype" : [ "float", "float", "float", "float", "list", "" ],
									"patching_rect" : [ 20.0, 150.0, 600.0, 80.0 ]
								}

							}
, 							{
								"box" : 								{
									"id" : "obj-1",
									"maxclass" : "newobj",
									"numinlets" : 1,
									"numoutlets" : 2,
									"outlettype" : [ "float", "bang" ],
									"patching_rect" : [ 20.0, 110.0, 400.0, 23.0 ],
									"text" : "buffer~ help.ampgate.src.4 Olencki-TenTromboneLongTones-M.wav"
								}

							}
, 							{
								"box" : 								{
									"border" : 0,
									"filename" : "helpname.js",
									"id" : "obj-4",
									"ignoreclick" : 1,
									"jsarguments" : [ "fluid.bufampgate~" ],
									"maxclass" : "jsui",
									"numinlets" : 1,
									"numoutlets" : 1,
									"outlettype" : [ "" ],
									"parameter_enable" : 0,
									"patching_rect" : [ 10.0, 10.0, 389.24005126953125, 57.599853515625 ]
								}

							}
 ],
						"lines" : [ 							{
								"patchline" : 								{
									"destination" : [ "obj-12", 0 ],
									"source" : [ "obj-11", 0 ]
								}

							}
, 							{
								"patchline" : 								{
									"destination" : [ "obj-49", 0 ],
									"source" : [ "obj-12", 0 ]
								}

							}
, 							{
								"patchline" : 								{
									"destination" : [ "obj-8", 0 ],
									"source" : [ "obj-3", 0 ]
								}

							}
, 							{
								"patchline" : 								{
									"destination" : [ "obj-38", 0 ],
									"source" : [ "obj-40", 0 ]
								}

							}
, 							{
								"patchline" : 								{
									"destination" : [ "obj-54", 1 ],
									"midpoints" : [ 619.5, 495.0, 485.5, 495.0 ],
									"source" : [ "obj-41", 0 ]
								}

							}
, 							{
								"patchline" : 								{
									"destination" : [ "obj-18", 0 ],
									"source" : [ "obj-49", 0 ]
								}

							}
, 							{
								"patchline" : 								{
									"destination" : [ "obj-41", 0 ],
									"midpoints" : [ 459.5, 426.0, 619.5, 426.0 ],
									"order" : 0,
									"source" : [ "obj-51", 0 ]
								}

							}
, 							{
								"patchline" : 								{
									"destination" : [ "obj-52", 0 ],
									"midpoints" : [ 459.5, 405.0, 459.5, 405.0 ],
									"order" : 1,
									"source" : [ "obj-51", 0 ]
								}

							}
, 							{
								"patchline" : 								{
									"destination" : [ "obj-54", 0 ],
									"midpoints" : [ 459.5, 465.0, 459.5, 465.0 ],
									"source" : [ "obj-52", 0 ]
								}

							}
, 							{
								"patchline" : 								{
									"destination" : [ "obj-3", 0 ],
									"source" : [ "obj-6", 0 ]
								}

							}
, 							{
								"patchline" : 								{
									"destination" : [ "obj-11", 0 ],
									"order" : 1,
									"source" : [ "obj-8", 0 ]
								}

							}
, 							{
								"patchline" : 								{
									"destination" : [ "obj-40", 0 ],
									"midpoints" : [ 39.5, 381.0, 138.5, 381.0 ],
									"order" : 0,
									"source" : [ "obj-8", 0 ]
								}

							}
 ],
						"styles" : [ 							{
								"name" : "max6box",
								"default" : 								{
									"accentcolor" : [ 0.8, 0.839216, 0.709804, 1.0 ],
									"bgcolor" : [ 1.0, 1.0, 1.0, 0.5 ],
									"textcolor_inverse" : [ 0.0, 0.0, 0.0, 1.0 ]
								}
,
								"parentstyle" : "",
								"multi" : 0
							}
, 							{
								"name" : "max6inlet",
								"default" : 								{
									"color" : [ 0.423529, 0.372549, 0.27451, 1.0 ]
								}
,
								"parentstyle" : "",
								"multi" : 0
							}
, 							{
								"name" : "max6message",
								"default" : 								{
									"bgfillcolor" : 									{
										"angle" : 270.0,
										"autogradient" : 0,
										"color" : [ 0.290196, 0.309804, 0.301961, 1.0 ],
										"color1" : [ 0.866667, 0.866667, 0.866667, 1.0 ],
										"color2" : [ 0.788235, 0.788235, 0.788235, 1.0 ],
										"proportion" : 0.39,
										"type" : "gradient"
									}
,
									"textcolor_inverse" : [ 0.0, 0.0, 0.0, 1.0 ]
								}
,
								"parentstyle" : "max6box",
								"multi" : 0
							}
, 							{
								"name" : "max6outlet",
								"default" : 								{
									"color" : [ 0.0, 0.454902, 0.498039, 1.0 ]
								}
,
								"parentstyle" : "",
								"multi" : 0
							}
 ]
					}
,
					"patching_rect" : [ 262.0, 231.0, 203.0, 23.0 ],
					"saved_object_attributes" : 					{
						"description" : "",
						"digest" : "",
						"fontsize" : 13.0,
						"globalpatchername" : "",
						"tags" : ""
					}
,
					"text" : "p \"removing silence from a buffer\""
				}

			}
, 			{
				"box" : 				{
					"border" : 0,
					"filename" : "helpname.js",
					"id" : "obj-6",
					"ignoreclick" : 1,
					"jsarguments" : [ "fluid.bufampgate~" ],
					"maxclass" : "jsui",
					"numinlets" : 1,
					"numoutlets" : 1,
					"outlettype" : [ "" ],
					"parameter_enable" : 0,
					"patching_rect" : [ 10.0, 10.0, 389.24005126953125, 57.599853515625 ]
				}

			}
, 			{
				"box" : 				{
					"id" : "obj-7",
					"maxclass" : "newobj",
					"numinlets" : 0,
					"numoutlets" : 0,
					"patcher" : 					{
						"fileversion" : 1,
						"appversion" : 						{
							"major" : 8,
							"minor" : 3,
							"revision" : 0,
							"architecture" : "x64",
							"modernui" : 1
						}
,
						"classnamespace" : "box",
						"rect" : [ 0.0, 26.0, 841.0, 662.0 ],
						"bglocked" : 0,
						"openinpresentation" : 0,
						"default_fontsize" : 13.0,
						"default_fontface" : 0,
						"default_fontname" : "Arial",
						"gridonopen" : 2,
						"gridsize" : [ 10.0, 10.0 ],
						"gridsnaponopen" : 2,
						"objectsnaponopen" : 1,
						"statusbarvisible" : 2,
						"toolbarvisible" : 1,
						"lefttoolbarpinned" : 0,
						"toptoolbarpinned" : 0,
						"righttoolbarpinned" : 0,
						"bottomtoolbarpinned" : 0,
						"toolbars_unpinned_last_save" : 0,
						"tallnewobj" : 0,
						"boxanimatetime" : 200,
						"enablehscroll" : 1,
						"enablevscroll" : 1,
						"devicewidth" : 0.0,
						"description" : "",
						"digest" : "",
						"tags" : "",
						"style" : "",
						"subpatcher_template" : "",
						"showontab" : 1,
						"assistshowspatchername" : 0,
						"boxes" : [  ],
						"lines" : [  ]
					}
,
					"patching_rect" : [ 387.0, 331.0, 50.0, 23.0 ],
					"saved_object_attributes" : 					{
						"description" : "",
						"digest" : "",
						"fontsize" : 13.0,
						"globalpatchername" : "",
						"tags" : ""
					}
,
					"text" : "p ?",
					"varname" : "q_tab"
				}

			}
, 			{
				"box" : 				{
					"border" : 0,
					"filename" : "helpname.js",
					"id" : "obj-11",
					"ignoreclick" : 1,
					"jsarguments" : [ "fluid.bufampgate~" ],
					"maxclass" : "jsui",
					"numinlets" : 1,
					"numoutlets" : 1,
					"outlettype" : [ "" ],
					"parameter_enable" : 0,
					"patching_rect" : [ 10.0, 10.0, 389.24005126953125, 57.599853515625 ]
				}

			}
 ],
		"lines" : [  ],
		"parameters" : 		{
			"obj-2::obj-14" : [ "live.gain~", "slice playback", 0 ],
			"obj-4::obj-39" : [ "live.text", "live.text", 0 ],
			"parameterbanks" : 			{

			}
,
			"inherited_shortname" : 1
		}
,
		"autosave" : 0,
		"styles" : [ 			{
				"name" : "max6box",
				"default" : 				{
					"accentcolor" : [ 0.8, 0.839216, 0.709804, 1.0 ],
					"bgcolor" : [ 1.0, 1.0, 1.0, 0.5 ],
					"textcolor_inverse" : [ 0.0, 0.0, 0.0, 1.0 ]
				}
,
				"parentstyle" : "",
				"multi" : 0
			}
, 			{
				"name" : "max6inlet",
				"default" : 				{
					"color" : [ 0.423529, 0.372549, 0.27451, 1.0 ]
				}
,
				"parentstyle" : "",
				"multi" : 0
			}
, 			{
				"name" : "max6message",
				"default" : 				{
					"bgfillcolor" : 					{
						"angle" : 270.0,
						"autogradient" : 0,
						"color" : [ 0.290196, 0.309804, 0.301961, 1.0 ],
						"color1" : [ 0.866667, 0.866667, 0.866667, 1.0 ],
						"color2" : [ 0.788235, 0.788235, 0.788235, 1.0 ],
						"proportion" : 0.39,
						"type" : "gradient"
					}
,
					"textcolor_inverse" : [ 0.0, 0.0, 0.0, 1.0 ]
				}
,
				"parentstyle" : "max6box",
				"multi" : 0
			}
, 			{
				"name" : "max6outlet",
				"default" : 				{
					"color" : [ 0.0, 0.454902, 0.498039, 1.0 ]
				}
,
				"parentstyle" : "",
				"multi" : 0
			}
 ]
	}

}
