{
	"patcher" : 	{
		"fileversion" : 1,
		"appversion" : 		{
			"major" : 7,
			"minor" : 3,
			"revision" : 5,
			"architecture" : "x64",
			"modernui" : 1
		}
,
		"rect" : [ 34.0, 79.0, 1212.0, 1082.0 ],
		"bglocked" : 0,
		"openinpresentation" : 0,
		"default_fontsize" : 12.0,
		"default_fontface" : 0,
		"default_fontname" : "Arial",
		"gridonopen" : 1,
		"gridsize" : [ 15.0, 15.0 ],
		"gridsnaponopen" : 1,
		"objectsnaponopen" : 1,
		"statusbarvisible" : 2,
		"toolbarvisible" : 1,
		"lefttoolbarpinned" : 0,
		"toptoolbarpinned" : 0,
		"righttoolbarpinned" : 0,
		"bottomtoolbarpinned" : 0,
		"toolbars_unpinned_last_save" : 0,
		"tallnewobj" : 0,
		"boxanimatetime" : 200,
		"enablehscroll" : 1,
		"enablevscroll" : 1,
		"devicewidth" : 0.0,
		"description" : "",
		"digest" : "",
		"tags" : "",
		"style" : "",
		"subpatcher_template" : "",
		"showontab" : 1,
		"boxes" : [ 			{
				"box" : 				{
					"id" : "obj-4",
					"maxclass" : "comment",
					"numinlets" : 1,
					"numoutlets" : 0,
					"patching_rect" : [ 42.0, 308.0, 794.0, 20.0 ],
					"style" : "",
					"text" : "[0] is the harmonic part extracted, [1] is the rest. The latency between the input and the output is (( hopSize * minTrackLen) + windowSize) samples."
				}

			}
, 			{
				"box" : 				{
					"id" : "obj-18",
					"linecount" : 11,
					"maxclass" : "comment",
					"numinlets" : 1,
					"numoutlets" : 0,
					"patching_rect" : [ 143.0, 340.0, 987.0, 154.0 ],
					"style" : "",
					"text" : "The width in bins of the fragment of the fft window that is considered a normal deviation for a potential continuous sinusoidal track. It has an effect on CPU cost: the widest is more accurate but more computationally expensive.\nThe normalised threshold, between 0 an 1, to consider a peak as a sinusoidal component from the normalized cross-correlation.\nThe minimum duration, in spectral frames, for a sinusoidal track to be accepted as a partial. It allows to remove space-monkeys, but is more CPU intensive and might reject quick pitch material.\nThe weight of the magnitude proximity of a peak when trying to associate it to an existing track (relative to freqWeight - suggested between 0 to 1)\nThe weight of the frequency proximity of a peak when trying to associate it to an existing track (relative to magWeight - suggested between 0 to 1)\nThe window size. As sinusoidal estimation relies on spectral frames, we need to decide what precision we give it spectrally and temporally, in line with Gabor Uncertainty principles. http://www.subsurfwiki.org/wiki/Gabor_uncertainty\nThe window hope size. As sinusoidal estimation relies on spectral frames, we need to move the window forward. It can be any size but low overlap will create audible artefacts.\nThe inner FFT/IFFT size. It should be at least 4 samples long, at least the size of the window, and a power of 2. Making it larger allows an oversampling of the spectral precision."
				}

			}
, 			{
				"box" : 				{
					"id" : "obj-16",
					"linecount" : 8,
					"maxclass" : "comment",
					"numinlets" : 1,
					"numoutlets" : 0,
					"patching_rect" : [ 39.0, 340.0, 92.0, 114.0 ],
					"style" : "",
					"text" : "bandwidth\nthresh\nminTrackLen\nmagWeight\nfreqWeight\nwinSize\nhopSize\nfftSize"
				}

			}
, 			{
				"box" : 				{
					"id" : "obj-12",
					"maxclass" : "comment",
					"numinlets" : 1,
					"numoutlets" : 0,
					"patching_rect" : [ 39.0, 67.0, 213.0, 20.0 ],
					"style" : "",
					"text" : "Sinusoidal Modelling and Resynthesis"
				}

			}
, 			{
				"box" : 				{
					"fontsize" : 24.0,
					"id" : "obj-10",
					"maxclass" : "comment",
					"numinlets" : 1,
					"numoutlets" : 0,
					"patching_rect" : [ 39.0, 41.0, 123.0, 33.0 ],
					"style" : "",
					"text" : "FluidSines"
				}

			}
, 			{
				"box" : 				{
					"fontsize" : 11.0,
					"id" : "obj-8",
					"linecount" : 2,
					"maxclass" : "comment",
					"numinlets" : 1,
					"numoutlets" : 0,
					"patching_rect" : [ 39.0, 833.0, 758.0, 31.0 ],
					"style" : "",
					"text" : "[1] - This was made possible thanks to the FluCoMa project ( http://www.flucoma.org/ ) funded by the European Research Council ( https://erc.europa.eu/ ) under the European Union’s Horizon 2020 research and innovation programme (grant agreement No 725899)."
				}

			}
, 			{
				"box" : 				{
					"id" : "obj-5",
					"linecount" : 11,
					"maxclass" : "comment",
					"numinlets" : 1,
					"numoutlets" : 0,
					"patching_rect" : [ 39.0, 119.0, 858.0, 154.0 ],
					"style" : "",
					"text" : "This class applies a Sinusoidal Modelling process on its audio input. It implements a mix and match algorithms taken from classic papers. It is part of the Fluid Decomposition Toolkit of the FluCoMa project.1\n\nThe algorithm will take an audio in, and will divide it in two parts:\n• a reconstruction of what it detects as sinusoidal;\n• a residual derived from the previous signal to allow null-summing\n\nThe whole process is based on the assumption that signal is made of pitched steady components that have a long-enough duration and are periodic enough to be perceived as such, that can be tracked, resynthesised and removed from the original, leaving behind what is considered as non-pitched, noisy, and/or transient. It first tracks the peaks, then checks if they are the continuation of a peak in previous spectral frames, by assigning them a track. More information on this model, and on how it links to musicianly thinking, are availabe in The Fluid Corpus Manipulation Project overview file."
				}

			}
, 			{
				"box" : 				{
					"fontsize" : 16.0,
					"id" : "obj-3",
					"maxclass" : "comment",
					"numinlets" : 1,
					"numoutlets" : 0,
					"patching_rect" : [ 39.0, 93.0, 92.0, 24.0 ],
					"style" : "",
					"text" : "Description"
				}

			}
, 			{
				"box" : 				{
					"hidden" : 1,
					"id" : "obj-1",
					"maxclass" : "newobj",
					"numinlets" : 0,
					"numoutlets" : 0,
					"patcher" : 					{
						"fileversion" : 1,
						"appversion" : 						{
							"major" : 7,
							"minor" : 3,
							"revision" : 5,
							"architecture" : "x64",
							"modernui" : 1
						}
,
						"rect" : [ 59.0, 104.0, 640.0, 480.0 ],
						"bglocked" : 0,
						"openinpresentation" : 0,
						"default_fontsize" : 12.0,
						"default_fontface" : 0,
						"default_fontname" : "Arial",
						"gridonopen" : 1,
						"gridsize" : [ 15.0, 15.0 ],
						"gridsnaponopen" : 1,
						"objectsnaponopen" : 1,
						"statusbarvisible" : 2,
						"toolbarvisible" : 1,
						"lefttoolbarpinned" : 0,
						"toptoolbarpinned" : 0,
						"righttoolbarpinned" : 0,
						"bottomtoolbarpinned" : 0,
						"toolbars_unpinned_last_save" : 0,
						"tallnewobj" : 0,
						"boxanimatetime" : 200,
						"enablehscroll" : 1,
						"enablevscroll" : 1,
						"devicewidth" : 0.0,
						"description" : "",
						"digest" : "",
						"tags" : "",
						"style" : "",
						"subpatcher_template" : "",
						"showontab" : 1,
						"visible" : 1,
						"boxes" : [ 							{
								"box" : 								{
									"id" : "obj-24",
									"maxclass" : "comment",
									"numinlets" : 1,
									"numoutlets" : 0,
									"patching_rect" : [ 138.0, 267.0, 89.0, 20.0 ],
									"style" : "",
									"text" : "winsize"
								}

							}
, 							{
								"box" : 								{
									"id" : "obj-23",
									"maxclass" : "number",
									"numinlets" : 1,
									"numoutlets" : 2,
									"outlettype" : [ "", "bang" ],
									"parameter_enable" : 0,
									"patching_rect" : [ 149.0, 294.0, 50.0, 22.0 ],
									"style" : ""
								}

							}
, 							{
								"box" : 								{
									"id" : "obj-21",
									"maxclass" : "comment",
									"numinlets" : 1,
									"numoutlets" : 0,
									"patching_rect" : [ 118.5, 208.0, 89.0, 20.0 ],
									"style" : "",
									"text" : "mintracklength"
								}

							}
, 							{
								"box" : 								{
									"id" : "obj-22",
									"maxclass" : "comment",
									"numinlets" : 1,
									"numoutlets" : 0,
									"patching_rect" : [ 59.5, 200.0, 52.0, 20.0 ],
									"style" : "",
									"text" : "hopsize"
								}

							}
, 							{
								"box" : 								{
									"id" : "obj-42",
									"maxclass" : "newobj",
									"numinlets" : 3,
									"numoutlets" : 1,
									"outlettype" : [ "" ],
									"patching_rect" : [ 68.5, 328.0, 110.0, 22.0 ],
									"style" : "",
									"text" : "expr $i1 * $i2 + $i3"
								}

							}
, 							{
								"box" : 								{
									"id" : "obj-44",
									"maxclass" : "number",
									"numinlets" : 1,
									"numoutlets" : 2,
									"outlettype" : [ "", "bang" ],
									"parameter_enable" : 0,
									"patching_rect" : [ 59.5, 222.0, 50.0, 22.0 ],
									"style" : ""
								}

							}
, 							{
								"box" : 								{
									"id" : "obj-45",
									"maxclass" : "number",
									"numinlets" : 1,
									"numoutlets" : 2,
									"outlettype" : [ "", "bang" ],
									"parameter_enable" : 0,
									"patching_rect" : [ 114.0, 234.0, 50.0, 22.0 ],
									"style" : ""
								}

							}
, 							{
								"box" : 								{
									"id" : "obj-18",
									"maxclass" : "newobj",
									"numinlets" : 2,
									"numoutlets" : 1,
									"outlettype" : [ "signal" ],
									"patching_rect" : [ 50.0, 441.0, 113.0, 22.0 ],
									"style" : "",
									"text" : "delay~ 44100 4608"
								}

							}
, 							{
								"box" : 								{
									"columns" : 3,
									"id" : "obj-15",
									"maxclass" : "matrixctrl",
									"numinlets" : 1,
									"numoutlets" : 2,
									"outlettype" : [ "list", "list" ],
									"parameter_enable" : 0,
									"patching_rect" : [ 286.5, 557.0, 61.0, 25.0 ],
									"rows" : 1,
									"style" : ""
								}

							}
, 							{
								"box" : 								{
									"fontname" : "Arial",
									"fontsize" : 13.0,
									"id" : "obj-14",
									"maxclass" : "newobj",
									"numinlets" : 2,
									"numoutlets" : 1,
									"outlettype" : [ "signal" ],
									"patching_rect" : [ 50.0, 469.0, 38.0, 23.0 ],
									"style" : "",
									"text" : "*~ -1"
								}

							}
, 							{
								"box" : 								{
									"id" : "obj-2",
									"maxclass" : "newobj",
									"numinlets" : 3,
									"numoutlets" : 2,
									"outlettype" : [ "signal", "list" ],
									"patching_rect" : [ 184.0, 544.0, 70.0, 22.0 ],
									"style" : "",
									"text" : "matrix~ 3 1"
								}

							}
, 							{
								"box" : 								{
									"autopopulate" : 1,
									"depth" : 1,
									"id" : "obj-11",
									"items" : [ "-credits.txt", ",", "Nicol-LoopE-M.wav", ",", "Tremblay-AaS-AcousticStrums-M.wav", ",", "Tremblay-AaS-SynthTwoVoices-M.wav", ",", "Tremblay-BaB-SoundfielGolcarWithDog.wav", ",", "Tremblay-beatRemember.wav", ",", "Tremblay-CF-ChurchBells.wav", ",", "Tremblay-SA-UprightPianoPedalWide.wav" ],
									"maxclass" : "umenu",
									"numinlets" : 1,
									"numoutlets" : 3,
									"outlettype" : [ "int", "", "" ],
									"parameter_enable" : 0,
									"patching_rect" : [ 126.0, 100.0, 182.0, 22.0 ],
									"prefix" : "choses:/Users/pa/Documents/documents@hudd/research/projects/fluid corpus navigation/research/fluid_decomposition/AudioFiles/",
									"prefix_mode" : 2,
									"style" : ""
								}

							}
, 							{
								"box" : 								{
									"hiderwff" : 1,
									"id" : "obj-7",
									"maxclass" : "playbar",
									"numinlets" : 1,
									"numoutlets" : 2,
									"outlettype" : [ "", "int" ],
									"patching_rect" : [ 231.5, 171.0, 173.0, 23.0 ],
									"style" : ""
								}

							}
, 							{
								"box" : 								{
									"fontname" : "Arial",
									"fontsize" : 13.0,
									"id" : "obj-16",
									"maxclass" : "newobj",
									"numinlets" : 1,
									"numoutlets" : 1,
									"outlettype" : [ "" ],
									"patching_rect" : [ 207.5, 138.0, 92.0, 23.0 ],
									"style" : "",
									"text" : "prepend open"
								}

							}
, 							{
								"box" : 								{
									"fontname" : "Arial",
									"fontsize" : 13.0,
									"id" : "obj-43",
									"maxclass" : "newobj",
									"numinlets" : 2,
									"numoutlets" : 2,
									"outlettype" : [ "signal", "bang" ],
									"patching_rect" : [ 207.5, 208.0, 52.0, 23.0 ],
									"saved_object_attributes" : 									{
										"basictuning" : 440,
										"followglobaltempo" : 0,
										"formantcorrection" : 0,
										"mode" : "basic",
										"originallength" : [ 9881.512925, "ticks" ],
										"originaltempo" : 120.0,
										"pitchcorrection" : 0,
										"quality" : "basic",
										"timestretch" : [ 0 ]
									}
,
									"style" : "",
									"text" : "sfplay~"
								}

							}
, 							{
								"box" : 								{
									"id" : "obj-17",
									"maxclass" : "newobj",
									"numinlets" : 2,
									"numoutlets" : 0,
									"patching_rect" : [ 184.0, 621.0, 37.0, 22.0 ],
									"style" : "",
									"text" : "dac~"
								}

							}
, 							{
								"box" : 								{
									"id" : "obj-3",
									"linecount" : 2,
									"maxclass" : "comment",
									"numinlets" : 1,
									"numoutlets" : 0,
									"patching_rect" : [ 471.5, 294.0, 326.0, 33.0 ],
									"style" : "",
									"text" : "args: bandwidth(bins), [window size], [hop size], [fft size] [attributes]"
								}

							}
, 							{
								"box" : 								{
									"id" : "obj-1",
									"maxclass" : "newobj",
									"numinlets" : 1,
									"numoutlets" : 2,
									"outlettype" : [ "signal", "signal" ],
									"patching_rect" : [ 207.5, 429.0, 571.0, 22.0 ],
									"style" : "",
									"text" : "fluid.sines~ @bandwidth 76 @winsize 1024 @hopsize 512 @fftsize 8192 @threshold 0.3 @mintracklen 0"
								}

							}
, 							{
								"box" : 								{
									"attr" : "freqweight",
									"id" : "obj-4",
									"maxclass" : "attrui",
									"numinlets" : 1,
									"numoutlets" : 1,
									"outlettype" : [ "" ],
									"patching_rect" : [ 279.5, 358.0, 150.0, 22.0 ],
									"style" : ""
								}

							}
, 							{
								"box" : 								{
									"attr" : "magweight",
									"id" : "obj-6",
									"maxclass" : "attrui",
									"numinlets" : 1,
									"numoutlets" : 1,
									"outlettype" : [ "" ],
									"patching_rect" : [ 279.5, 332.0, 150.0, 22.0 ],
									"style" : ""
								}

							}
, 							{
								"box" : 								{
									"attr" : "mintracklen",
									"id" : "obj-8",
									"maxclass" : "attrui",
									"numinlets" : 1,
									"numoutlets" : 1,
									"outlettype" : [ "" ],
									"patching_rect" : [ 279.5, 384.0, 150.0, 22.0 ],
									"style" : ""
								}

							}
, 							{
								"box" : 								{
									"attr" : "threshold",
									"id" : "obj-9",
									"maxclass" : "attrui",
									"numinlets" : 1,
									"numoutlets" : 1,
									"outlettype" : [ "" ],
									"patching_rect" : [ 279.5, 305.0, 150.0, 22.0 ],
									"style" : ""
								}

							}
 ],
						"lines" : [ 							{
								"patchline" : 								{
									"destination" : [ "obj-2", 2 ],
									"source" : [ "obj-1", 1 ]
								}

							}
, 							{
								"patchline" : 								{
									"destination" : [ "obj-2", 1 ],
									"source" : [ "obj-1", 0 ]
								}

							}
, 							{
								"patchline" : 								{
									"destination" : [ "obj-16", 0 ],
									"source" : [ "obj-11", 1 ]
								}

							}
, 							{
								"patchline" : 								{
									"destination" : [ "obj-2", 0 ],
									"source" : [ "obj-14", 0 ]
								}

							}
, 							{
								"patchline" : 								{
									"destination" : [ "obj-2", 0 ],
									"source" : [ "obj-15", 0 ]
								}

							}
, 							{
								"patchline" : 								{
									"destination" : [ "obj-43", 0 ],
									"source" : [ "obj-16", 0 ]
								}

							}
, 							{
								"patchline" : 								{
									"destination" : [ "obj-14", 0 ],
									"source" : [ "obj-18", 0 ]
								}

							}
, 							{
								"patchline" : 								{
									"destination" : [ "obj-17", 1 ],
									"order" : 0,
									"source" : [ "obj-2", 0 ]
								}

							}
, 							{
								"patchline" : 								{
									"destination" : [ "obj-17", 0 ],
									"order" : 1,
									"source" : [ "obj-2", 0 ]
								}

							}
, 							{
								"patchline" : 								{
									"destination" : [ "obj-42", 2 ],
									"source" : [ "obj-23", 0 ]
								}

							}
, 							{
								"patchline" : 								{
									"destination" : [ "obj-1", 0 ],
									"source" : [ "obj-4", 0 ]
								}

							}
, 							{
								"patchline" : 								{
									"destination" : [ "obj-18", 1 ],
									"source" : [ "obj-42", 0 ]
								}

							}
, 							{
								"patchline" : 								{
									"destination" : [ "obj-1", 0 ],
									"order" : 0,
									"source" : [ "obj-43", 0 ]
								}

							}
, 							{
								"patchline" : 								{
									"destination" : [ "obj-18", 0 ],
									"order" : 1,
									"source" : [ "obj-43", 0 ]
								}

							}
, 							{
								"patchline" : 								{
									"destination" : [ "obj-42", 0 ],
									"source" : [ "obj-44", 0 ]
								}

							}
, 							{
								"patchline" : 								{
									"destination" : [ "obj-42", 1 ],
									"source" : [ "obj-45", 0 ]
								}

							}
, 							{
								"patchline" : 								{
									"destination" : [ "obj-1", 0 ],
									"source" : [ "obj-6", 0 ]
								}

							}
, 							{
								"patchline" : 								{
									"destination" : [ "obj-43", 0 ],
									"source" : [ "obj-7", 0 ]
								}

							}
, 							{
								"patchline" : 								{
									"destination" : [ "obj-1", 0 ],
									"source" : [ "obj-8", 0 ]
								}

							}
, 							{
								"patchline" : 								{
									"destination" : [ "obj-1", 0 ],
									"source" : [ "obj-9", 0 ]
								}

							}
 ]
					}
,
					"patching_rect" : [ 14.5, 1034.0, 66.0, 22.0 ],
					"saved_object_attributes" : 					{
						"description" : "",
						"digest" : "",
						"globalpatchername" : "",
						"style" : "",
						"tags" : ""
					}
,
					"style" : "",
					"text" : "p example"
				}

			}
 ],
		"lines" : [  ],
		"dependency_cache" : [ 			{
				"name" : "fluid.sines~.mxo",
				"type" : "iLaX"
			}
, 			{
				"name" : "vtimes~.mxo",
				"type" : "iLaX"
			}
 ],
		"autosave" : 0
	}

}
