{
	"patcher" : 	{
		"fileversion" : 1,
		"appversion" : 		{
			"major" : 8,
			"minor" : 1,
			"revision" : 5,
			"architecture" : "x64",
			"modernui" : 1
		}
,
		"classnamespace" : "box",
		"rect" : [ 742.0, 83.0, 569.0, 615.0 ],
		"bglocked" : 0,
		"openinpresentation" : 0,
		"default_fontsize" : 12.0,
		"default_fontface" : 0,
		"default_fontname" : "Arial",
		"gridonopen" : 1,
		"gridsize" : [ 15.0, 15.0 ],
		"gridsnaponopen" : 1,
		"objectsnaponopen" : 1,
		"statusbarvisible" : 2,
		"toolbarvisible" : 1,
		"lefttoolbarpinned" : 0,
		"toptoolbarpinned" : 0,
		"righttoolbarpinned" : 0,
		"bottomtoolbarpinned" : 0,
		"toolbars_unpinned_last_save" : 0,
		"tallnewobj" : 0,
		"boxanimatetime" : 200,
		"enablehscroll" : 1,
		"enablevscroll" : 1,
		"devicewidth" : 0.0,
		"description" : "",
		"digest" : "",
		"tags" : "",
		"style" : "",
		"subpatcher_template" : "",
		"showrootpatcherontab" : 0,
		"showontab" : 0,
		"assistshowspatchername" : 0,
		"boxes" : [ 			{
				"box" : 				{
					"id" : "obj-2",
					"maxclass" : "newobj",
					"numinlets" : 0,
					"numoutlets" : 0,
					"patcher" : 					{
						"fileversion" : 1,
						"appversion" : 						{
							"major" : 8,
							"minor" : 1,
							"revision" : 5,
							"architecture" : "x64",
							"modernui" : 1
						}
,
						"classnamespace" : "box",
						"rect" : [ 742.0, 109.0, 569.0, 589.0 ],
						"bglocked" : 0,
						"openinpresentation" : 0,
						"default_fontsize" : 13.0,
						"default_fontface" : 0,
						"default_fontname" : "Arial",
						"gridonopen" : 1,
						"gridsize" : [ 5.0, 5.0 ],
						"gridsnaponopen" : 1,
						"objectsnaponopen" : 1,
						"statusbarvisible" : 2,
						"toolbarvisible" : 1,
						"lefttoolbarpinned" : 0,
						"toptoolbarpinned" : 0,
						"righttoolbarpinned" : 0,
						"bottomtoolbarpinned" : 0,
						"toolbars_unpinned_last_save" : 0,
						"tallnewobj" : 0,
						"boxanimatetime" : 200,
						"enablehscroll" : 1,
						"enablevscroll" : 1,
						"devicewidth" : 0.0,
						"description" : "",
						"digest" : "",
						"tags" : "",
						"style" : "",
						"subpatcher_template" : "",
						"showontab" : 1,
						"assistshowspatchername" : 0,
						"boxes" : [ 							{
								"box" : 								{
									"id" : "obj-13",
									"linecount" : 2,
									"maxclass" : "comment",
									"numinlets" : 1,
									"numoutlets" : 0,
									"patching_rect" : [ 138.528315000000021, 122.320760000000035, 391.0, 36.0 ],
									"text" : "Finer grained control by setting offsets and max counts for frame / channel ",
									"textcolor" : [ 0.129411764705882, 0.129411764705882, 0.129411764705882, 0.51 ]
								}

							}
, 							{
								"box" : 								{
									"attr" : "channelhop",
									"id" : "obj-9",
									"maxclass" : "attrui",
									"numinlets" : 1,
									"numoutlets" : 1,
									"outlettype" : [ "" ],
									"patching_rect" : [ 356.377370999999982, 214.320760000000007, 150.0, 23.0 ]
								}

							}
, 							{
								"box" : 								{
									"attr" : "numchans",
									"id" : "obj-10",
									"maxclass" : "attrui",
									"numinlets" : 1,
									"numoutlets" : 1,
									"outlettype" : [ "" ],
									"patching_rect" : [ 343.377370999999982, 187.320760000000007, 150.0, 23.0 ]
								}

							}
, 							{
								"box" : 								{
									"attr" : "startchan",
									"id" : "obj-11",
									"maxclass" : "attrui",
									"numinlets" : 1,
									"numoutlets" : 1,
									"outlettype" : [ "" ],
									"patching_rect" : [ 335.377370999999982, 160.320760000000007, 150.0, 23.0 ]
								}

							}
, 							{
								"box" : 								{
									"attr" : "framehop",
									"id" : "obj-5",
									"maxclass" : "attrui",
									"numinlets" : 1,
									"numoutlets" : 1,
									"outlettype" : [ "" ],
									"patching_rect" : [ 187.528315000000021, 214.320760000000007, 150.0, 23.0 ]
								}

							}
, 							{
								"box" : 								{
									"attr" : "numframes",
									"id" : "obj-4",
									"maxclass" : "attrui",
									"numinlets" : 1,
									"numoutlets" : 1,
									"outlettype" : [ "" ],
									"patching_rect" : [ 177.0, 187.320760000000007, 150.0, 23.0 ]
								}

							}
, 							{
								"box" : 								{
									"id" : "obj-89",
									"linecount" : 2,
									"maxclass" : "comment",
									"numinlets" : 1,
									"numoutlets" : 0,
									"patching_rect" : [ 335.377370999999982, 61.0, 268.037740999999983, 36.0 ],
									"text" : "useful for grabbing things like particular statistics from fluid.bufstats ",
									"textcolor" : [ 0.129412, 0.129412, 0.129412, 0.5 ]
								}

							}
, 							{
								"box" : 								{
									"id" : "obj-88",
									"linecount" : 3,
									"maxclass" : "comment",
									"numinlets" : 1,
									"numoutlets" : 0,
									"patching_rect" : [ 152.452836999999988, 455.160406999999964, 268.037740999999983, 50.0 ],
									"text" : "here we have taken alternating rows and columns from a 5 x 5 buffer, to give us a 3 x 3 buffer",
									"textcolor" : [ 0.129412, 0.129412, 0.129412, 0.5 ]
								}

							}
, 							{
								"box" : 								{
									"id" : "obj-87",
									"linecount" : 3,
									"maxclass" : "comment",
									"numinlets" : 1,
									"numoutlets" : 0,
									"patching_rect" : [ 313.981146000000024, 388.801903999999922, 214.264153999999991, 50.0 ],
									"text" : "choose channel interbal with channelhop (default 1 = every channel)",
									"textcolor" : [ 0.129411764705882, 0.129411764705882, 0.129411764705882, 0.89 ]
								}

							}
, 							{
								"box" : 								{
									"id" : "obj-86",
									"linecount" : 2,
									"maxclass" : "comment",
									"numinlets" : 1,
									"numoutlets" : 0,
									"patching_rect" : [ 313.981146000000024, 347.528317000000015, 208.792450000000002, 36.0 ],
									"text" : "choose sample interval with framehop (default 1 = every frame)",
									"textcolor" : [ 0.129411764705882, 0.129411764705882, 0.129411764705882, 0.89 ]
								}

							}
, 							{
								"box" : 								{
									"id" : "obj-85",
									"linecount" : 2,
									"maxclass" : "comment",
									"numinlets" : 1,
									"numoutlets" : 0,
									"patching_rect" : [ 372.528315000000021, 304.528317000000015, 152.0, 36.0 ],
									"text" : "set @source and @destination buffer~s  ",
									"textcolor" : [ 0.129411764705882, 0.129411764705882, 0.129411764705882, 0.89 ]
								}

							}
, 							{
								"box" : 								{
									"id" : "obj-84",
									"maxclass" : "newobj",
									"numinlets" : 1,
									"numoutlets" : 1,
									"outlettype" : [ "" ],
									"patching_rect" : [ 12.264151999999999, 116.283019999999993, 60.0, 23.0 ],
									"text" : "deferlow"
								}

							}
, 							{
								"box" : 								{
									"id" : "obj-83",
									"maxclass" : "newobj",
									"numinlets" : 1,
									"numoutlets" : 1,
									"outlettype" : [ "bang" ],
									"patching_rect" : [ 12.264151999999999, 86.792456999999999, 62.0, 23.0 ],
									"text" : "loadbang"
								}

							}
, 							{
								"box" : 								{
									"id" : "obj-82",
									"maxclass" : "newobj",
									"numinlets" : 1,
									"numoutlets" : 1,
									"outlettype" : [ "" ],
									"patcher" : 									{
										"fileversion" : 1,
										"appversion" : 										{
											"major" : 8,
											"minor" : 1,
											"revision" : 5,
											"architecture" : "x64",
											"modernui" : 1
										}
,
										"classnamespace" : "box",
										"rect" : [ 0.0, 0.0, 640.0, 480.0 ],
										"bglocked" : 0,
										"openinpresentation" : 0,
										"default_fontsize" : 12.0,
										"default_fontface" : 0,
										"default_fontname" : "Arial",
										"gridonopen" : 1,
										"gridsize" : [ 15.0, 15.0 ],
										"gridsnaponopen" : 1,
										"objectsnaponopen" : 1,
										"statusbarvisible" : 2,
										"toolbarvisible" : 1,
										"lefttoolbarpinned" : 0,
										"toptoolbarpinned" : 0,
										"righttoolbarpinned" : 0,
										"bottomtoolbarpinned" : 0,
										"toolbars_unpinned_last_save" : 0,
										"tallnewobj" : 0,
										"boxanimatetime" : 200,
										"enablehscroll" : 1,
										"enablevscroll" : 1,
										"devicewidth" : 0.0,
										"description" : "",
										"digest" : "",
										"tags" : "",
										"style" : "",
										"subpatcher_template" : "",
										"assistshowspatchername" : 0,
										"boxes" : [ 											{
												"box" : 												{
													"id" : "obj-55",
													"maxclass" : "newobj",
													"numinlets" : 2,
													"numoutlets" : 2,
													"outlettype" : [ "int", "int" ],
													"patching_rect" : [ 102.5, 195.415093000000013, 177.46226999999999, 23.0 ],
													"text" : "swap"
												}

											}
, 											{
												"box" : 												{
													"id" : "obj-54",
													"maxclass" : "newobj",
													"numinlets" : 3,
													"numoutlets" : 1,
													"outlettype" : [ "" ],
													"patching_rect" : [ 78.0, 224.094337999999993, 201.96226999999999, 23.0 ],
													"text" : "pack 0 0 0"
												}

											}
, 											{
												"box" : 												{
													"id" : "obj-53",
													"maxclass" : "newobj",
													"numinlets" : 2,
													"numoutlets" : 1,
													"outlettype" : [ "int" ],
													"patching_rect" : [ 259.867923000000019, 162.358489999999989, 29.5, 23.0 ],
													"text" : "- 1"
												}

											}
, 											{
												"box" : 												{
													"id" : "obj-51",
													"maxclass" : "newobj",
													"numinlets" : 3,
													"numoutlets" : 1,
													"outlettype" : [ "float" ],
													"patching_rect" : [ 102.5, 162.358489999999989, 157.0, 23.0 ],
													"text" : "peek~ buf.select.help.dst"
												}

											}
, 											{
												"box" : 												{
													"id" : "obj-49",
													"maxclass" : "newobj",
													"numinlets" : 2,
													"numoutlets" : 3,
													"outlettype" : [ "bang", "bang", "int" ],
													"patching_rect" : [ 50.0, 126.0, 47.0, 23.0 ],
													"text" : "uzi 3 0"
												}

											}
, 											{
												"box" : 												{
													"id" : "obj-50",
													"maxclass" : "newobj",
													"numinlets" : 2,
													"numoutlets" : 3,
													"outlettype" : [ "bang", "bang", "int" ],
													"patching_rect" : [ 50.0, 100.0, 209.5, 23.0 ],
													"text" : "uzi 3"
												}

											}
, 											{
												"box" : 												{
													"comment" : "",
													"id" : "obj-80",
													"index" : 1,
													"maxclass" : "inlet",
													"numinlets" : 0,
													"numoutlets" : 1,
													"outlettype" : [ "bang" ],
													"patching_rect" : [ 50.0, 40.0, 30.0, 30.0 ]
												}

											}
, 											{
												"box" : 												{
													"comment" : "",
													"id" : "obj-81",
													"index" : 1,
													"maxclass" : "outlet",
													"numinlets" : 1,
													"numoutlets" : 0,
													"patching_rect" : [ 78.0, 307.094330000000014, 30.0, 30.0 ]
												}

											}
 ],
										"lines" : [ 											{
												"patchline" : 												{
													"destination" : [ "obj-51", 0 ],
													"midpoints" : [ 87.5, 155.179245000000009, 112.0, 155.179245000000009 ],
													"order" : 0,
													"source" : [ "obj-49", 2 ]
												}

											}
, 											{
												"patchline" : 												{
													"destination" : [ "obj-54", 0 ],
													"order" : 1,
													"source" : [ "obj-49", 2 ]
												}

											}
, 											{
												"patchline" : 												{
													"destination" : [ "obj-49", 0 ],
													"source" : [ "obj-50", 0 ]
												}

											}
, 											{
												"patchline" : 												{
													"destination" : [ "obj-51", 2 ],
													"midpoints" : [ 250.0, 153.5, 250.0, 153.5 ],
													"order" : 1,
													"source" : [ "obj-50", 2 ]
												}

											}
, 											{
												"patchline" : 												{
													"destination" : [ "obj-53", 0 ],
													"midpoints" : [ 250.0, 153.5, 269.367923000000019, 153.5 ],
													"order" : 0,
													"source" : [ "obj-50", 2 ]
												}

											}
, 											{
												"patchline" : 												{
													"destination" : [ "obj-55", 0 ],
													"source" : [ "obj-51", 0 ]
												}

											}
, 											{
												"patchline" : 												{
													"destination" : [ "obj-55", 1 ],
													"source" : [ "obj-53", 0 ]
												}

											}
, 											{
												"patchline" : 												{
													"destination" : [ "obj-81", 0 ],
													"source" : [ "obj-54", 0 ]
												}

											}
, 											{
												"patchline" : 												{
													"destination" : [ "obj-54", 2 ],
													"source" : [ "obj-55", 1 ]
												}

											}
, 											{
												"patchline" : 												{
													"destination" : [ "obj-54", 1 ],
													"midpoints" : [ 112.0, 220.754716000000002, 178.981134999999995, 220.754716000000002 ],
													"source" : [ "obj-55", 0 ]
												}

											}
, 											{
												"patchline" : 												{
													"destination" : [ "obj-50", 0 ],
													"source" : [ "obj-80", 0 ]
												}

											}
 ]
									}
,
									"patching_rect" : [ 12.264151999999999, 415.801903999999979, 48.0, 23.0 ],
									"saved_object_attributes" : 									{
										"description" : "",
										"digest" : "",
										"globalpatchername" : "",
										"tags" : ""
									}
,
									"text" : "p draw"
								}

							}
, 							{
								"box" : 								{
									"id" : "obj-79",
									"maxclass" : "newobj",
									"numinlets" : 1,
									"numoutlets" : 1,
									"outlettype" : [ "" ],
									"patcher" : 									{
										"fileversion" : 1,
										"appversion" : 										{
											"major" : 8,
											"minor" : 1,
											"revision" : 5,
											"architecture" : "x64",
											"modernui" : 1
										}
,
										"classnamespace" : "box",
										"rect" : [ 84.0, 129.0, 640.0, 480.0 ],
										"bglocked" : 0,
										"openinpresentation" : 0,
										"default_fontsize" : 12.0,
										"default_fontface" : 0,
										"default_fontname" : "Arial",
										"gridonopen" : 1,
										"gridsize" : [ 15.0, 15.0 ],
										"gridsnaponopen" : 1,
										"objectsnaponopen" : 1,
										"statusbarvisible" : 2,
										"toolbarvisible" : 1,
										"lefttoolbarpinned" : 0,
										"toptoolbarpinned" : 0,
										"righttoolbarpinned" : 0,
										"bottomtoolbarpinned" : 0,
										"toolbars_unpinned_last_save" : 0,
										"tallnewobj" : 0,
										"boxanimatetime" : 200,
										"enablehscroll" : 1,
										"enablevscroll" : 1,
										"devicewidth" : 0.0,
										"description" : "",
										"digest" : "",
										"tags" : "",
										"style" : "",
										"subpatcher_template" : "",
										"assistshowspatchername" : 0,
										"boxes" : [ 											{
												"box" : 												{
													"id" : "obj-69",
													"maxclass" : "newobj",
													"numinlets" : 2,
													"numoutlets" : 1,
													"outlettype" : [ "int" ],
													"patching_rect" : [ 202.5, 158.0, 29.5, 22.0 ],
													"text" : "+ 1"
												}

											}
, 											{
												"box" : 												{
													"id" : "obj-63",
													"maxclass" : "newobj",
													"numinlets" : 2,
													"numoutlets" : 1,
													"outlettype" : [ "int" ],
													"patching_rect" : [ 213.0, 254.0, 29.5, 22.0 ],
													"text" : "+ 1"
												}

											}
, 											{
												"box" : 												{
													"id" : "obj-59",
													"maxclass" : "newobj",
													"numinlets" : 2,
													"numoutlets" : 2,
													"outlettype" : [ "int", "int" ],
													"patching_rect" : [ 84.0, 375.0, 39.0, 22.0 ],
													"text" : "swap"
												}

											}
, 											{
												"box" : 												{
													"id" : "obj-60",
													"maxclass" : "newobj",
													"numinlets" : 3,
													"numoutlets" : 1,
													"outlettype" : [ "" ],
													"patching_rect" : [ 50.0, 415.0, 68.0, 22.0 ],
													"text" : "pack 0 0 0"
												}

											}
, 											{
												"box" : 												{
													"id" : "obj-61",
													"maxclass" : "newobj",
													"numinlets" : 2,
													"numoutlets" : 1,
													"outlettype" : [ "int" ],
													"patching_rect" : [ 242.660378000000009, 357.754715999999974, 29.5, 22.0 ],
													"text" : "- 1"
												}

											}
, 											{
												"box" : 												{
													"id" : "obj-41",
													"maxclass" : "newobj",
													"numinlets" : 2,
													"numoutlets" : 1,
													"outlettype" : [ "int" ],
													"patching_rect" : [ 146.0, 254.0, 58.5, 22.0 ],
													"text" : "+"
												}

											}
, 											{
												"box" : 												{
													"id" : "obj-40",
													"maxclass" : "newobj",
													"numinlets" : 2,
													"numoutlets" : 1,
													"outlettype" : [ "int" ],
													"patching_rect" : [ 146.0, 187.0, 29.5, 22.0 ],
													"text" : "* 3"
												}

											}
, 											{
												"box" : 												{
													"id" : "obj-38",
													"maxclass" : "newobj",
													"numinlets" : 2,
													"numoutlets" : 1,
													"outlettype" : [ "int" ],
													"patching_rect" : [ 79.0, 254.0, 29.5, 22.0 ],
													"text" : "* 2"
												}

											}
, 											{
												"box" : 												{
													"id" : "obj-37",
													"maxclass" : "newobj",
													"numinlets" : 2,
													"numoutlets" : 1,
													"outlettype" : [ "int" ],
													"patching_rect" : [ 249.0, 158.0, 29.5, 22.0 ],
													"text" : "* 2"
												}

											}
, 											{
												"box" : 												{
													"id" : "obj-36",
													"maxclass" : "newobj",
													"numinlets" : 2,
													"numoutlets" : 3,
													"outlettype" : [ "bang", "bang", "int" ],
													"patching_rect" : [ 58.0, 147.0, 47.0, 22.0 ],
													"text" : "uzi 3 0"
												}

											}
, 											{
												"box" : 												{
													"id" : "obj-35",
													"maxclass" : "newobj",
													"numinlets" : 2,
													"numoutlets" : 3,
													"outlettype" : [ "bang", "bang", "int" ],
													"patching_rect" : [ 58.0, 100.0, 210.0, 22.0 ],
													"text" : "uzi 3 0"
												}

											}
, 											{
												"box" : 												{
													"id" : "obj-9",
													"maxclass" : "newobj",
													"numinlets" : 3,
													"numoutlets" : 1,
													"outlettype" : [ "float" ],
													"patching_rect" : [ 79.0, 299.0, 153.0, 22.0 ],
													"text" : "peek~ buf.select.help.src"
												}

											}
, 											{
												"box" : 												{
													"comment" : "",
													"id" : "obj-77",
													"index" : 1,
													"maxclass" : "inlet",
													"numinlets" : 0,
													"numoutlets" : 1,
													"outlettype" : [ "bang" ],
													"patching_rect" : [ 58.0, 40.0, 30.0, 30.0 ]
												}

											}
, 											{
												"box" : 												{
													"comment" : "",
													"id" : "obj-78",
													"index" : 1,
													"maxclass" : "outlet",
													"numinlets" : 1,
													"numoutlets" : 0,
													"patching_rect" : [ 50.0, 498.0, 30.0, 30.0 ]
												}

											}
 ],
										"lines" : [ 											{
												"patchline" : 												{
													"destination" : [ "obj-36", 0 ],
													"source" : [ "obj-35", 0 ]
												}

											}
, 											{
												"patchline" : 												{
													"destination" : [ "obj-37", 0 ],
													"order" : 0,
													"source" : [ "obj-35", 2 ]
												}

											}
, 											{
												"patchline" : 												{
													"destination" : [ "obj-41", 1 ],
													"order" : 2,
													"source" : [ "obj-35", 2 ]
												}

											}
, 											{
												"patchline" : 												{
													"destination" : [ "obj-69", 0 ],
													"order" : 1,
													"source" : [ "obj-35", 2 ]
												}

											}
, 											{
												"patchline" : 												{
													"destination" : [ "obj-38", 0 ],
													"order" : 1,
													"source" : [ "obj-36", 2 ]
												}

											}
, 											{
												"patchline" : 												{
													"destination" : [ "obj-40", 0 ],
													"order" : 0,
													"source" : [ "obj-36", 2 ]
												}

											}
, 											{
												"patchline" : 												{
													"destination" : [ "obj-63", 0 ],
													"source" : [ "obj-37", 0 ]
												}

											}
, 											{
												"patchline" : 												{
													"destination" : [ "obj-60", 0 ],
													"order" : 1,
													"source" : [ "obj-38", 0 ]
												}

											}
, 											{
												"patchline" : 												{
													"destination" : [ "obj-9", 0 ],
													"order" : 0,
													"source" : [ "obj-38", 0 ]
												}

											}
, 											{
												"patchline" : 												{
													"destination" : [ "obj-41", 0 ],
													"source" : [ "obj-40", 0 ]
												}

											}
, 											{
												"patchline" : 												{
													"destination" : [ "obj-59", 0 ],
													"order" : 1,
													"source" : [ "obj-41", 0 ]
												}

											}
, 											{
												"patchline" : 												{
													"destination" : [ "obj-9", 1 ],
													"order" : 0,
													"source" : [ "obj-41", 0 ]
												}

											}
, 											{
												"patchline" : 												{
													"destination" : [ "obj-60", 2 ],
													"source" : [ "obj-59", 1 ]
												}

											}
, 											{
												"patchline" : 												{
													"destination" : [ "obj-60", 1 ],
													"source" : [ "obj-59", 0 ]
												}

											}
, 											{
												"patchline" : 												{
													"destination" : [ "obj-78", 0 ],
													"source" : [ "obj-60", 0 ]
												}

											}
, 											{
												"patchline" : 												{
													"destination" : [ "obj-59", 1 ],
													"source" : [ "obj-61", 0 ]
												}

											}
, 											{
												"patchline" : 												{
													"destination" : [ "obj-61", 0 ],
													"order" : 0,
													"source" : [ "obj-63", 0 ]
												}

											}
, 											{
												"patchline" : 												{
													"destination" : [ "obj-9", 2 ],
													"order" : 1,
													"source" : [ "obj-63", 0 ]
												}

											}
, 											{
												"patchline" : 												{
													"destination" : [ "obj-35", 0 ],
													"source" : [ "obj-77", 0 ]
												}

											}
 ]
									}
,
									"patching_rect" : [ 27.264151999999999, 169.660370999999998, 63.0, 23.0 ],
									"saved_object_attributes" : 									{
										"description" : "",
										"digest" : "",
										"globalpatchername" : "",
										"tags" : ""
									}
,
									"text" : "p fill draw"
								}

							}
, 							{
								"box" : 								{
									"id" : "obj-74",
									"maxclass" : "newobj",
									"numinlets" : 1,
									"numoutlets" : 2,
									"outlettype" : [ "bang", "bang" ],
									"patching_rect" : [ 12.264151999999999, 144.660370999999998, 34.0, 23.0 ],
									"text" : "t b b"
								}

							}
, 							{
								"box" : 								{
									"color" : [ 0.435294, 0.996078, 0.603922, 1.0 ],
									"columns" : 5,
									"dialmode" : 1,
									"dialtracking" : 21,
									"id" : "obj-58",
									"ignoreclick" : 1,
									"maxclass" : "matrixctrl",
									"numinlets" : 1,
									"numoutlets" : 2,
									"outlettype" : [ "list", "list" ],
									"parameter_enable" : 0,
									"patching_rect" : [ 27.264151999999999, 199.594325999999995, 132.545455000000004, 130.0 ],
									"range" : 9,
									"rows" : 5
								}

							}
, 							{
								"box" : 								{
									"color" : [ 0.996078, 0.741176, 0.2, 1.0 ],
									"columns" : 3,
									"dialmode" : 1,
									"dialtracking" : 21,
									"id" : "obj-48",
									"ignoreclick" : 1,
									"maxclass" : "matrixctrl",
									"numinlets" : 1,
									"numoutlets" : 2,
									"outlettype" : [ "list", "list" ],
									"parameter_enable" : 0,
									"patching_rect" : [ 12.264151999999999, 440.669821999999954, 132.545455000000004, 130.0 ],
									"range" : 9,
									"rows" : 3
								}

							}
, 							{
								"box" : 								{
									"id" : "obj-8",
									"maxclass" : "newobj",
									"numinlets" : 1,
									"numoutlets" : 2,
									"outlettype" : [ "float", "bang" ],
									"patching_rect" : [ 321.320768999999984, 543.41510500000004, 234.0, 23.0 ],
									"text" : "buffer~ buf.select.help.src @samps 5 5"
								}

							}
, 							{
								"box" : 								{
									"id" : "obj-7",
									"maxclass" : "newobj",
									"numinlets" : 1,
									"numoutlets" : 2,
									"outlettype" : [ "float", "bang" ],
									"patching_rect" : [ 321.320768999999984, 512.349067999999988, 157.0, 23.0 ],
									"text" : "buffer~ buf.select.help.dst"
								}

							}
, 							{
								"box" : 								{
									"id" : "obj-3",
									"linecount" : 4,
									"maxclass" : "newobj",
									"numinlets" : 1,
									"numoutlets" : 3,
									"outlettype" : [ "bang", "float", "" ],
									"patching_rect" : [ 12.264151999999999, 347.528317000000015, 270.264162999999996, 67.0 ],
									"text" : "fluid.bufselectevery~ @source buf.select.help.src @destination buf.select.help.dst @channelhop 2 @framehop 2"
								}

							}
, 							{
								"box" : 								{
									"id" : "obj-6",
									"maxclass" : "comment",
									"numinlets" : 1,
									"numoutlets" : 0,
									"patching_rect" : [ 10.0, 61.0, 317.0, 21.0 ],
									"text" : "cherry pick from buffer~s at regularly spaced intervals",
									"textcolor" : [ 0.129412, 0.129412, 0.129412, 0.5 ]
								}

							}
, 							{
								"box" : 								{
									"border" : 0,
									"filename" : "helpdetails.js",
									"id" : "obj-2",
									"ignoreclick" : 1,
									"jsarguments" : [ "fluid.bufselectevery~" ],
									"maxclass" : "jsui",
									"numinlets" : 1,
									"numoutlets" : 1,
									"outlettype" : [ "" ],
									"parameter_enable" : 0,
									"patching_rect" : [ 10.0, 10.0, 611.0, 51.0 ]
								}

							}
, 							{
								"box" : 								{
									"attr" : "startframe",
									"id" : "obj-1",
									"maxclass" : "attrui",
									"numinlets" : 1,
									"numoutlets" : 1,
									"outlettype" : [ "" ],
									"patching_rect" : [ 167.528315000000021, 160.320760000000007, 150.0, 23.0 ]
								}

							}
 ],
						"lines" : [ 							{
								"patchline" : 								{
									"destination" : [ "obj-3", 0 ],
									"midpoints" : [ 177.028315000000021, 340.820760000000007, 21.764151999999999, 340.820760000000007 ],
									"source" : [ "obj-1", 0 ]
								}

							}
, 							{
								"patchline" : 								{
									"destination" : [ "obj-3", 0 ],
									"midpoints" : [ 352.877370999999982, 337.320760000000007, 21.764151999999999, 337.320760000000007 ],
									"source" : [ "obj-10", 0 ]
								}

							}
, 							{
								"patchline" : 								{
									"destination" : [ "obj-3", 0 ],
									"midpoints" : [ 344.877370999999982, 337.820760000000007, 21.764151999999999, 337.820760000000007 ],
									"source" : [ "obj-11", 0 ]
								}

							}
, 							{
								"patchline" : 								{
									"destination" : [ "obj-82", 0 ],
									"source" : [ "obj-3", 0 ]
								}

							}
, 							{
								"patchline" : 								{
									"destination" : [ "obj-3", 0 ],
									"midpoints" : [ 186.5, 340.320760000000007, 21.764151999999999, 340.320760000000007 ],
									"source" : [ "obj-4", 0 ]
								}

							}
, 							{
								"patchline" : 								{
									"destination" : [ "obj-3", 0 ],
									"midpoints" : [ 197.028315000000021, 339.820760000000007, 21.764151999999999, 339.820760000000007 ],
									"source" : [ "obj-5", 0 ]
								}

							}
, 							{
								"patchline" : 								{
									"destination" : [ "obj-3", 0 ],
									"source" : [ "obj-74", 0 ]
								}

							}
, 							{
								"patchline" : 								{
									"destination" : [ "obj-79", 0 ],
									"source" : [ "obj-74", 1 ]
								}

							}
, 							{
								"patchline" : 								{
									"destination" : [ "obj-58", 0 ],
									"source" : [ "obj-79", 0 ]
								}

							}
, 							{
								"patchline" : 								{
									"destination" : [ "obj-48", 0 ],
									"source" : [ "obj-82", 0 ]
								}

							}
, 							{
								"patchline" : 								{
									"destination" : [ "obj-84", 0 ],
									"source" : [ "obj-83", 0 ]
								}

							}
, 							{
								"patchline" : 								{
									"destination" : [ "obj-74", 0 ],
									"source" : [ "obj-84", 0 ]
								}

							}
, 							{
								"patchline" : 								{
									"destination" : [ "obj-3", 0 ],
									"midpoints" : [ 365.877370999999982, 339.820760000000007, 21.764151999999999, 339.820760000000007 ],
									"source" : [ "obj-9", 0 ]
								}

							}
 ]
					}
,
					"patching_rect" : [ 10.0, 85.0, 50.0, 22.0 ],
					"saved_object_attributes" : 					{
						"description" : "",
						"digest" : "",
						"fontsize" : 13.0,
						"globalpatchername" : "",
						"tags" : ""
					}
,
					"text" : "p basic",
					"varname" : "basic_tab"
				}

			}
, 			{
				"box" : 				{
					"border" : 0,
					"filename" : "helpname.js",
					"id" : "obj-4",
					"ignoreclick" : 1,
					"jsarguments" : [ "fluid.buf.select" ],
					"maxclass" : "jsui",
					"numinlets" : 1,
					"numoutlets" : 1,
					"outlettype" : [ "" ],
					"parameter_enable" : 0,
					"patching_rect" : [ 10.0, 10.0, 313.256011999999998, 57.599854000000001 ]
				}

			}
 ],
		"lines" : [  ],
		"dependency_cache" : [ 			{
				"name" : "helpname.js",
				"bootpath" : "C74:/help/resources",
				"type" : "TEXT",
				"implicit" : 1
			}
, 			{
				"name" : "helpdetails.js",
				"bootpath" : "C74:/help/resources",
				"type" : "TEXT",
				"implicit" : 1
			}
, 			{
				"name" : "fluid.bufselectevery~.mxo",
				"type" : "iLaX"
			}
 ],
		"autosave" : 0
	}

}
