{
	"patcher" : 	{
		"fileversion" : 1,
		"appversion" : 		{
			"major" : 7,
			"minor" : 3,
			"revision" : 5,
			"architecture" : "x64",
			"modernui" : 1
		}
,
		"rect" : [ 124.0, 140.0, 809.0, 612.0 ],
		"bglocked" : 0,
		"openinpresentation" : 0,
		"default_fontsize" : 12.0,
		"default_fontface" : 0,
		"default_fontname" : "Arial",
		"gridonopen" : 1,
		"gridsize" : [ 15.0, 15.0 ],
		"gridsnaponopen" : 1,
		"objectsnaponopen" : 1,
		"statusbarvisible" : 2,
		"toolbarvisible" : 1,
		"lefttoolbarpinned" : 0,
		"toptoolbarpinned" : 0,
		"righttoolbarpinned" : 0,
		"bottomtoolbarpinned" : 0,
		"toolbars_unpinned_last_save" : 0,
		"tallnewobj" : 0,
		"boxanimatetime" : 200,
		"enablehscroll" : 1,
		"enablevscroll" : 1,
		"devicewidth" : 0.0,
		"description" : "",
		"digest" : "",
		"tags" : "",
		"style" : "",
		"subpatcher_template" : "",
		"showrootpatcherontab" : 0,
		"showontab" : 0,
		"boxes" : [ 			{
				"box" : 				{
					"id" : "obj-2",
					"maxclass" : "newobj",
					"numinlets" : 1,
					"numoutlets" : 1,
					"outlettype" : [ "" ],
					"patching_rect" : [ 255.0, 123.0, 154.0, 22.0 ],
					"saved_object_attributes" : 					{
						"filename" : "helpstarter.js",
						"parameter_enable" : 0
					}
,
					"style" : "",
					"text" : "js helpstarter.js fluid.sines~"
				}

			}
, 			{
				"box" : 				{
					"hidden" : 1,
					"id" : "obj-1",
					"maxclass" : "newobj",
					"numinlets" : 0,
					"numoutlets" : 0,
					"patcher" : 					{
						"fileversion" : 1,
						"appversion" : 						{
							"major" : 7,
							"minor" : 3,
							"revision" : 5,
							"architecture" : "x64",
							"modernui" : 1
						}
,
						"rect" : [ 124.0, 166.0, 809.0, 586.0 ],
						"bglocked" : 0,
						"openinpresentation" : 0,
						"default_fontsize" : 12.0,
						"default_fontface" : 0,
						"default_fontname" : "Arial",
						"gridonopen" : 1,
						"gridsize" : [ 15.0, 15.0 ],
						"gridsnaponopen" : 1,
						"objectsnaponopen" : 1,
						"statusbarvisible" : 2,
						"toolbarvisible" : 1,
						"lefttoolbarpinned" : 0,
						"toptoolbarpinned" : 0,
						"righttoolbarpinned" : 0,
						"bottomtoolbarpinned" : 0,
						"toolbars_unpinned_last_save" : 0,
						"tallnewobj" : 0,
						"boxanimatetime" : 200,
						"enablehscroll" : 1,
						"enablevscroll" : 1,
						"devicewidth" : 0.0,
						"description" : "",
						"digest" : "",
						"tags" : "",
						"style" : "",
						"subpatcher_template" : "",
						"showontab" : 1,
						"boxes" : [ 							{
								"box" : 								{
									"attr" : "trackingmethod",
									"id" : "obj-21",
									"maxclass" : "attrui",
									"numinlets" : 1,
									"numoutlets" : 1,
									"outlettype" : [ "" ],
									"patching_rect" : [ 317.121277, 315.5, 191.0, 22.0 ],
									"style" : "",
									"text_width" : 116.878723
								}

							}
, 							{
								"box" : 								{
									"attr" : "trackprob",
									"id" : "obj-19",
									"maxclass" : "attrui",
									"numinlets" : 1,
									"numoutlets" : 1,
									"outlettype" : [ "" ],
									"patching_rect" : [ 518.121277, 315.5, 150.0, 22.0 ],
									"style" : ""
								}

							}
, 							{
								"box" : 								{
									"attr" : "trackmagrange",
									"id" : "obj-16",
									"maxclass" : "attrui",
									"numinlets" : 1,
									"numoutlets" : 1,
									"outlettype" : [ "" ],
									"patching_rect" : [ 518.121277, 291.5, 150.0, 22.0 ],
									"style" : ""
								}

							}
, 							{
								"box" : 								{
									"attr" : "trackfreqrange",
									"id" : "obj-15",
									"maxclass" : "attrui",
									"numinlets" : 1,
									"numoutlets" : 1,
									"outlettype" : [ "" ],
									"patching_rect" : [ 518.121277, 267.5, 150.0, 22.0 ],
									"style" : ""
								}

							}
, 							{
								"box" : 								{
									"attr" : "mintracklen",
									"id" : "obj-13",
									"maxclass" : "attrui",
									"numinlets" : 1,
									"numoutlets" : 1,
									"outlettype" : [ "" ],
									"patching_rect" : [ 518.121277, 244.0, 150.0, 22.0 ],
									"style" : ""
								}

							}
, 							{
								"box" : 								{
									"attr" : "detectionthreshold",
									"id" : "obj-7",
									"maxclass" : "attrui",
									"numinlets" : 1,
									"numoutlets" : 1,
									"outlettype" : [ "" ],
									"patching_rect" : [ 317.121277, 244.0, 167.0, 22.0 ],
									"style" : "",
									"text_width" : 116.878723
								}

							}
, 							{
								"box" : 								{
									"attr" : "birthlowthreshold",
									"id" : "obj-4",
									"maxclass" : "attrui",
									"numinlets" : 1,
									"numoutlets" : 1,
									"outlettype" : [ "" ],
									"patching_rect" : [ 317.121277, 291.5, 167.0, 22.0 ],
									"style" : "",
									"text_width" : 116.878723
								}

							}
, 							{
								"box" : 								{
									"bgmode" : 0,
									"border" : 0,
									"clickthrough" : 0,
									"enablehscroll" : 0,
									"enablevscroll" : 0,
									"id" : "obj-6",
									"lockeddragscroll" : 0,
									"maxclass" : "bpatcher",
									"name" : "fluid.flucomaorg.maxpat",
									"numinlets" : 0,
									"numoutlets" : 0,
									"offset" : [ -10.0, -8.0 ],
									"patching_rect" : [ 627.75, 531.25, 160.0, 41.0 ],
									"viewvisibility" : 1
								}

							}
, 							{
								"box" : 								{
									"args" : [ "@file", "Tremblay-AaS-AcousticStrums-M.wav" ],
									"bgmode" : 0,
									"border" : 0,
									"clickthrough" : 0,
									"enablehscroll" : 0,
									"enablevscroll" : 0,
									"id" : "obj-2",
									"lockeddragscroll" : 0,
									"maxclass" : "bpatcher",
									"name" : "fluid.demosound.maxpat",
									"numinlets" : 0,
									"numoutlets" : 1,
									"offset" : [ 0.0, 0.0 ],
									"outlettype" : [ "signal" ],
									"patching_rect" : [ 10.0, 122.0, 223.0, 122.0 ],
									"viewvisibility" : 1
								}

							}
, 							{
								"box" : 								{
									"bubble" : 1,
									"bubbleside" : 3,
									"id" : "obj-66",
									"linecount" : 2,
									"maxclass" : "comment",
									"numinlets" : 1,
									"numoutlets" : 0,
									"patching_rect" : [ 10.0, 340.0, 106.0, 37.0 ],
									"style" : "",
									"text" : "latency compensation",
									"textcolor" : [ 0.5, 0.5, 0.5, 1.0 ],
									"textjustification" : 1
								}

							}
, 							{
								"box" : 								{
									"bgcolor" : [ 1.0, 0.788235, 0.470588, 1.0 ],
									"fontname" : "Arial Bold",
									"hint" : "",
									"id" : "obj-63",
									"ignoreclick" : 1,
									"legacytextcolor" : 1,
									"maxclass" : "textbutton",
									"numinlets" : 1,
									"numoutlets" : 3,
									"outlettype" : [ "", "", "int" ],
									"parameter_enable" : 0,
									"patching_rect" : [ 236.0, 521.0, 20.0, 20.0 ],
									"rounded" : 60.0,
									"style" : "",
									"text" : "1",
									"textcolor" : [ 0.34902, 0.34902, 0.34902, 1.0 ]
								}

							}
, 							{
								"box" : 								{
									"id" : "obj-59",
									"maxclass" : "comment",
									"numinlets" : 1,
									"numoutlets" : 0,
									"patching_rect" : [ 261.0, 125.5, 150.0, 20.0 ],
									"style" : "",
									"text" : "select a sound",
									"textcolor" : [ 0.5, 0.5, 0.5, 1.0 ]
								}

							}
, 							{
								"box" : 								{
									"id" : "obj-57",
									"maxclass" : "comment",
									"numinlets" : 1,
									"numoutlets" : 0,
									"patching_rect" : [ 124.0, 471.0, 54.0, 20.0 ],
									"style" : "",
									"text" : "Monitor:",
									"textcolor" : [ 0.5, 0.5, 0.5, 1.0 ]
								}

							}
, 							{
								"box" : 								{
									"id" : "obj-55",
									"linecount" : 5,
									"maxclass" : "comment",
									"numinlets" : 1,
									"numoutlets" : 0,
									"patching_rect" : [ 17.0, 385.5, 105.0, 74.0 ],
									"style" : "",
									"text" : "by inverting here, we should hear nothing when all three sources are enabled",
									"textcolor" : [ 0.784314, 0.145098, 0.023529, 1.0 ]
								}

							}
, 							{
								"box" : 								{
									"bgcolor" : [ 1.0, 0.788235, 0.470588, 1.0 ],
									"fontname" : "Arial Bold",
									"hint" : "",
									"id" : "obj-10",
									"ignoreclick" : 1,
									"legacytextcolor" : 1,
									"maxclass" : "textbutton",
									"numinlets" : 1,
									"numoutlets" : 3,
									"outlettype" : [ "", "", "int" ],
									"parameter_enable" : 0,
									"patching_rect" : [ 235.0, 125.5, 20.0, 20.0 ],
									"rounded" : 60.0,
									"style" : "",
									"text" : "2",
									"textcolor" : [ 0.34902, 0.34902, 0.34902, 1.0 ]
								}

							}
, 							{
								"box" : 								{
									"bgcolor" : [ 1.0, 0.788235, 0.470588, 1.0 ],
									"fontname" : "Arial Bold",
									"hint" : "",
									"id" : "obj-11",
									"ignoreclick" : 1,
									"legacytextcolor" : 1,
									"maxclass" : "textbutton",
									"numinlets" : 1,
									"numoutlets" : 3,
									"outlettype" : [ "", "", "int" ],
									"parameter_enable" : 0,
									"patching_rect" : [ 95.0, 471.0, 20.0, 20.0 ],
									"rounded" : 60.0,
									"style" : "",
									"text" : "3",
									"textcolor" : [ 0.34902, 0.34902, 0.34902, 1.0 ]
								}

							}
, 							{
								"box" : 								{
									"bgmode" : 0,
									"border" : 0,
									"clickthrough" : 0,
									"embed" : 1,
									"enablehscroll" : 0,
									"enablevscroll" : 0,
									"id" : "obj-46",
									"lockeddragscroll" : 0,
									"maxclass" : "bpatcher",
									"numinlets" : 3,
									"numoutlets" : 1,
									"offset" : [ 0.0, 0.0 ],
									"outlettype" : [ "signal" ],
									"patcher" : 									{
										"fileversion" : 1,
										"appversion" : 										{
											"major" : 7,
											"minor" : 3,
											"revision" : 5,
											"architecture" : "x64",
											"modernui" : 1
										}
,
										"rect" : [ 59.0, 104.0, 657.0, 289.0 ],
										"bglocked" : 0,
										"openinpresentation" : 1,
										"default_fontsize" : 12.0,
										"default_fontface" : 0,
										"default_fontname" : "Arial",
										"gridonopen" : 1,
										"gridsize" : [ 15.0, 15.0 ],
										"gridsnaponopen" : 1,
										"objectsnaponopen" : 1,
										"statusbarvisible" : 2,
										"toolbarvisible" : 1,
										"lefttoolbarpinned" : 0,
										"toptoolbarpinned" : 0,
										"righttoolbarpinned" : 0,
										"bottomtoolbarpinned" : 0,
										"toolbars_unpinned_last_save" : 0,
										"tallnewobj" : 0,
										"boxanimatetime" : 200,
										"enablehscroll" : 1,
										"enablevscroll" : 1,
										"devicewidth" : 0.0,
										"description" : "",
										"digest" : "",
										"tags" : "",
										"style" : "",
										"subpatcher_template" : "",
										"boxes" : [ 											{
												"box" : 												{
													"id" : "obj-7",
													"maxclass" : "newobj",
													"numinlets" : 1,
													"numoutlets" : 1,
													"outlettype" : [ "" ],
													"patching_rect" : [ 93.0, 32.0, 70.0, 22.0 ],
													"style" : "",
													"text" : "loadmess 1"
												}

											}
, 											{
												"box" : 												{
													"id" : "obj-6",
													"maxclass" : "newobj",
													"numinlets" : 3,
													"numoutlets" : 2,
													"outlettype" : [ "signal", "list" ],
													"patching_rect" : [ 238.0, 190.0, 130.0, 22.0 ],
													"style" : "",
													"text" : "matrix~ 3 1 @ramp 10"
												}

											}
, 											{
												"box" : 												{
													"comment" : "",
													"id" : "obj-3",
													"index" : 3,
													"maxclass" : "inlet",
													"numinlets" : 0,
													"numoutlets" : 1,
													"outlettype" : [ "signal" ],
													"patching_rect" : [ 349.0, 140.0, 30.0, 30.0 ],
													"style" : ""
												}

											}
, 											{
												"box" : 												{
													"comment" : "",
													"id" : "obj-2",
													"index" : 2,
													"maxclass" : "inlet",
													"numinlets" : 0,
													"numoutlets" : 1,
													"outlettype" : [ "signal" ],
													"patching_rect" : [ 293.5, 140.0, 30.0, 30.0 ],
													"style" : ""
												}

											}
, 											{
												"box" : 												{
													"comment" : "",
													"id" : "obj-1",
													"index" : 1,
													"maxclass" : "inlet",
													"numinlets" : 0,
													"numoutlets" : 1,
													"outlettype" : [ "signal" ],
													"patching_rect" : [ 238.0, 140.0, 30.0, 30.0 ],
													"style" : ""
												}

											}
, 											{
												"box" : 												{
													"comment" : "",
													"id" : "obj-26",
													"index" : 1,
													"maxclass" : "outlet",
													"numinlets" : 1,
													"numoutlets" : 0,
													"patching_rect" : [ 238.0, 237.0, 30.0, 30.0 ],
													"style" : ""
												}

											}
, 											{
												"box" : 												{
													"id" : "obj-23",
													"maxclass" : "message",
													"numinlets" : 2,
													"numoutlets" : 1,
													"outlettype" : [ "" ],
													"patching_rect" : [ 172.0, 139.0, 51.0, 22.0 ],
													"style" : "",
													"text" : "$1 0 $2"
												}

											}
, 											{
												"box" : 												{
													"id" : "obj-21",
													"maxclass" : "message",
													"numinlets" : 2,
													"numoutlets" : 1,
													"outlettype" : [ "" ],
													"patching_rect" : [ 93.0, 94.0, 34.0, 22.0 ],
													"style" : "",
													"text" : "0 $1"
												}

											}
, 											{
												"box" : 												{
													"id" : "obj-20",
													"maxclass" : "message",
													"numinlets" : 2,
													"numoutlets" : 1,
													"outlettype" : [ "" ],
													"patching_rect" : [ 172.0, 94.0, 34.0, 22.0 ],
													"style" : "",
													"text" : "1 $1"
												}

											}
, 											{
												"box" : 												{
													"id" : "obj-19",
													"maxclass" : "message",
													"numinlets" : 2,
													"numoutlets" : 1,
													"outlettype" : [ "" ],
													"patching_rect" : [ 250.0, 94.0, 34.0, 22.0 ],
													"style" : "",
													"text" : "2 $1"
												}

											}
, 											{
												"box" : 												{
													"id" : "obj-10",
													"maxclass" : "live.text",
													"numinlets" : 1,
													"numoutlets" : 2,
													"outlettype" : [ "", "" ],
													"parameter_enable" : 1,
													"patching_rect" : [ 250.0, 65.0, 69.0, 20.0 ],
													"presentation" : 1,
													"presentation_rect" : [ 152.0, 0.0, 69.0, 20.0 ],
													"saved_attribute_attributes" : 													{
														"valueof" : 														{
															"parameter_longname" : "live.text[2]",
															"parameter_shortname" : "live.text",
															"parameter_type" : 2,
															"parameter_mmax" : 1.0,
															"parameter_enum" : [ "val1", "val2" ]
														}

													}
,
													"text" : "residual",
													"texton" : "residual",
													"varname" : "live.text[2]"
												}

											}
, 											{
												"box" : 												{
													"id" : "obj-9",
													"maxclass" : "live.text",
													"numinlets" : 1,
													"numoutlets" : 2,
													"outlettype" : [ "", "" ],
													"parameter_enable" : 1,
													"patching_rect" : [ 172.0, 65.0, 69.0, 20.0 ],
													"presentation" : 1,
													"presentation_rect" : [ 78.0, 0.0, 69.0, 20.0 ],
													"saved_attribute_attributes" : 													{
														"valueof" : 														{
															"parameter_longname" : "live.text[1]",
															"parameter_shortname" : "live.text",
															"parameter_type" : 2,
															"parameter_mmax" : 1.0,
															"parameter_enum" : [ "val1", "val2" ]
														}

													}
,
													"text" : "sines",
													"texton" : "sines",
													"varname" : "live.text[1]"
												}

											}
, 											{
												"box" : 												{
													"id" : "obj-8",
													"maxclass" : "live.text",
													"numinlets" : 1,
													"numoutlets" : 2,
													"outlettype" : [ "", "" ],
													"parameter_enable" : 1,
													"patching_rect" : [ 93.0, 65.0, 69.0, 20.0 ],
													"presentation" : 1,
													"presentation_rect" : [ 4.0, 0.0, 69.0, 20.0 ],
													"saved_attribute_attributes" : 													{
														"valueof" : 														{
															"parameter_longname" : "live.text",
															"parameter_shortname" : "live.text",
															"parameter_type" : 2,
															"parameter_mmax" : 1.0,
															"parameter_enum" : [ "val1", "val2" ]
														}

													}
,
													"text" : "source",
													"texton" : "source",
													"varname" : "live.text"
												}

											}
 ],
										"lines" : [ 											{
												"patchline" : 												{
													"destination" : [ "obj-6", 0 ],
													"source" : [ "obj-1", 0 ]
												}

											}
, 											{
												"patchline" : 												{
													"destination" : [ "obj-19", 0 ],
													"source" : [ "obj-10", 0 ]
												}

											}
, 											{
												"patchline" : 												{
													"destination" : [ "obj-23", 0 ],
													"source" : [ "obj-19", 0 ]
												}

											}
, 											{
												"patchline" : 												{
													"destination" : [ "obj-6", 1 ],
													"source" : [ "obj-2", 0 ]
												}

											}
, 											{
												"patchline" : 												{
													"destination" : [ "obj-23", 0 ],
													"source" : [ "obj-20", 0 ]
												}

											}
, 											{
												"patchline" : 												{
													"destination" : [ "obj-23", 0 ],
													"source" : [ "obj-21", 0 ]
												}

											}
, 											{
												"patchline" : 												{
													"destination" : [ "obj-6", 0 ],
													"midpoints" : [ 181.5, 180.0, 247.5, 180.0 ],
													"source" : [ "obj-23", 0 ]
												}

											}
, 											{
												"patchline" : 												{
													"destination" : [ "obj-6", 2 ],
													"source" : [ "obj-3", 0 ]
												}

											}
, 											{
												"patchline" : 												{
													"destination" : [ "obj-26", 0 ],
													"source" : [ "obj-6", 0 ]
												}

											}
, 											{
												"patchline" : 												{
													"destination" : [ "obj-8", 0 ],
													"source" : [ "obj-7", 0 ]
												}

											}
, 											{
												"patchline" : 												{
													"destination" : [ "obj-21", 0 ],
													"source" : [ "obj-8", 0 ]
												}

											}
, 											{
												"patchline" : 												{
													"destination" : [ "obj-20", 0 ],
													"source" : [ "obj-9", 0 ]
												}

											}
 ]
									}
,
									"patching_rect" : [ 183.121277, 469.5, 235.5, 23.0 ],
									"viewvisibility" : 1
								}

							}
, 							{
								"box" : 								{
									"attr" : "bandwidth",
									"id" : "obj-62",
									"maxclass" : "attrui",
									"numinlets" : 1,
									"numoutlets" : 1,
									"outlettype" : [ "" ],
									"patching_rect" : [ 518.121277, 220.0, 150.0, 22.0 ],
									"style" : ""
								}

							}
, 							{
								"box" : 								{
									"attr" : "birthhighthreshold",
									"id" : "obj-52",
									"maxclass" : "attrui",
									"numinlets" : 1,
									"numoutlets" : 1,
									"outlettype" : [ "" ],
									"patching_rect" : [ 317.121277, 267.5, 167.0, 22.0 ],
									"style" : "",
									"text_width" : 116.878723
								}

							}
, 							{
								"box" : 								{
									"attr" : "fftsettings",
									"displaymode" : 3,
									"id" : "obj-36",
									"maxclass" : "attrui",
									"numinlets" : 1,
									"numoutlets" : 1,
									"outlettype" : [ "" ],
									"patching_rect" : [ 317.121277, 347.0, 278.0, 22.0 ],
									"style" : ""
								}

							}
, 							{
								"box" : 								{
									"id" : "obj-12",
									"maxclass" : "message",
									"numinlets" : 2,
									"numoutlets" : 1,
									"outlettype" : [ "" ],
									"patching_rect" : [ 138.621277, 300.0, 50.0, 22.0 ],
									"style" : "",
									"text" : "1792"
								}

							}
, 							{
								"box" : 								{
									"id" : "obj-3",
									"maxclass" : "newobj",
									"numinlets" : 1,
									"numoutlets" : 3,
									"outlettype" : [ "", "", "" ],
									"patching_rect" : [ 138.621277, 264.5, 86.0, 22.0 ],
									"style" : "",
									"text" : "getattr latency"
								}

							}
, 							{
								"box" : 								{
									"id" : "obj-30",
									"maxclass" : "comment",
									"numinlets" : 1,
									"numoutlets" : 0,
									"patching_rect" : [ 369.121277, 188.0, 163.0, 20.0 ],
									"style" : "",
									"text" : "experiment with parameters",
									"textcolor" : [ 0.5, 0.5, 0.5, 1.0 ]
								}

							}
, 							{
								"box" : 								{
									"bgcolor" : [ 1.0, 0.788235, 0.470588, 1.0 ],
									"fontname" : "Arial Bold",
									"hint" : "",
									"id" : "obj-28",
									"ignoreclick" : 1,
									"legacytextcolor" : 1,
									"maxclass" : "textbutton",
									"numinlets" : 1,
									"numoutlets" : 3,
									"outlettype" : [ "", "", "int" ],
									"parameter_enable" : 0,
									"patching_rect" : [ 345.121277, 188.0, 20.0, 20.0 ],
									"rounded" : 60.0,
									"style" : "",
									"text" : "4",
									"textcolor" : [ 0.34902, 0.34902, 0.34902, 1.0 ]
								}

							}
, 							{
								"box" : 								{
									"id" : "obj-18",
									"maxclass" : "newobj",
									"numinlets" : 2,
									"numoutlets" : 1,
									"outlettype" : [ "signal" ],
									"patching_rect" : [ 124.0, 347.0, 113.0, 22.0 ],
									"style" : "",
									"text" : "delay~ 44100 4608"
								}

							}
, 							{
								"box" : 								{
									"fontname" : "Arial",
									"fontsize" : 13.0,
									"id" : "obj-14",
									"maxclass" : "newobj",
									"numinlets" : 2,
									"numoutlets" : 1,
									"outlettype" : [ "signal" ],
									"patching_rect" : [ 124.0, 411.0, 38.0, 23.0 ],
									"style" : "",
									"text" : "*~ -1"
								}

							}
, 							{
								"box" : 								{
									"id" : "obj-17",
									"local" : 1,
									"maxclass" : "ezdac~",
									"numinlets" : 2,
									"numoutlets" : 0,
									"patching_rect" : [ 183.121277, 521.0, 45.0, 45.0 ],
									"style" : ""
								}

							}
, 							{
								"box" : 								{
									"id" : "obj-1",
									"maxclass" : "newobj",
									"numinlets" : 1,
									"numoutlets" : 3,
									"outlettype" : [ "signal", "signal", "" ],
									"patching_rect" : [ 291.371277, 375.0, 401.0, 22.0 ],
									"style" : "",
									"text" : "fluid.sines~ @bandwidth 76 @fftsettings 1024 256 16384 @mintracklen 3"
								}

							}
, 							{
								"box" : 								{
									"border" : 0,
									"filename" : "helpargs.js",
									"id" : "obj-8",
									"ignoreclick" : 1,
									"jsarguments" : [ "fluid.sines~" ],
									"maxclass" : "jsui",
									"numinlets" : 1,
									"numoutlets" : 1,
									"outlettype" : [ "" ],
									"parameter_enable" : 0,
									"patching_rect" : [ 535.0, 420.0, 201.242569, 39.0 ],
									"presentation_rect" : [ 535.0, 420.0, 201.242569, 39.0 ]
								}

							}
, 							{
								"box" : 								{
									"background" : 1,
									"border" : 0,
									"filename" : "helpdetails.js",
									"id" : "obj-5",
									"ignoreclick" : 1,
									"jsarguments" : [ "fluid.sines~" ],
									"maxclass" : "jsui",
									"numinlets" : 1,
									"numoutlets" : 1,
									"outlettype" : [ "" ],
									"parameter_enable" : 0,
									"patching_rect" : [ 10.0, 10.0, 619.0, 102.0 ]
								}

							}
 ],
						"lines" : [ 							{
								"patchline" : 								{
									"destination" : [ "obj-46", 2 ],
									"source" : [ "obj-1", 1 ]
								}

							}
, 							{
								"patchline" : 								{
									"destination" : [ "obj-46", 1 ],
									"source" : [ "obj-1", 0 ]
								}

							}
, 							{
								"patchline" : 								{
									"destination" : [ "obj-18", 1 ],
									"midpoints" : [ 148.121277, 338.0, 227.5, 338.0 ],
									"source" : [ "obj-12", 0 ]
								}

							}
, 							{
								"patchline" : 								{
									"destination" : [ "obj-1", 0 ],
									"source" : [ "obj-13", 0 ]
								}

							}
, 							{
								"patchline" : 								{
									"destination" : [ "obj-46", 0 ],
									"midpoints" : [ 133.5, 447.25, 192.621277, 447.25 ],
									"source" : [ "obj-14", 0 ]
								}

							}
, 							{
								"patchline" : 								{
									"destination" : [ "obj-1", 0 ],
									"source" : [ "obj-15", 0 ]
								}

							}
, 							{
								"patchline" : 								{
									"destination" : [ "obj-1", 0 ],
									"source" : [ "obj-16", 0 ]
								}

							}
, 							{
								"patchline" : 								{
									"destination" : [ "obj-14", 0 ],
									"source" : [ "obj-18", 0 ]
								}

							}
, 							{
								"patchline" : 								{
									"destination" : [ "obj-1", 0 ],
									"source" : [ "obj-19", 0 ]
								}

							}
, 							{
								"patchline" : 								{
									"destination" : [ "obj-1", 0 ],
									"midpoints" : [ 19.5, 253.5, 300.871277, 253.5 ],
									"order" : 0,
									"source" : [ "obj-2", 0 ]
								}

							}
, 							{
								"patchline" : 								{
									"destination" : [ "obj-18", 0 ],
									"midpoints" : [ 19.5, 299.0, 133.5, 299.0 ],
									"order" : 1,
									"source" : [ "obj-2", 0 ]
								}

							}
, 							{
								"patchline" : 								{
									"destination" : [ "obj-1", 0 ],
									"source" : [ "obj-21", 0 ]
								}

							}
, 							{
								"patchline" : 								{
									"destination" : [ "obj-1", 0 ],
									"midpoints" : [ 181.621277, 296.75, 300.871277, 296.75 ],
									"source" : [ "obj-3", 1 ]
								}

							}
, 							{
								"patchline" : 								{
									"destination" : [ "obj-12", 1 ],
									"order" : 0,
									"source" : [ "obj-3", 0 ]
								}

							}
, 							{
								"patchline" : 								{
									"destination" : [ "obj-12", 0 ],
									"order" : 1,
									"source" : [ "obj-3", 0 ]
								}

							}
, 							{
								"patchline" : 								{
									"destination" : [ "obj-1", 0 ],
									"hidden" : 1,
									"source" : [ "obj-36", 0 ]
								}

							}
, 							{
								"patchline" : 								{
									"destination" : [ "obj-1", 0 ],
									"source" : [ "obj-4", 0 ]
								}

							}
, 							{
								"patchline" : 								{
									"destination" : [ "obj-17", 1 ],
									"order" : 0,
									"source" : [ "obj-46", 0 ]
								}

							}
, 							{
								"patchline" : 								{
									"destination" : [ "obj-17", 0 ],
									"order" : 1,
									"source" : [ "obj-46", 0 ]
								}

							}
, 							{
								"patchline" : 								{
									"destination" : [ "obj-1", 0 ],
									"hidden" : 1,
									"source" : [ "obj-52", 0 ]
								}

							}
, 							{
								"patchline" : 								{
									"destination" : [ "obj-1", 0 ],
									"hidden" : 1,
									"source" : [ "obj-62", 0 ]
								}

							}
, 							{
								"patchline" : 								{
									"destination" : [ "obj-1", 0 ],
									"source" : [ "obj-7", 0 ]
								}

							}
 ],
						"styles" : [ 							{
								"name" : "max6box",
								"default" : 								{
									"textcolor_inverse" : [ 0.0, 0.0, 0.0, 1.0 ],
									"bgcolor" : [ 1.0, 1.0, 1.0, 0.5 ],
									"accentcolor" : [ 0.8, 0.839216, 0.709804, 1.0 ]
								}
,
								"parentstyle" : "",
								"multi" : 0
							}
, 							{
								"name" : "max6inlet",
								"default" : 								{
									"color" : [ 0.423529, 0.372549, 0.27451, 1.0 ]
								}
,
								"parentstyle" : "",
								"multi" : 0
							}
, 							{
								"name" : "max6message",
								"default" : 								{
									"bgfillcolor" : 									{
										"type" : "gradient",
										"color1" : [ 0.866667, 0.866667, 0.866667, 1.0 ],
										"color2" : [ 0.788235, 0.788235, 0.788235, 1.0 ],
										"color" : [ 0.290196, 0.309804, 0.301961, 1.0 ],
										"angle" : 270.0,
										"proportion" : 0.39,
										"autogradient" : 0
									}
,
									"textcolor_inverse" : [ 0.0, 0.0, 0.0, 1.0 ]
								}
,
								"parentstyle" : "max6box",
								"multi" : 0
							}
, 							{
								"name" : "max6outlet",
								"default" : 								{
									"color" : [ 0.0, 0.454902, 0.498039, 1.0 ]
								}
,
								"parentstyle" : "",
								"multi" : 0
							}
 ]
					}
,
					"patching_rect" : [ 24.5, 98.0, 49.0, 22.0 ],
					"saved_object_attributes" : 					{
						"description" : "",
						"digest" : "",
						"globalpatchername" : "",
						"style" : "",
						"tags" : ""
					}
,
					"style" : "",
					"text" : "p basic",
					"varname" : "basic_tab"
				}

			}
, 			{
				"box" : 				{
					"border" : 0,
					"filename" : "helpname.js",
					"id" : "obj-5",
					"ignoreclick" : 1,
					"jsarguments" : [ "fluid.sines~" ],
					"maxclass" : "jsui",
					"numinlets" : 1,
					"numoutlets" : 1,
					"outlettype" : [ "" ],
					"parameter_enable" : 0,
					"patching_rect" : [ 10.0, 10.0, 242.717163, 57.567627 ]
				}

			}
, 			{
				"box" : 				{
					"id" : "obj-6",
					"maxclass" : "newobj",
					"numinlets" : 0,
					"numoutlets" : 0,
					"patcher" : 					{
						"fileversion" : 1,
						"appversion" : 						{
							"major" : 7,
							"minor" : 3,
							"revision" : 5,
							"architecture" : "x64",
							"modernui" : 1
						}
,
						"rect" : [ 0.0, 26.0, 809.0, 586.0 ],
						"bglocked" : 0,
						"openinpresentation" : 0,
						"default_fontsize" : 12.0,
						"default_fontface" : 0,
						"default_fontname" : "Arial",
						"gridonopen" : 1,
						"gridsize" : [ 15.0, 15.0 ],
						"gridsnaponopen" : 1,
						"objectsnaponopen" : 1,
						"statusbarvisible" : 2,
						"toolbarvisible" : 1,
						"lefttoolbarpinned" : 0,
						"toptoolbarpinned" : 0,
						"righttoolbarpinned" : 0,
						"bottomtoolbarpinned" : 0,
						"toolbars_unpinned_last_save" : 0,
						"tallnewobj" : 0,
						"boxanimatetime" : 200,
						"enablehscroll" : 1,
						"enablevscroll" : 1,
						"devicewidth" : 0.0,
						"description" : "",
						"digest" : "",
						"tags" : "",
						"style" : "",
						"subpatcher_template" : "",
						"showontab" : 1,
						"boxes" : [  ],
						"lines" : [  ]
					}
,
					"patching_rect" : [ 205.0, 205.0, 50.0, 22.0 ],
					"saved_object_attributes" : 					{
						"description" : "",
						"digest" : "",
						"globalpatchername" : "",
						"style" : "",
						"tags" : ""
					}
,
					"style" : "",
					"text" : "p ?",
					"varname" : "q_tab"
				}

			}
 ],
		"lines" : [  ],
		"parameters" : 		{
			"obj-1::obj-2::obj-35" : [ "[5]", "Level", 0 ],
			"obj-1::obj-46::obj-8" : [ "live.text", "live.text", 0 ],
			"obj-1::obj-46::obj-10" : [ "live.text[2]", "live.text", 0 ],
			"obj-1::obj-2::obj-21::obj-6" : [ "live.tab[3]", "live.tab[1]", 0 ],
			"obj-1::obj-46::obj-9" : [ "live.text[1]", "live.text", 0 ]
		}
,
		"dependency_cache" : [ 			{
				"name" : "helpname.js",
				"bootpath" : "C74:/help/resources",
				"type" : "TEXT",
				"implicit" : 1
			}
, 			{
				"name" : "helpdetails.js",
				"bootpath" : "C74:/help/resources",
				"type" : "TEXT",
				"implicit" : 1
			}
, 			{
				"name" : "helpargs.js",
				"bootpath" : "C74:/help/resources",
				"type" : "TEXT",
				"implicit" : 1
			}
, 			{
				"name" : "fluid.demosound.maxpat",
				"bootpath" : "~/Documents/documents@hudd/research/projects/fluid corpus navigation/research/flucoma-max/help",
				"patcherrelativepath" : ".",
				"type" : "JSON",
				"implicit" : 1
			}
, 			{
				"name" : "sine.svg",
				"bootpath" : "C74:/media/max/picts/m4l-picts",
				"type" : "svg ",
				"implicit" : 1
			}
, 			{
				"name" : "saw.svg",
				"bootpath" : "C74:/media/max/picts/m4l-picts",
				"type" : "svg ",
				"implicit" : 1
			}
, 			{
				"name" : "square.svg",
				"bootpath" : "C74:/media/max/picts/m4l-picts",
				"type" : "svg ",
				"implicit" : 1
			}
, 			{
				"name" : "random.svg",
				"bootpath" : "C74:/media/max/picts/m4l-picts",
				"type" : "svg ",
				"implicit" : 1
			}
, 			{
				"name" : "interfacecolor.js",
				"bootpath" : "C74:/interfaces",
				"type" : "TEXT",
				"implicit" : 1
			}
, 			{
				"name" : "fluid.patchpath.js",
				"bootpath" : "~/Documents/documents@hudd/research/projects/fluid corpus navigation/research/flucoma-max/help",
				"patcherrelativepath" : ".",
				"type" : "TEXT",
				"implicit" : 1
			}
, 			{
				"name" : "fluid.flucomaorg.maxpat",
				"bootpath" : "~/Documents/documents@hudd/research/projects/fluid corpus navigation/research/flucoma-max/help",
				"patcherrelativepath" : ".",
				"type" : "JSON",
				"implicit" : 1
			}
, 			{
				"name" : "helpstarter.js",
				"bootpath" : "C74:/help/resources",
				"type" : "TEXT",
				"implicit" : 1
			}
, 			{
				"name" : "fluid.sines~.mxo",
				"type" : "iLaX"
			}
, 			{
				"name" : "vtimes~.mxo",
				"type" : "iLaX"
			}
 ],
		"autosave" : 0,
		"styles" : [ 			{
				"name" : "max6box",
				"default" : 				{
					"textcolor_inverse" : [ 0.0, 0.0, 0.0, 1.0 ],
					"bgcolor" : [ 1.0, 1.0, 1.0, 0.5 ],
					"accentcolor" : [ 0.8, 0.839216, 0.709804, 1.0 ]
				}
,
				"parentstyle" : "",
				"multi" : 0
			}
, 			{
				"name" : "max6inlet",
				"default" : 				{
					"color" : [ 0.423529, 0.372549, 0.27451, 1.0 ]
				}
,
				"parentstyle" : "",
				"multi" : 0
			}
, 			{
				"name" : "max6message",
				"default" : 				{
					"bgfillcolor" : 					{
						"type" : "gradient",
						"color1" : [ 0.866667, 0.866667, 0.866667, 1.0 ],
						"color2" : [ 0.788235, 0.788235, 0.788235, 1.0 ],
						"color" : [ 0.290196, 0.309804, 0.301961, 1.0 ],
						"angle" : 270.0,
						"proportion" : 0.39,
						"autogradient" : 0
					}
,
					"textcolor_inverse" : [ 0.0, 0.0, 0.0, 1.0 ]
				}
,
				"parentstyle" : "max6box",
				"multi" : 0
			}
, 			{
				"name" : "max6outlet",
				"default" : 				{
					"color" : [ 0.0, 0.454902, 0.498039, 1.0 ]
				}
,
				"parentstyle" : "",
				"multi" : 0
			}
 ]
	}

}
